<mxfile host="app.diagrams.net" modified="2022-06-22T05:44:05.088Z" agent="5.0 (Macintosh; Intel Mac OS X 10_15_7) AppleWebKit/537.36 (KHTML, like Gecko) Chrome/102.0.0.0 Safari/537.36" etag="KqXmbmmfc1xQkpy9A_sE" version="20.0.1" type="github">
  <diagram id="WJRDlpYzLZMfUZiPSAPI" name="第 1 页">
    <mxGraphModel dx="1773" dy="495" grid="1" gridSize="10" guides="1" tooltips="1" connect="1" arrows="1" fold="1" page="1" pageScale="1" pageWidth="827" pageHeight="1169" math="0" shadow="0">
      <root>
        <mxCell id="0" />
        <mxCell id="1" parent="0" />
        <mxCell id="U0Ym5MUiS6u3b6CPzS_v-1" value="" style="rounded=0;whiteSpace=wrap;html=1;" parent="1" vertex="1">
          <mxGeometry x="260" y="100" width="200" height="120" as="geometry" />
        </mxCell>
        <mxCell id="U0Ym5MUiS6u3b6CPzS_v-23" style="edgeStyle=orthogonalEdgeStyle;rounded=0;orthogonalLoop=1;jettySize=auto;html=1;exitX=0.5;exitY=1;exitDx=0;exitDy=0;exitPerimeter=0;dashed=1;" parent="1" source="U0Ym5MUiS6u3b6CPzS_v-2" target="U0Ym5MUiS6u3b6CPzS_v-22" edge="1">
          <mxGeometry relative="1" as="geometry" />
        </mxCell>
        <mxCell id="U0Ym5MUiS6u3b6CPzS_v-2" value="Clickhouse" style="shape=cylinder3;whiteSpace=wrap;html=1;boundedLbl=1;backgroundOutline=1;size=15;" parent="1" vertex="1">
          <mxGeometry x="460" y="210" width="140" height="60" as="geometry" />
        </mxCell>
        <mxCell id="U0Ym5MUiS6u3b6CPzS_v-3" value="Interceptor" style="rounded=1;whiteSpace=wrap;html=1;fillColor=#ffe6cc;strokeColor=#d79b00;" parent="1" vertex="1">
          <mxGeometry x="282" y="140" width="110" height="20" as="geometry" />
        </mxCell>
        <mxCell id="U0Ym5MUiS6u3b6CPzS_v-4" value="smart-admin-web（无锡）" style="text;html=1;strokeColor=none;fillColor=none;align=center;verticalAlign=middle;whiteSpace=wrap;rounded=0;" parent="1" vertex="1">
          <mxGeometry x="250" y="100" width="180" height="30" as="geometry" />
        </mxCell>
        <mxCell id="U0Ym5MUiS6u3b6CPzS_v-13" style="edgeStyle=orthogonalEdgeStyle;rounded=0;orthogonalLoop=1;jettySize=auto;html=1;exitX=0.5;exitY=1;exitDx=0;exitDy=0;entryX=0;entryY=0.5;entryDx=0;entryDy=0;entryPerimeter=0;dashed=1;" parent="1" source="U0Ym5MUiS6u3b6CPzS_v-5" target="U0Ym5MUiS6u3b6CPzS_v-2" edge="1">
          <mxGeometry relative="1" as="geometry" />
        </mxCell>
        <mxCell id="U0Ym5MUiS6u3b6CPzS_v-48" style="edgeStyle=orthogonalEdgeStyle;rounded=0;orthogonalLoop=1;jettySize=auto;html=1;exitX=1;exitY=0.5;exitDx=0;exitDy=0;entryX=0;entryY=0.5;entryDx=0;entryDy=0;dashed=1;fontSize=10;" parent="1" source="U0Ym5MUiS6u3b6CPzS_v-5" target="U0Ym5MUiS6u3b6CPzS_v-39" edge="1">
          <mxGeometry relative="1" as="geometry" />
        </mxCell>
        <mxCell id="U0Ym5MUiS6u3b6CPzS_v-5" value="UsageService" style="rounded=1;whiteSpace=wrap;html=1;fillColor=#d5e8d4;strokeColor=#82b366;" parent="1" vertex="1">
          <mxGeometry x="293.5" y="190" width="87" height="20" as="geometry" />
        </mxCell>
        <mxCell id="U0Ym5MUiS6u3b6CPzS_v-7" value="" style="endArrow=classic;html=1;rounded=0;dashed=1;" parent="1" target="U0Ym5MUiS6u3b6CPzS_v-3" edge="1">
          <mxGeometry width="50" height="50" relative="1" as="geometry">
            <mxPoint x="190" y="150" as="sourcePoint" />
            <mxPoint x="440" y="220" as="targetPoint" />
          </mxGeometry>
        </mxCell>
        <mxCell id="U0Ym5MUiS6u3b6CPzS_v-10" value="" style="endArrow=classic;html=1;rounded=0;dashed=1;exitX=0.5;exitY=1;exitDx=0;exitDy=0;entryX=0.5;entryY=0;entryDx=0;entryDy=0;" parent="1" source="U0Ym5MUiS6u3b6CPzS_v-3" target="U0Ym5MUiS6u3b6CPzS_v-5" edge="1">
          <mxGeometry width="50" height="50" relative="1" as="geometry">
            <mxPoint x="200" y="160" as="sourcePoint" />
            <mxPoint x="290" y="160" as="targetPoint" />
          </mxGeometry>
        </mxCell>
        <mxCell id="U0Ym5MUiS6u3b6CPzS_v-14" value="前端工程" style="rounded=0;whiteSpace=wrap;html=1;" parent="1" vertex="1">
          <mxGeometry x="80" y="120" width="120" height="60" as="geometry" />
        </mxCell>
        <mxCell id="U0Ym5MUiS6u3b6CPzS_v-16" value="" style="endArrow=classic;html=1;rounded=0;dashed=1;" parent="1" edge="1">
          <mxGeometry width="50" height="50" relative="1" as="geometry">
            <mxPoint x="-12" y="149.5" as="sourcePoint" />
            <mxPoint x="80" y="149.5" as="targetPoint" />
          </mxGeometry>
        </mxCell>
        <mxCell id="U0Ym5MUiS6u3b6CPzS_v-17" value="request" style="text;html=1;align=center;verticalAlign=middle;resizable=0;points=[];autosize=1;strokeColor=none;fillColor=none;" parent="1" vertex="1">
          <mxGeometry y="130" width="60" height="20" as="geometry" />
        </mxCell>
        <mxCell id="U0Ym5MUiS6u3b6CPzS_v-19" value="数据体" style="text;html=1;align=center;verticalAlign=middle;resizable=0;points=[];autosize=1;strokeColor=none;fillColor=none;" parent="1" vertex="1">
          <mxGeometry x="731.7" y="130" width="50" height="20" as="geometry" />
        </mxCell>
        <mxCell id="U0Ym5MUiS6u3b6CPzS_v-21" value="" style="shape=image;verticalLabelPosition=bottom;labelBackgroundColor=#ffffff;verticalAlign=top;aspect=fixed;imageAspect=0;image=data:image/png,iVBORw0KGgoAAAANSUhEUgAAAggAAAHYCAYAAAAoKhDRAAAAAXNSR0IArs4c6QAAIABJREFUeF7snQVcVE33x3+khAF2d3d3YXeL3YViK3YhdiJ2tyKKXY/d3WBiB3YrHc/nDO66Cwu4y92Vi2f+n//7vrL3zpn5zr33/O6ZM3ONwsPDw8GFCTABJsAEmAATYAIqBIxYIPD1wASYABNgAkyACUQmwAKBrwkmwASYABNgAkwgCgEWCHxRMAEmwASYABNgAlEFwsnzNzgHgS8MJsAEmAATYAJMQI2AEQmEEoXzMBY9ELh66z6YrbRgmam0PKOrjXKXr3k94OvXMLjZChOIlwRYIOhxWNiZSQ+XmUrPVFONLBAMw5mtMIH4TIAFgh5Hh52Z9HCZqfRMWSAYhilbYQJyI8ACQY8jxs5MerjMVHqmLBAMw5StMAG5EWCBoMcRY2cmPVxmKj1TFgiGYcpWmIDcCLBA0OOIsTOTHi4zlZ4pCwTDMGUrTEBuBFgg6HHE2JlJD5eZSs+UBYJhmLIVJiA3AiwQ9Dhi7Mykh8tMpWfKAsEwTNkKE5AbARYIehwxdmbSw2Wm0jNlgWAYpmyFCciNAAsEPY4YOzPp4TJT6ZmyQDAMU7bCBORGgAWCHkeMnZn0cJmp9ExZIBiGKVthAnIjIJlAOHj8Ik6fv4kKpQuhXo1yf8QhNDQMT56/xuUbd1ClXFGkTpUcL33fqZ2byNwc6dKk+KP64ttBujqzT1++YZPnYdStXhY5smbQqlsBgUH49v0nPn7+hqcvXuPug6do0dAOYWH0yY2on90wNTFFxvSptLLxNw/WlSm1+dXr9/ALCIyx+UYAsmdJD2NjY+VxHz9/RUhw6J932whIkyq5xuNDQkKx0fM/NG9gh8TWluIYGpug4GBYJDLXeM66rQeRwjYp6tcoH+X3afM3IKVtUnRuUx+mJiZ/3sZYjpRiJ0V//0C4zFkt7uv+3VvC2JjoxlxuePsga+Z0sEmaWO3AwKBgbN19DBnTp0bV8sViq4Z/ZwJMQAICWguE8HDg/cfPoAeIarl5+yF6D5uFIgVyYvGMoVGaRo7eJlnETb9930kcOnEZZy7ehP+vB3apYvkxdXRP1GgxUO3cLBnT4th2Nwm6avgqdHFmxLVDXxecv+yN6pVKIk/OzEhukxQdWtZG2bo9EQm76FT1yiUwY1wfwf/QiUtqHbWwMIddheLi7yTINJVHlzwMD0dHi7owVZiy7zEOV2/ei9Xy+f1LkTqlrfK4+u2ccM/nWaznKQ4wMzXFvXObNB6/YKUn5i7dgqIFc2Hl3JHinnj5+j3smvbD0llOqFaxRJTzStbqjkL5smP1vFFYuWkvnr18ozxm47ZDQhg0b1gVpqYRAqFlQzsUypfjj9ur6cC4CgQSPZ36TcK5y16wtEiE2tXKRDFD93b/7i2Uf7947Q7aOkxAInMz7N88G1kzpVX+9tPPH2Xr9oKtbRIc93SDiYRiKE6g+GQmkIAJaC0QgoNDUKGBAz5//REFS1hYhANSfftSHFSjcgksnuEkHFyNlgPw9Plr8cbUuml1dGpVD+nTpsRL3/eo3rw/MmVIjRqVSmKD5yGkT5PynxIIvm8+oHJjRzUBRlGE/ZtmIX+l9ggNjfom26h2Rcx16Y+Fq7ZjxcY9yJU9I67evI9ubRugfs1yoAfxMJfFOHrqCqqUL4rihfLgy7cfWL15n3i7O79viWwu8bgKhEdPX8HVpb/G/g4cM09wiSwQejnNxJNnvmrn0H3w/NVb8bfIUR4zMzPs2zhDo42Q0FB07jcZ5694I2e2jNi7cSaWrtuJuUu2YJXrSFTR8HasKhCadR2Nm94+MY7X/CmDUa9G2TiNaVwEQmhYGPoMm40jpy7H2AZ6mdi+eoryGBIVk13XYo37fvEM2b56sprQcRwxGwePXcTa+WNQsUzhOPWPT2YCTCB2AjoJhHL1euHz1+9w7NoMQMxhw3CEY9Gq7ahRuSSWzhqmJhDunt0EczPT328QV2+jbW9ntGlWE2MHd0a5uj1hkyzJPyMQ6C2plv1gvHn3ER4rXLB11zFs3XMc86cMRL1f4eV2fSbC684jXDq4DDAyQunaPdCsfhVMcOoqxMGStbuwdYULarQYgN6dm2D15v3IkzMLtix3RoUGvUFvt2vdRmOo80J43X0kxoTGRi4lrgLhutd9teiAar/fffgCErmRBUJkNm/ff0KrHuPwwvcdWjepgaF92uDth0/ImzNLjBi///DD2UteSJvaFhs8D2PHvpNwcmwrhJ2ffwAuHlyOlMmTRalDVSDQcS6z1woh8/37T5y/6i2mKsqXinCYVcoVgX3jahpFujZjrKtAoCnDbgOnKqMc5uZm6N+jJTq0qC3Mkwg7fvYa8uXKio2LxyNZUmu1ZpG42L7vBJxnrhbX9Oipy5S/0/SM4gVEdbrioPscZMucTpvu8bFMgAn8AYE4CYQj2+bhzoMnMZqpUq4Yith10igQcmfP9EtfGGH1vJGYMHMVDp+8DNdJA1C7ammUrdcLAQFBGOrYBgXzZEPp4vn/oEvx5xBtnRk5nJotB4LeTunBGhISIuanKdLStH4VhIaEwmP3MZGvkTtHZjHVs/u/Mxg9sBM6t66HG7d90LzLaAzr2w4zFmxEiSJ5RCRhyUwn1KxSSrCltzDFVINdxeJYNG2IsCWXoi1T1X7RFMP9h88woEdLjd2dt3wrfvz0j1YgkIBbtmEPFq70VEZ4OtjXwfEz10R+Q5O6lTF6YAfY2iTVWP+9h89Qv60TWjayw6QRPXH87FWYmpqi+6BpKFeyIDYsGqd23pwl7mI67vXbj2L6IEO6VDi6bR4qNeqDT5+/I3OmNGrH+zx6Ia4DEtdxLboKBJoCmeK6Do3rVELrpjUwbvpy+Dx+Ka5Z37cf4fP4BapWKIapoxyQOtXvaRxqL/02d4kHpo5xQHh4mBBBm7cfUXblweMXOHX+BiqVLYI8OTIr/+7QqQlsbZLEtct8PhNgApEIaC0QKMQ9aKwbvv/0g1354nCevTpGqAfdZ2Oa2waRm0BvEqpTDPRQpD8YGRkhV45MWLvlAPLmyoLd66bDxMQYg8bNx/7D50Bh2ZaNqmHaGAdZDaAuzmz+im1wXeaBhrUqYM+hs6htVwb/Hb+IxnUr4dwlLzH9smDqYDTrMlokI2bJlFb8m+ZrKbmxcccRqFutrJirpjdacizTx/bGuSve2H3wjIgaKEqK5MnQvnktUTdNQ8ih6MJU0S8SCDe8H0Sb+Pn4qa+41iJHEMhBHzp5CUvX7cLbd59EXkjNyqWwYJUn+nRpJqZxRk9ZBkqwo4TaaWN6q4XA+42ci+e+bzGiX3u07zNRCAQ6RuSbOLrg8o27Im/nwtXbqFWlNEoWzSuavNHzEI6fuYozF72QJIkVihfOjSUznIRA+PL1h8hREYWCeOHA3sNn/7pAIHG748ApkQfx4tU7/HfiEqa5rVe7tOh6LFOiADKlT632d3pBWL/1oHD221dNRuZI1+T2fafg5LwAU8f0hn0jOzlcrtxGJiBrAloLBNXe0lvTwyevlH+i6QR6W6AHAoUAaW5205IJIslOUVQFwvWjq4U4oGJlmQj0AB83pItaCJicHoUWM6ZLBXJociq6OLOla3dixsJNwmFQ0iGJohGTlqBV42oidLxj/2m0aFhVHJPYylItIXT8jBXYsO1QFEQUzqW3V3rwZkyXGnYVi+HarQe4c/8pKEN/1oS+aFqvsizQ6sJU0bGRk5eIVR2xlVXzRimv2b2HzwlBTFMPyX+tJBg/tAvOX7mNDo4ThUAY0ru1qJLGZM3mfaCM++nj+qBFg6ri7w3aOYm3501LxisjCCQQjpy6gl5DZ4ickXmTBqJB+2FiHCjhVLWoTjGQqCCB8OHTV5SJFFE7c/HWXxUI9MZ/5cY9IXSOnb6qnGZIlcIGJYvkxas378WqJZpqoUKRlmoViqNUsbwi+kKJhxNnk0j4T/A/tWshLC0TKVGwQIjtyuXfmYC0BOIkECI3xcFppghjU4LRPJcBqFcz6nJHVYGgOJ9Ewq5109Cow3CNvSPHOHW0vKIH1BFdnJlCIEQGQQKBBNKi1TvQtllNbNp+GLRCYcooB6RNZSveyFZt3oejp68KJ/j12w+kS5tSRAYox6Bw/hwic54SFUl4UJi9b7fmuHjtLsoUzxfnOWtpL8voa9OWKTnUnkNnCiGkTTEzM8WWpc7ilDqthwiB1qVNfWUV5y57RxEI9CM5aZc5a0RSKUXBqBSs0gGliubD8H7tlAKBrud6bYfiwaMX2LtxhpiTr91qMB4+eQnvU+tF5r+iaBIIFNXQVP7mFAM5/5otB4iQBnEvmDe7yM8oVii3WlNJPCxcvV30lV4kShbLh82LJyiPmTx3LTq0rIPMGdPg5Lnr+PLtp/jt0vXbcN9xVExfKJI5U9gmQcUyRbQZWj6WCTCBPySgtUAgB0/OJ/IyR7LXtvcE8cA7tHUukidTn4elB0GypInVphgoo96I/s8ImDSyF2Ys3IhdB06jZJE8qFC6MB4+fYV9h8+hU6u6IrIgt6KtM6P+KQSCInIwZlAnTJq7Fs0bVBXii6YVIpdiBXNj26pJ4s+0bLRCfQd8/f4T9Oa2beUkpExhg1r2g0B7JAQFBYs3OHJAVlYW4hzPlZOQKYP6fHZ8Za0t0zB6427YRyR+alPMzcxw9+xGcQpNOzx+5osfv9586W8UPdt/9LwQZoVVlhSSKMifOxtIYFBRRAm6t2uIpvUrKwUC3Ufb9hwH5YGsmDNCHLvW4wAmzlqNEQM6oEe7hsrmahIIJMKH9W2r1qUBo+f91QgCNYacPrHpOnBqrLiT2yTBvo2zxHWo2BOCTqIIzJPnvmKKrGnnkbh15/e0WORKab+JczJahRMrFD6ACcQjAloLBHIutIpBsX/Bn/aF5siPerqpCQSfi1tgbGQktu/5+OmreEhQ+DRt6hTwXDUJdVoNEWFKmqaIHE79U7t/8zhtnRm1dcnanZi5cBPmTOyHwePmQyEQyBHRHLfzsG5i7rZdb2dYW1lgy/KJsEiUSJnF7bZ8KyjZTlEoLD5/yiDsPHAKQcEhoGWUl6/fFZGFooVyicNG9u8gxIQcii5MKfOfBO3OA6dFnsvAnvZiuecAyqg/cw0HNs9GhnQp1bpPUS0rywgBRYVyB2hp4p8UnwvuIiJDNht3GoHb955gw6LxsLVJLAQCbfZDKyFS2CbDng3TRdLo7EWb0b19Q7ToNgY5s2XAtpWT1QRCksSWYnnqrAmO4h6JjxEERYPv+jwT0yqjBnYUkSvKl6DoYrYs6TF1dC9xmOuyrSIp8dLB5VGQDp+0GNt2HwdN9dAGUd++R0xJHDtzVSzN7dq2gdjbg0oic1OUKBKRs8GFCTABaQloLRACA4NEEl1wSEiUluw6cEYkynVpUy/Kb6mS26BHx8bw2HkUsxe7i+Pordj37QexCQ29UV09vBLzlnnAbcU2ZXJeicJ54L7MWTYhcNWO6+LMnGetwjqPg1H4Va9cEi9evRUPRv+AIKzzOCBWH3T9Ffbu0b6RmPulVQqU5X36wk3x3zQnTFMLPdo3FPke127dx/yVniJM26RuJWEnR7aMyJBW3UFKe5lJV5suTMk6OetmXUbh9v2nuPzfCrG8TjElRpsiKTYZomNp+S4tX1QtJBDI9tA+6m/tymPCw7Fo9XaRea8QCLQCp3Sd7rC2tsTp3YvE2zUJBCo03754xhCRaHjnwVM0bD8MK+YMh8fu42L+/viO+WIMaUwpD4JyIMSSwe4tRLIkiZdWTaqrtZHEId0vzRpUidJ+bUdA11UMZEchEEjUU/SKIgJHTl4GRWVqVi0lmkLXIQnWyAKBhFP5+g5iPC7sX6a2OoFzELQdRT6eCcSNgNYCISZzDdo74e6DZ4hpZz5a8khLyagktraCbbLEYje5ooVyY8LQrvj67SfK1+8lwuFUaC6XssblWHRxZrT7HM1jTxjWDRNmrBS5AhQRKFksL+49iNjNj8Lmfn4BwuFTFIHK7vXT0ajjCCQWUQUXVGnsiH7dWoiljiTmegyeHi1CWhbZq2NjWSDWhSl1jDbYIfFEhVbT9OvWHH2GzxbTNvSWS7v3KUq7FrXFKpLIAuHO/Se4dlTzqh1yqLQbIi1VVQiEiBU/80Wkpk3TGnDfcURMF1GhzZoa1q4o/jdtIUyJqJ6rJovNlzx2HYPL8O7Yuvs41m/7T6xQqVqhOMqVLICeQyM2YKKpIhp/MZURDnG/0P+mKY7smdOL6yEuRQqBkD1reiSxthJCgPJirK0sRXSECuUrUHsjC4QVG/Zgqtt69O7cVOQvqBYWCHEZUT6XCWhPQBKBQGv1KY+AtqS9//B5jALhhtcD9BkxR4RYFVMM1GzaIIXmibsNnCZCj/Sgo9Br7hyZxJa0adOkENMRciraOjN608pfsR2yZEqHNfNGwq5Zf7G9bpcBU0SS3JRfiZoUfSlVqzuSJLbCjWNrlEhoR7561cvB0tICZer0EAJhYC97vPvwGZeu3xXH0fTChm3/iQiN4psZ+XJl0fqbD39rHLRlSu2k5YskXoNDQlEwX3bcuv1QLEMkp0oRFsqZyZQutXJFjWITcdVNvCiCQOw6tY4aHSMb5FDddx4Rwk0hEBSMnr14g84DJuP5y4idFy0tLLBk5hDhIH/6BSjFG0UNMqvkgtA0Hm1spRrdoHuN9h7p6DgJObNnhMfyiSIvhTbByp8nK5bMGBrtPgzajJkUAmHpTCeULVlArLio3nyASFZc4zZKNMNp4iKxR4eqQPjx0w9F7DqL/p7Zsxj+/gHiXEU5fva6iNI4dGwMiqgpCi39TZVCfU8FbfrKxzIBJqCZQJwFwucv38XyLPLd5IhSJLeJcete1VUMCoFAjpEyumndNL110cdy1i0Yi7EzVuD46aviQUqZ+LTeX05FW2dG6+Fb9xyPcUO7wK58MSEQaA6WPrzUrV0DjBrQUXQ/OoFAIsvE2DhiCZyKQFBlRm/MFFqnefh+Kvvgy4WrtkzJoVZuHDFn3655LbGJ0LjpK8SGU4pCkSxTU2MYG0WsOiDnSIJ074bf2yXrkoNAddE3R/qPmiuiOLQKhXJtNBXKuzm5a0GMH1x68+4TmncdLe4zmnJYMXck7CoUE0J6+YbdIneFph6cHNugo33dOA2pFAKBRL5YxhwekehJRSF2qM2UH6MqEGhqjabYsmZKhyPbXNFr6EwcPX0l1n5MHN5djC0XJsAEpCUQZ4FADxJyam8/fAZlJffs0Bh1NHyYRdFsejvrPWwm3n/4IjLs6QFCdYyavFR8ybFb+4aoUKqQEAUkJuiDTpNd18F5eDeUKZawd1Kk7auHjJuPxTOdxJslbZpEORqWFuZi+oW2nY5JICgY05I+emOjuXTKTVAttM0tresngUBL4uRWtBUI1D+ay6cd+GhbY5rHp+uN9uugTPlnL9/i/ccv8PMPFNsdh4WGimhWruyZ1HZcHDphIbzvPRYJn5qKuIanLBXijD4upoh20d8pAkRfYmxQq7wY17s+TxEa8vvDWYkTW4mPMalOc2iyERAQiCZdRon7oGeHRmJnRdVCb+Rjpy/H5FE9QStb4lLiIhBoJZN9j7Fij4ic0XyNlFZs0AuB6ofYKIHWc+8J1KpaWkwrXvfyEbuFxlby584qEj+5MAEmIC2BOAsEqZqjmKZQbJykWi/99iefipWqLVLVo4szowezJgZStUnu9ejCVO59Vm0/RSJo2iG6QpEFTR9L05ZBXASCtrb4eCbABOIngXgjEOInnri16l93ZnGjp/lsZqoPqlHrZIFgGM5shQnEZwIsEPQ4OuzMpIfLTKVnqqlGFgiG4cxWmEB8JsACQY+jw85MerjMVHqmLBAMw5StMAG5EWCBoMcRY2cmPVxmKj1TFgiGYcpWmIDcCLBA0OOIsTOTHi4zlZ4pCwTDMGUrTEBuBFgg6HHE2JlJD5eZSs+UBYJhmLIVJiA3AiwQ9Dhi7Mykh8tMpWfKAsEwTNkKE5AbARYIehwxdmbSw2Wm0jNlgWAYpmyFCciNAAsEPY4YOzPp4TJT6ZmyQDAMU7bCBORGgAWCHkeMnZn0cJmp9ExZIBiGKVthAnIjIARCloxp5dZuWbT32cs3YLbSDhUzlZZndLXRRkn06Wm+fg3Dm60wgfhIQAgE+mwwF+kJfP/hJz7JzEU6AsxUOpYx1hQOfP/J16+BaLMZJhAvCQiBULlskXjZOLk36tSFm2C20o4iM5WWZ0wRhNMXb/H1axjcbIUJxEsCLBD0OCzszKSHy0ylZ6qpRppiYIFgGNZshQnEVwIsEPQ4MuzMpIfLTKVnygLBMEzZChOQGwEWCHocMXZm0sNlptIzZYFgGKZshQnIjQALBD2OGDsz6eEyU+mZskAwDFO2wgTkRoAFgh5HjJ2Z9HCZqfRMWSAYhilbYQJyI8ACQY8jxs5MerjMVHqmLBAMw5StMAG5EWCBoMcRY2cmPVxmKj1TFgiGYcpWmIDcCLBA0OOIsTOTHi4zlZ4pCwTDMGUrTEBuBFgg6HHE2JlJD5eZSs+UBYJhmLIVJiA3AiwQ9DhiUjkz2rQmNDQMpqYmemxt7FVTG6iYmBjHfrCejpCKqZ6al2Cq5Y2SEsxQckeYgM4EWCDojC72E3VxZl+//cC9h89QpngBpYHLN+6iU9/JOLlzPlKltI3WcGhoKDZ5HkH7lrVgZGQkRMVPP/9YG2ptZSmcvu+bDzA1NUXqlDYaz3FwmomUKWwwaUSPWOvU1wG6MFW05e37T3jz/lOsTSucLyeMjGI9LEEfwAIhQQ8vd44J/BEBnQRCcHAIAgODYGZmKoyQMzI3N/sjg9oe9ML3LVxmr8Xwfu2QI2sGhIWHIzgoWNgju5oKtc9xxBzUrFIKLRvZaWtSsuN1cWYHj11AlwFTxVf0+vdogSZ1K6Niw954/fYjCufPARPjqG/vm5c5I1kSazx6+goVG/ZBkQI54b50Al69+YDqzQfE2p/NSyegavniGDDGFTsPnMa0MQ5o26wmfvoFYO6yLRjq0AYWFubo4DgRqVMlx+wJfaPUGQ4g6Nc1YWxsDHIwQUHBv48zMkIiCa4RXZgqGuHkvBDb9pxA+nQpNTLx9w8UIunVzR0wMfm70ZpYB03PB7BA0DNgrp4JyICATgKhZstB8Lr7SNk9ctS5s2dC7WplMMyxraSh8Fu3H6JWq8HYuXYqypYogN0Hz6Dn0Bk4s2cRcmbLqBFxQEAgspZsiR4dGsFlePe/Ngy6OrMvX39go+chlC1ZANPnb8Dte08xelBHfPn2AxNnrcbI/u1FJOHA0Qu4eO0OvE+tg7lZhEB7+uI1Wvccj6RJrDGsbzt0GzQNPuc3KxmMmroML1+9w7oFY5R/o6iBsbERgoKD4brUA/OWb4XzsG5oWrcyClTugJvH1yBNquRqAuHT52/Ye+QcmtevCmsrC7x6/R4lanbDHOd+aNu8Jm7deYha9oPV2FtaWiB/7ixoXr8KurZtoNO46MqUjJFAuOfzDKvmjdJo++bth2jfZyILBEAIPP4Wg06XKJ/EBBIMAZ0Fwv1Hz5VO5svX7+LN88jJK+jTtRlGDeggGaB/USAQvDv3n+Lth09YtWkfJg7vjmyZ02HEpCVY474fu9ZNQ/HCuZGvQjv069YCA3q2VOPt7x+AYS6L0a55LbTuNQF3T29AjyHTERQcIhx3InNz5MmZWZzTq2NjVK9UQu1816VbULRQbhTKm11NILTr7Yyv338idQpb7D96XpyjEA8KgTDb2RHtmtdWCoRBvVqhRJHcCAkJxYPHL7H30FncuvMIHe3rYOoYB40RkZgunrgKBPcdR5EkieZPcIeEhODbdz8WCCwQJHt+cUVMQM4EdBYI5BDunNmg1vdGHUfghtcDPLmyTZnIRqHxm3cews8vAPlyZxWRBtUkN5oyePP2o4hI+PkHIl/uLMiRJYNy+uJPBAI5vtv3HosQe+4cmZA5Y1rkLd9WlhEEyhu4eO022vWeiEa1K2Le5AH4/sMP67cexKS5a5E/TzY8ePQC8yb1R7mSBWGTNDEsLBKJcfC+9wTHzlyFY5emIkR++/4T1G83DN4n16Jg5Y6Y5dwX2TKnVY5Z94HTMaxfO7RpWkM48MVrd6JpvcrImC6VOObDxy8oWKUjls8ehrVbD+LMhVuwsrRAgTzZ0Ll1PfQdOUcIhNQpbZURhMgCYcOisahRuZTSZlhYGHoOnYl9h8/iyDY3FMiTVav7J64CwefxS7gvc9Zo89qt+2jWZTQLBBYIWl2TfDATSKgEJBUI09zWw3XZVtw4tgZpUyfH8TPX0K7PRJBToEJTERQ291w5WYS0qdCbaPdB09WOqVmlJNYtGCt+j00gkEOt3NhRiIMIGxAC4dmLN7ITCMSpQYfhuHbzPgY7tEKDmuUxfsZKXLh2RzjwNW6jUatqKez+7wx6DZ0p8jBqVi4Fx65NUbxwHpy77I1mXUahZNG82LlmKijKoyoQHLs2F1MFijLZdQ0mOHUTAiEwKBiNO44QQm3PhhlCeHQfPB137j8Rh1cqUxgfPn9DsUK5xDTCh09fUbhqJyEQUqWw+WOBQHW9efcJRat1RuumNeDq0l+reyuuAmHjtkMw/ZU7E9lweFg4gkNCWCCwQNDqmuSDmUBCJSCpQGjUcTi87jzCw4seeP7qLcrXd0Cj2hVEiJwS1A6duIz+o10xwakrHDo1waVrd9C82xhUKFVIvCnTPPq2vScwfsYKDOhpj+F928UqEFZt3odRk5di1gRH1K9ZHgEBQRg0zg0nzl6XnUCIiAI8FvO/BfJmx6MnLzFl3noxVUACILlNEuV1+PnLdxFp2Lz9CGpWLYX2LWqL30go1bIfhFpVS6N356Zo0mkkbp1YIyIIlBuQMnkyZR2zFrljtnNfIRCokEgYM205tuw8ioE97XH5+l0cP3sNp3YtFJEZ1STF9x+/CIFw+/R6JLdJqpVAICGUvnAOtwubAAAgAElEQVQTZM6QBpf+W67VvRUXgfDm3Ud8/vojRnskXPPkiJh++ZcL5yD8y6PPfWcCEQR0FggPHr/AijnDRSWUPHfk5GXsPXwegxxaYWjv1pizZAtmLNiIa0dWIX3aiKzxkNBQ5K/YHsZGRrh9ZgMo4rB2y0F4n1oP819vdeQ8arcaLDLwbx1fK95gY0pSrNtmiJivf3TJQ5kc+ezlG5Sp01OWAkFxYZas1Z0yxWK8Tmlq4fDWubD8NcWgOJhEAk3j0PQORQEuHlgqBMIcl/7InD61sk5KYBzRv71SINAP5Bj2H72AutXKgERIdEmKvm/eo3iNbvC54I4kia20Eghkp1j1rnj99gPeeO/W6l7UViBQf3oPmyWiFtoUWvq5cfE4bU5JUMeyQEhQw8mdYQI6EdBZIERexZAmdXK0bGgnMuxpmVuPwdOx59BZPLm8FZaWEXPkVPoMn4Xt+07hwYXNGDVpKa7euo/z+5eqNX4svcXuOibC1z6PXkQrEDJlSIMsxZujtl1prJ3/Oyuf5uxzlW0ta4GQtmAjLJg6GOnSpBBsaLUCvannyh6xcuP2vSeY6rYet0+th5WVhRq/j5++igx0El3jZqzAqV2L0KrnOBEhoLwC+j1PriziHJrKqGNXRnk+OYb1W/8TUQlzU1ONAoGmOdZ7/Ifr3g9w8/hamJqYaCUQaL+GDEWaIluW9Di/b4lWF67WAgGA554T+PHTD8Ehobjr8xT5c2eDqYkxzl/xxolzN8Q1G7nQ9A0t9fxXCwuEf3Xkud9M4DcBnQWCpiRFVbADxswToWoSAkkTWyt/atplFM5f9sbjy1sxdtoynDx3A1cOr1Qbk/6jXPHfiYvC+Tx4+DxagZA9S3pkK9kSuXNmxmGPuco66M03X8V2shcIJJxo9QLlWWQo0gROjm0wpHcb0c9zl71EImNkgUBBh+6Dp4He8BvUrCBWl1CU4YXvO9gmSyIiPbOXbsHx7W54/MxXJISqJo3SipRCVTvBY4ULcmfLqFEglC6WTyw3nTSyp2gflehWMUROUqRjFREeh06NRQ6ENkVbgaBa94lz18UyxieXPWBmZobN2w9j5qLNatcOHW9tbQmLRObaNCvBHcsCIcENKXeICWhNQG8Cgd7aHEfOwYmdC5D315I62ngnR2l7FMibDUe3zcPCVdsxZd463Di+Fql+zY1TDkFhu07iAU0RBMppiGmKofugadh7+Jwy1E0Ebt72Qe1WQxKMQPj4+RsKVGoPz1WTUaF0oRgFAkVPith1xrJZTjh08jJe+r7DarfRyF+xHWZN6AtKDSWBsG2FC4pV74LjO+arzbl37j8Zpy/cFDyjTjG4iCRHyvegQnsKUI7EGrdRYjqD9kGIbRUDJQG26DYGl67dxbl9S5QC40+v3LgIBNoJkiIvp/csEuZIIAwaNz/KhluUhNmmWURexr9aWCD8qyPP/WYCvwnoTSB8/+mH4tW7iuV2lGyYJpWtEATXvB7g8FZXFMybDfS2Wq3ZAPz098eI/h2QOoUNFq7eLnIK6K03V/ZMsSYpet19LJLyCuXLgQE9WojchZkLN4mlgXLdKImGh6YYLh5cJnZUnLN4C2Yt3ize+mmVRu4cmXHdywddB0zB2X1LYKUyhbNiwx6RaEgOnpadUpJojcolxaZFlA9y8eptIRBO7VyAoRMW4IXve3gsnyiuiLfvP6OIXScsnTUMjetUFFMRqjkIn79+F+OZNHHEPgIHj11E3xFz8PDSlmgjCO1b1hb7KZAwuOHlA3Lw7z58xphBneDYtVm0u2FGd5PqKhBoKotWaYSFhYtIDO3PQAJh1qLNYtWGarG1SRIlr+Nfe2iwQPjXRpz7ywSiEtBZILx+9xHeJ9fFyJQy3SkRjlYrUKF9/GdPcERtlTnvZy/fivX0lDFPJV2alJg0sgfq1ygn/k25DrRzI20OVKZ4fuw5dA49Bk9T7qRIDzL3HUcwZtoK8d2BZEmtMcShjZh7p02AaEfAv1V0dWbUXv+AQLz0fY/V7vvEZkn9u7cQyxoXrPQUywqLFsqF1k1qwK5CMZHzQeXb958obNcZgx3sUb1SSbHN8pFtrujUbzIqlyuKOc59sWP/Kcxd5oHTuxYKGwUqdcC2VZNQvFBu0IqQMVOXi3FNbpsUfv4ByF7KXjhzmo9XLE0lW+TkHUfMhU2yxNi6wgWvXn9AiZpdMWdiX7RtVktshkTCTbVQ9KFUsbxixUXV8sV0GhZdmFIUpW6boWIlhrNTN9RqNUgsIaX2/HfiEi4d1G4lhU4Nl9lJLBBkNmDcXCagBwI6CQRt20GrHOj7CCmSJxMrGDQVejultf7kmDR9byA2m/SG+unLd6SwSSrpVs+x2Y3pd12c2eI1O3Hk1GXcf/gCn79+E5GRFg3t0L1dxNbElGxHSzh3HTyDg8cvInOG1Jg/dbBw8IdOXkLPwTPE1MzY6Svx+u17rJ43WqwmGTmwI6bNWy+mDyipce+vt+aJs1eLzZFo2+qi1bqgZJG8atn7o6csw8pNezV2kzZNWjhtMOpWLxsXTFqdqy1TWgdSt/UQIZ42LR6PrJnT4eGTl2J/iRu3H4ooia1NUiRNYiWW2YYj4suZWTOlxeYlE7RqW0I6mAVCQhpN7gsT0I2AQQSCbk2T/1naOjPqMW1udPzMdRTImxVFC+QSSwijKxQxmea2EQN7tUQK22RiJ8pte46jQ8va4kNL5AiLFsylPH3Fht34/tMfjetUAiV4Ri701p8xfSqxWkK10C6Y/oGBan+jqIVN0iQG/+qhLkwpQZOEaYZfO0SqdoSEw7uPn+HnFwj/gACEhIQJgUCRKPro1b9aWCD8qyPP/WYCvwmwQNDj1aCLM9NjcxJE1czUMMPIAsEwnNkKE4jPBFgg6HF02JlJD5eZSs9UU40sEAzDma0wgfhMgAWCHkeHnZn0cJmp9ExZIBiGKVthAnIjwAJBjyPGzkx6uMxUeqYsEAzDlK0wAbkRYIGgxxFjZyY9XGYqPVMWCIZhylaYgNwIsEDQ44ixM5MeLjOVnikLBMMwZStMQG4EWCDoccTYmUkPl5lKz5QFgmGYshUmIDcCLBD0OGLszKSHy0ylZ8oCwTBM2QoTkBsBFgh6HDF2ZtLDZabSM2WBYBimbIUJyI0ACwQ9jhg7M+nhMlPpmbJAMAxTtsIE5EaABYIeR4ydmfRwman0TFkgGIYpW2ECciMgBILia4Bya3x8b29YWJjyS4vxva1yaR8zNdxIMWvDsWZLTCA+EhACoeg//FEafQ4KfS2Q2UpLmJlKyzO62mir5Zt3HvH1axjcbIUJxEsCPMWgx2HhcLj0cJmp9Ex5isEwTNkKE5AbARYIehwxdmbSw2Wm0jNlgWAYpmyFCciNAAsEPY4YOzPp4TJT6ZmyQDAMU7bCBORGgAWCHkeMnZn0cJmp9ExZIBiGKVthAnIjwAJBjyPGzkx6uMxUeqYsEAzDlK0wAbkRYIGgxxFjZyY9XGYqPVMWCIZhylaYgNwIsEDQ44ixM5MeLjOVnikLBMMwZStMQG4EWCDoccTYmUkPl5lKz5QFgmGYshUmIDcCLBD0OGLszKSHy0ylZ8oCwTBM2QoTkBsBFgh6HDF2ZtLDZabSM2WBYBimbIUJyI0ACwQ9jlh8cWafPn/DT/8AZEqfWo+9NUzV8YWpYXr796zQVsunL95C5bJF/l4j2DITYAJ/lQALBD3i19WZzVy4CfShnD8tA3rawyKRebSHd+4/BVdv3sPVwythbm72p9XGy+N0ZUqd2XngFM5d9o61X9PGOPzzH9ligRDrZcIHMIEET0AngXDm4i0EBQejWsUSUQC9fP0et+48RO2qZWBiYqw3gMEhITh84jJy58iEnNkyRmtnwqxVOHXuBo5td9NbW6KrWFdnlqloU6RJnQIZ0qZUVn3d6wFskiVBtszplH/z8w+A193HuH9+M5IlsRZ/J2Hhfe8JQkNDlce9fvsR3QZNw+IZQ5ElYxq15ubLlRUWFhHi4uGTl/B5/BI1q5SCqakJbt5+iFev3yuPNzMzRXKbpMiZLQOSJU1scJ5kUFemdK6T80IcOXUFDWpV0Nj2N+8+Yc9/Z/Dq5g6YmJj8lf7FF6MsEOLLSHA7mMDfI6CTQChX3wH+/oG4cWx1lJZv3n4Yg8bNx8NLW5DYylJvPfv89TvyVWiHoY5tMLR3m2jtkFM4fvYarhxaqbe26EMgDOnTBgN72iurtmvaDyWK5MGsCX2Vf7t9/wmqNx+gJhB++gWgiF0nhISGwsQ4eoEWHg6QwDixYz7y5soi6pyz2B2zl7jj7pmNSJrEGo4j5mDH/pOwsowYRxIfAYFBQvitch2JGpVLwsjIyKBc4yoQSGhNHN5DY5vvP3qOkZOWsEAAwALBoJc1G2MC8ZIACwQ9DouuzowiCHEVCGvcRqNYodzR9u7j568oW7cXjnnOi1Eg3Lztg8MerqKe0LAw+L75gE79JuHpizfYttIFFUoX1iPBqFXrylQRQdix/xRy5tAccfrx3Q8Pn7xigcACwaDXNBtjAvGVgEEEwtlLXli0ZgcoWS5ZUmuMHdwZBfJkUzL58vUHBo51w9v3n5DI3AztmtdCy0Z2yt8Hj5uP9GlTwtjYCMfOXEPbZjVRt3rZKBGEoOAQTJ23Hpeu34GZqSk6tqqLc5e8cOKc/CIIKZLbIG0qWyWDuz7PYW1tgcwqiYYULfB58lJjBMF9mTNKFskb7XX34dNXFK7aKVaBQNNFp3cvUqvn05dvKFOnJ0JCQuF9aj2srSwMdn3HVSB433uM+VMGaWzvTe+HcBw5hwUCCwSDXc9siAnEZwJ6FwiUFNautzOKF84tHNaFa7dx8eod7N80E8UL5wE5qtqtBiEwKAQ1KpUQb6ZXbt7DtDG90b5FLcGuUiNHvPvwWYS4q1cqgcZ1K6FsiQJRBMKgsW7w2HUMlcoVRZpUNth98KwIlZuZmchuiqF86UKobVdGee24LvUQIsm+cTXl316/+YD5Kz01CoSZ4/ugSP6c0V57NEXTsMNwHPN0izGCoEkgUKXEuf9oVxze6opC+bIb7BqPi0CYPG8dduw7FWNbKffi7N7FMU7PGKyzf9EQTzH8RfhsmgnEEwJ6Fwhtek3Ahau38fCiu0j8CgsLx5Dx80UiXL0a5TB4/Hxs3X0cFw4sRYa0qRAWHo6+I2bj0InLuHl8DaytLIVA+P7jp0g0pCQ5KpFzEG7fe4LqLQbAoVMTTHDqKo558Og56rcbJqIW/1oOwo+f/n90iZ3ctQB5cmQWx2rKQYhOILx7/xlFqnWGx/KJqGTApXC6CISXvu9BSa3aFIpWZcmYVptTEtSxLBAS1HByZ5iATgT0LhCmLdgI1yVb0KKRHQb1tEfK5DZImsRKJLfRnHaGwk2QMV0qeK6erOzADS8f9Bk+G9ePrUbqlLZCIFD2/roFY5THRBYIC1dvh8vsNfA+uQ4pU9goj6PoBSWfyU0g9OnaDL07NVH2o2H74ShcICcmj/ydYHfX5xmadh6lFkH4/sNPTB3sWDsVRQtEH0HQdLVoIxDef/yCInadsWHROFSrWFyni0+Xk7QVCOToqjbth5e+76KYoykpmiaxskwU5TeKPF0/GjUJV5c2y/EcFghyHDVuMxOQloDOAuHnT3/cOrE2Sms2bT8MyhlQrGKgiMH0+Rswb/lWUMI75QaULVkQ6xeMgX9gEPKWbyvqUM+GDwdl2e9aOxVlShQQAiFPjkxYMXdEtAKhrcMEXLl5Hw/Ob1ZrU79Rc3H+irdsBAI5rKwlWyA8LBzGKstEQ4JDCJJYfqgo9BCn41WXOZJwIsdNUwe0HFGboo1AuHjtDhp3HIF9G2eK1RWGKtoKBGoXLcml64mu2eUb98ChU2NYJEqELTuPYv7KbTizZ3GU5tPaDLnvGRGXMWGBEBd6fC4TSBgEdBII7R1dcORkxBRAmlTJ1UjQMrGNnofw7JqnmtOnkLfv2w9infmcJR7o160Zhjq2RcYiTZEhXSqRLKd0fCQYACS2thTTEn8iEGgufvLctSJpLmXyZMq62vWZiPsPn8lGIFAEIG+Ftpg1vi/Klsyv7AdN1RTOnxMjB7RX/o32LOjYd5KaQPC6+wg1Ww7C7dPrkcL2N4c/uVz/VCCQKKnc2BGPn/nizukNSG4bMe1jiKKLQFC0i65LlzlrcOf0RpHwSktyx89chXmTBqg1nXIqMiaAXSfjMh4sEOJCj89lAgmDgE4C4ejpK2jXeyK6tW2AyaN6KkncefAU5MjSpLLFIY+54u/TF2wUb72De7USgoEiCsWqd0HV8kUxb/JAMZWw99A5nNu3WPlQPnfZS+QluIzoIUTCnwgEyk6v0WIg+nVvjtEDOwnb9x+9QKMOw5EksaVsBMKbdx9RvEZXnNq1UG0DqD/dB2HCzFXYdfA0rh1ZpfUeBX8iEL5++4Epruux1uMAnBzbYkjv1ga9E+IiEOq0HiKWaV49slJEskggDHdZjAJ5f6+ooc4M6d1G7PHwLxcWCP/y6HPfmUAEAZ0EAp3Ytrczjp2+iiIFcoIy7t+8/YhDJy4Jp7R0lhOqV4p4wE5xXYcFqzxhV6G4WHlw8fpdEX3YuGgcqlcuKZY21mo1GEGBwahfsxwCg4KFOKBjt65wAe3e9ycCgWwNGO2KLbuOwa5icWRImxqee48LgZEokZlsBMJq9/1isx7arMjWJonyOtUkEK55PUC9NkOVEQSKPuQq2xpzJvYTS0G1LZoEwoFjF1C5TMR+/F++/cCtO4/EGDWqXQFukweK8TFk0VUgLF6zA9PcNqBowVxi6mDFnOHYf+Q85i7zwKWDyw3ZBVnYYoEgi2HiRjIBvRLQWSBQq9xWbIPHrqPwDwiCqYkxMmdMi8kje4rtj1XL1t3HsHLTPvz08xerEKaM7okCeX4vjSPH4+A0U2zrS1MKDWqWx9A+v3dH7D5oGjJnTINxQ7ooq6UpiyadR6Jzq3rK5ZAU+p44ezVOnL0udvsb7NAKD5/6imWTJEgMXbR1ZvR2nqd8W9g3qQa3SQPVmqsqEK7cuCeYz1+xFZdv3MP9c5uE0yNhNWziIpEbkiSxldbd3eh5GOs8DmD76sli9cj0+Rtx+NRlZT3WlhYomC87urSuF+P21lob1uIEbZlS1QePXQB9j6JH+4biuqrdaogQpiWL5hX7SGxZNhFmpibK7y+Qc6TrJ3MG9W2ptWim7A9lgSD7IeQOMIE4E4iTQIiz9QRegbbO7IXvO9RoPgB3zmyM8h2LgWPmiVwNCuv3HDIDew6dhamJCVa4DhffvaBSpGonNGtQBeOHRizzTIhFW6bEgKaZ0qZOgWWzhwkk5Pw8957E0nU7xXcrfpdw5f8sViiP2KvjXy0sEP7Vked+M4HfBFgg6PFq0MWZ0fcRrCxj3pmQvrNAm0ZRtEX1ews0xWBpmUgIh4RadGEaGBgkVoDQLp2RC33UipY7Ek9adkurHeg/iC1NT/2rhQXCvzry3G8mwALBINeALs7MIA2TsRFmapjBY4FgGM5shQnEZwIcQdDj6LAzkx4uM5WeqaYaWSAYhjNbYQLxmQALBD2ODjsz6eEyU+mZskAwDFO2wgTkRoAFgh5HjJ2Z9HCZqfRMWSAYhilbYQJyI8ACQY8jxs5MerjMVHqmLBAMw5StMAG5EWCBoMcRY2cmPVxmKj1TFgiGYcpWmIDcCLBA0OOIsTOTHi4zlZ4pCwTDMGUrTEBuBFgg6HHE2JlJD5eZSs+UBYJhmLIVJiA3AiwQ9Dhi7Mykh8tMpWfKAsEwTNkKE5AbARYIehwxdmbSw2Wm0jNlgWAYpmyFCciNAAsEPY4YOzPp4TJT6ZmyQDAMU7bCBORGQAgEuTWa28sEmAATYAJMgAnolwBHEPTIl992pYfLTKVnyhEEwzBlK0xAbgRYIOhxxNiZSQ+XmUrPlAWCYZiyFSYgNwIsEPQ4YuzMpIfLTKVnygLBMEzZChOQGwEWCHocMXZm0sNlptIzZYFgGKZshQnIjQALBD2OGDsz6eEyU+mZskAwDFO2wgTkRoAFgh5HjJ2Z9HCZqfRMWSAYhilbYQJyI8ACQY8jxs5MerjMVHqmLBAMw5StMAG5EWCBoMcRY2cmPVxmKj1TFgiGYcpWmIDcCLBA0OOIsTOTHi4zlZ4pCwTDMGUrTEBuBFgg6HHE2JlJD5eZSs+UBYJhmLIVJiA3AiwQ9Dhi7Mykh8tMpWfKAsEwTNkKE5AbARYIehwxqZyZn38ADhy9iAa1yiORuVmMLX799iPSpE4OYyOjKMc9ffEat+89Qf2a5fXYa/1WHRemQcHBCAoKibWBia0tYz0moR8QHh6O0xdvoXLZIgm9q9w/JsAEoiEgiUCgh4mRBoekK/XPX77DysoiVmeoa/2GOi8uzky1ja9ev0fJmt2wedlEVC1fNNrmP37miwoNeqNXh0YYO7QLTIyN1Y5dsWEPlm/Yg4sHlxkKgeR24sLUyXkhNmz9D0aRuCgbGR6OsPBwvLq5AyYmJpK3XU4VSiEQqI7Q0DDQo+Fv89T2GSXaHhYGhAPGxsYwNo4quBXjqTjWCEYwMVG/5+Q05txWJhCZQJwFwpwlW7Bz/yn85zEHlhaJ4kz4zbuPKFWrB1KltMGlg8thairfB7UuzszfPzAKQ/rc5jS39di0/TAuH1oBC3NztWPooWRuboawsHCcu+KFNj0noE61Mlg6e5haJIEFwkLcefAUy2YP13idet15iM79p7BAABBXgXDg6AVMdl2Hr99+iJcHm2SJMW5IZ9SoXErJ/sHjF+joOEnjWNSoXAKTRvZELftB+PbdL9rnSuO6FTGyf4cYnztkp4OjCyJcfMR/ZsucDp1a10WtKqWjOH9q+5R56/Hl63fBwcrSAn26NENH+9pCLKgW951HMH+FJ759/ynEQaqUtnBf6owUtknFYcMmLsKp8zejbV+K5Emxb+NMtd8vXb+L/qNc1f6WNk0KtGxYFa2bVFcTW153H6HH4Bka6y9eODcWTR8ifqvcuC/6dmsO+0Z2Go9dt/UgFq3aofE310n9USBPNtRsOShGziMHtEPjOpVj7POeDdORKoVNnP0EV2AYAnESCBT6Llqts7iBZzv3Q7vmNbVudaOOI/DsxRvcOL5G3LphYWFYuWkv0qZOgYa1KmhdX3w6QVuBEBQUjMzFm2vdhayZ0+HC/qXK8y5cvY3hLouxcNpgdOr7+wH8/ac/fvz0R7rUyZXHmpqayiqioC1TVZgUQdhz6CyKFcytkfHX7z9x7dZ9FghxEAjkUEdMWoJ1HgeRO0cmtGhoJ0Qqcb/h7YNOrepi2pjeIqrgfe8JarQYgFpVSyNZUmu1MSleKDe6tKkv6vrp5y9+u+vzDN53H6Ne9XKwtrYQfytXqiDaNo35uaOwU69GOdgkTQy6z7zuPgYJB3K4M8c7ihcRajs59I2eh4WAaNnIDuZmZth3+Byu3rqPahVLYN2C0aB7hsroqcuwdssBlCicBzWrlsLXrz8wf6UnktsmhefKSciXOyuWbdgNrzuPxPFfvv7A4ZOXUapYPmTNlFb8LVnSxJg0ooda30+dvwH7HuNQtXwx8aIUHBSC2w+ewufxC2RMlwrL54xAsUK5xDmXb9xFw/bDUbFMYaRLk0KtnlzZM6F/9xbib1lKtMC4wZ3RrV0Djdf+/JXbMHnuOjSqXRGJEqlPYzp2aYYsmdIKNopy9pIXfN98QIuGVZXR49ZNaqBC6ULo3G8yLl67gxpVSkaxRX2lPnORB4E4CYRdB06j78i5KJQ/Bx49fQWvE2vFm2zk8v2HH+j/SQWrzo0HBYegbpsheP7yLbxPrYeZqYlQ6MEhIeKiM1UJ89Jb9Jcv38XDInUqW3HjqhaaX6Ybl0TG+w9fxBTF355L1taZ0QPq/ccvav1ymbMWdx88waYlE6K9oih8S28sb99/wr7D59G5dT0htEJCQnDmkpfyPHoz2nvoLBb+equgHyh0Sg8+uRRtmar2iwTC2ctecOjURGN3nz5/jUWrd7BAiINAOH3hJlp2H4v6Ncth4bQhsEgUEe0KCQnFyMlLsH7rfzjgPhvFCuZSCoQzexcjZ9YMsV6Cy9fvxtjpK3DtyEqkT5sq1uMVBygEgqodas+UeevEeO9YMwXlShbE+SveaNp5lIi+LZ4+FJaWERFRmiZxnr0Ky9btFmKiQ8vaIjKSv1J7lCleAO7LnGFuFiEa6NlTtl4vdGtXH6MGdFRr44PHz1G5UV8snTkMFPmIrigEwt4N01GyaD7lYUdOXsagcfNFpOL60TVCZCkEgseKiahcNvrpxz8VCHfPbICtTUT0I6bSZ8RsbN97Er63dkaJqpBAePvhEw5snh1bNfx7PCcQJ4HQfdA0PH/1DtPHOaBeGycc83RDvtxZlF2mkPeISYvF2wQVCwtzDHNsix4dGolksRyl7dXwjBrYAf27t0T+iu1RtFAubFo8Xvz+8fM39Bs5F8fOXBX/traywJTRvdCqcXXl+RkKN8F4p65Ys3k/Hj/3FX936NxEhB9jS+zT1xjFxZkp2jRo7Hy8fP0OW1e4xNrMbXuOo98oVwx2aIVBvVpFmZ7hKYaFOHPxFrq2qa+R5ZPnr7Fq8z4WCHEQCA5OM3H09FV4nVynFAeqsNv3mSgccPsWtf+qQKA2/fQLQP6K7eAyogc62tdB72Gz8d/xi7h5fA2SJLaKco2UrdsTyW2SYv/mWfj0+RsKVumIzq3rYvLInmo5WJQLRMIofdqUkgoEqmzH/lPoPWwW1s4fjdp2ZVggxPpU5APiQkBngeDvH4Dc5duCwk80t1WwSgf06dwUw/q2E+0hcUAPCwotUqiwQc1yWO2+H3v+O4sZ43qjQ8s6Yj6YRMa7D5+xe910kX2fMnkyNYFAiUItu43Fda8Hom6aV5vmtkGo/WWzh4mQGBUSCEbGRujXvQUa1a4Al9lrcAdjhJ0AACAASURBVOzMNSyZ6YQmdSvFhZHO50ohEDr0dYGfXyBmjHWI0g7qb7bM6dUeThTC7Nh3EmaO74OWDe0QGkaxl4iyevM+rNlyACd3LlCriwSUXJKr4sJ0lfs+HD97LcbxTGRujmWz1HM3dL4AZHyirjkI9Kaa0jYpLh9aGWNiH6FRvNkf2eaK7FnSq9EiBxt5vl/KCAIZo5B/oSodMcvZUbxsZC3RQkQdbx5fq/F+oOgCPXeeXd0mopUFK3fA56/fMdDBHj3aNURiK0sk+hUx0TT0cY0gUJ0Uic1VtjXKlMiPXWunKQXC+oVjUKF0YTWzFGVV5HD9aQTh6pGVsE2WRKUeI1hamEdJQo8tgvD63UcRmVEtxkbG4iWRi3wI6CwQFq7yBIW/aVqBEnPaO7rg5Lnr8LngLtTzC993KF27h0hMopAuTRlQ2JvU7+dvP7BlqbP4W037gXj6/A0eXHD/lT4ENYGw9/A5ISKWznJC4zoRjp5Cfs26jhY3yzHPeUqBMLCXPZwc20YcExaGonadxRzo+KFd/sqIxMWZKRpcvoEDHj+NiIhELpQU6n1qHaytfi/Lowe7+86jYi6QwpE3vX2Up9Hca3BIqIjAqJaVriNRpVz04cm/Ai8ao7owpWmX7z8jEt0o0zycUtN/lej+bW5qimYNqsSnrhu0LboIBIXzqlO9LNbMG6Vs79mLt+AX8Dv5Nm2q5GJaUiEQKAkw8iqBTUvGo3Sx/Gp9llIg/PDzR+MOI3D7/hMc3+6GTBnSIGeZVqhaoZhIMtRUZizYCErKvvTfcmTOkAYBAUGo0XIgHj55KRyxtaUFMqRLhaWzhiFX9oxRqpBCIFClFGGl/K+nV7cpBQI9CyKvFBk7uJPI+aDypwKBniWqK9JoXE7vXog0qX7nLVF9sQmEQycvi+RO1UJ5FyQGuciHgM4CgTJaE1tbYNPiiLlxWmNv16w/1s4fg9p2pUWSSuOOI8Tbap6cmaMlEptAGDlpKVa778Pjyx5qF9yoKUvhvuOo+DsViiAsnztcJDBRoQdc6To9UKlMUcyZ2PevjIguzky1oZ++fEPByh2xdaULShTKo9YHSkTsMmAKbp9eH+VGpAPfvv8MOl+R4HXy3A3MXLgJaxeMUWZYKyrMnT0TkiZRTxL7K8D+wKi2TOk66D54Ot69/xyldt837/H2w2eNSYv0Jrl5afR5H3/QVFkfootACAkNRcYiTVG+VEFsX/377bFEja549eaDkgclHy+fM1wpEGheP3KCXcmieUVCoWqJq0Ag5025AvTyQNOWAf6BIHFMz6vg4BCRIJwjawac3btY49gNHOMGWrWgeCmig+il5+HTV7h+6wHIKVJCI0XjFk0bgsaRIpdSCYTMxZojZYpkuHZklVIgjOjfHgXzZldrd96cmZExfWqtBMKSmUOR2Pr39ArlOVQsUyTKNG1sAsHnyUs4D+um1h56MaFcDy7yIaCTQPj4+SuKVe8qsoEjF8pqXTB1MBSJNuf2LYkSPlQ9JzaB0HfEHOw+dBZPr2xVCzlOnbdeJBi9uLFdKRDI+dWoHJE5Sw+4MnV6iotbrgKBcjcmu67F3TMbo4Rbz1y6hY6OLrh9ekOU5aU7D5wSyaP0W7Ik1iLps2ydXihZNI94u/n05Tvclm8V+SCUzCmnoq1AUO0bzQ1TVGXLMmcR5dq8/TDmLvMQy2m5qBPQRSBQDTXtB+Hjp6+4cmiF8pqlt11ypFQqNnREzSolRbKfpuTBmMYhrgKhZ4dGSnFsY5MUZYrnBzlRRSlRs5t4M791fC3MfiUdqranbpuhuP/wOXwuukfZY0Rx3LOXb1Cn9RDkzJYRe9ZPV+uOFALh+au3IjJr37g63CYP4BwEvnH1SkAngTDCZbGYy6awf6ZfCpVaOWuRO85d9sLNE2tFRn3lRo5Yv3Asalb5vfb55u2HCAwKRuliEdm5SoFwfrMytKWapLho9XZMnL1GhKZUFXLPITNw5eY9oaKpUAQhIQmE0NBQNGg/XIgrWq4YuRw9fQXEgMSD6soRys4ubNcJDWqWx4xxfcRpt+48FA+tw1tdxXpm/4BAsaFS2RIFRN1SbnKl16sVQFwEAoWIafpFcc2QQBg+aQnsG1VTazatFS9dXD28re9+xbf6dRUIxJj2BTi1awGyRcoroF0+ybnRm2XXtvUNLhBiWy0xa9EmzFu2DUc8XZEnh3rUk/ZEoNUJtPSQ8pp8337AVNf1GNy7tVgSqVoqNuyDz1++CYGuWuIqECivy3nWSqzYuBf04pUlY1oWCPHtxklg7dFaIAQGBqGwXWeUKpYXGxaOU8NB65SrNeuPicO7oW2zmihZqzto459j292QNnVy0DKyas0HoFn9KsoNPJp1GYVrtx6IC57W/JqZmqrlINCyvzJ1eohpio2Lx4OSyK7evA/7HmPFGlyKViREgTB9wQYRITm0Za7GKRqPXccwasoyPDi/SS26QFM95ev3xv7NM1G0QC7QUtJKDfuIdeb/bZmjFAOXrt1Fo47DcfXwSjFvKpeiq0Cg+eKStegNMRBn9i5C+jQpRQSBls3RsjXV0rxB1SjhWrnwkaqdugoEejEgEUAvASRIc2RNj/Bw4NWb96japJ8IVdO9TlMKigjCgc2zoogJeg5EzpWJLoLg8/iliJLlz51VY/f/NFJBO5aWq+8gIqNHPechBwkcIyORRF2lcV9xL1FUgBKlKcGxQKX2KFEkjxAMtPcBRUkop4GWedauWka8QP2JQHjp+x5fvn1XXnOK6CtNcRUrlFtEQymyMc1tI7buPqY2haNY5rhq3kiUL1VIzR4tE1cs9aYchKG9W6ODfR21Y2jKhXIFFPsgXDiwFDZqSYoQyZeRN6yLbYqBBJSHhpVXNJWpaRt4qa5brkdaAloLhCfPfMVNtG7BGLHBSeRSvfkAJE5shV1rp4rEpGLVuuDnT38RsqN5PrrYb51cpwz10bpoWp9OF+qI/h3Qp0vTKMscFTcM1UHze3QD082wZdlEZbZxQoog0FryVj3HiQ1laPmVptKqxzh8+f4D/7nPUXdu3Ubj+i0f+FzYLJKW1nocxPgZK3DrxDqY0vpprwegTU5oKRpFcyiBdIJTV2mvKj3WpqtAaN1zvIikOPVtB5fZq3HQfbYQmjzFoHmwdBUIVNuLV29RoUEfhIaFiv1KKCmU7n1KLt6/aSaKF47Ip1E4brqvI0exKAKm2AVQ0cLoBELVJn2FU9u5dmqcBAKd/OiZL6o17SeSeWnDINpXJTCI2h6KzUsmwK5icaWNy9fvonm3MUIY0POLhFBAYCAypU+DQx5zojja6CIIPQZPEyzO/9rsTPm8o31daIvncIDyO8gOrbaYPbGvco8YhUAgBx551Ue5kgXEM5IKCQSKLkZerUQrvNwmD1QKBLGfQ6Rt8+lZT5ET1RKbQPjvxCWN0zS0zXu61OobOunxccFVx5GA1gKB1DTN5RbJn1O5kYhqG0jNUzYzqWwqdPytO49EyI3C5XlyZlHbwIhuvEdPffHC9y1o5y/KDqYHt7W1pdr84LOXb4U6py1NKaRXKG92tflzStrLmzOL2NJVUa57+Yg358hLqOLI7I9P18WZ7Tp4Gg5Os9CjfUOMHdJZRFSo0AObtkOlm5wSQPcfPo9z+5cIXopC6/jL1esFepugZE166NBGVPRgTpLYUux4SfXQXhVlSxQUHCfMXCXe6BQ7u/1x5/7Sgbow7TV0BnYdPIOlM53Eh6qWb9yNKa7rxVp3Wgtft1pZJE+eVGxhTc6MGCdNYgWnPhErYv7FEheBQLxoIyFaxnzD+6HYsKtwgZwoWiCn2i56xJ62CtZUUtgmi7IS4M27TyIZmnZZVJ1Wo91cO7SojSF92misS2GHImp/ssyO9jggx0vtDwkNQ65sGcV0HEVBI5eXvu/Ejoy3bj9E0qSJxXORpvE02aGpPRLl9JxTbMVM9dF20rT5myIiSzt63n3wVM0UveWnSWUbZTUB7Yzqfe+xxn7T27oiqnLp2h3xnZHIhZaVU74E7YpI+Q2aSr5cWaLsfkgb41F0l7hELvcfPQd9T0dTIXGo2FTqX7yv5NZnrQWC3Dr4N9urizObvdhdiKAxgzpFUeC0fTI9IGlJE03TKPaAUPSRbvK5S7bAeXg3ETaksCRtrELbVtPDjfZAp41eVMOFNMUzckAHlFLZse1vMovNti5MV27cA2trK7GtrqLQ0jTaApc2+qLwbkBgEAIDg0WGO72p0f4StOHUv1riKhAMxY3aSasPKPE0cojdUG2Iq53spewxZVRPtG5aI65V8flMQFICLBAkxalemS7OTI/NSRBVM1PDDKNcBMLTF29Ewu39c5v++tbquowMRUWK1+gqdp5UjSroUhefwwSkJsACQWqiKvWxM5MeLjOVnqmmGuUiEKjtFPWJ/Glzw1CSxorc2y8NBa4lPhJggaDHUWFnJj1cZio9U7kLBMMQYStM4N8jwAJBj2POzkx6uMxUeqYsEAzDlK0wAbkRYIGgxxFjZyY9XGYqPVMWCIZhylaYgNwIsEDQ44ixM5MeLjOVnikLBMMwZStMQG4EWCDoccTYmUkPl5lKz5QFgmGYshUmIDcCLBD0OGLszKSHy0ylZ8oCwTBM2QoTkBsBFgh6HDF2ZtLDZabSM2WBYBimbIUJyI0ACwQ9jhg7M+nhMlPpmbJAMAxTtsIE5EaABYIeR4ydmfRwman0TFkgGIYpW2ECciMgBAJ9+IiL9AS87j0WH5XiIh0BZiody5hqoo9W0ce++Po1DG+2wgTiIwEhEOhzq1ykJ0CfuGW20nJlptLyjKk2Zm041myJCcRHAjzFoMdR4XC49HCZqfRMeYrBMEzZChOQGwEWCHocMXZm0sNlptIzZYFgGKZshQnIjQALBD2OGDsz6eEyU+mZskAwDFO2wgTkRoAFgh5HjJ2Z9HCZqfRMWSAYhilbYQJyI8ACQY8jxs5MerjMVHqmLBAMw5StMAG5EWCBoMcRY2cmPVxmKj1TFgiGYcpWmIDcCLBA0OOIsTOTHi4zlZ4pCwTDMGUrTEBuBFgg6HHE2JlJD5eZSs+UBYJhmLIVJiA3AiwQ9Dhi7Mykh8tMpWfKAsEwTNkKE5AbARYIehwxdmbSw2Wm0jNlgWAYpmyFCciNAAsEPY4YOzPp4TJT6ZmyQDAMU7bCBORGgAWCHkeMnZn0cOPC9MOnL3j/8WusjcqbMwuMjGI9LEEfEB4ejtMXb6Fy2SIJup/cOSbABKInoJNACAkJBT1ANH2IKCwsHCGhITA3M4uR+zqPAzA2Nkb7FrUT7Pjo4sxCw8IQGhqqkR8xDw4JgZmpKYx+ebCg4GA1fpq4azpPrtB1Yaroq5PzQnjsPo7UKW01dj8wMAjvPnzGq5s7YGJiIldEkrSbBYIkGLkSJiBrAjoJhMqNHPHthx9uHFsdpfPuO45g4Fg3PLq0BdZWltHCadl9LMxMTbBpyQRZA4yp8bo4szlLtmDGgo24d3YTbJIlVqv+4eOXqNioDzYsHIsaVUrhrs9T2DXtr3ZMqhQ2KFeyIMYM7oTMGdKI3y5cvY0mnUbi7N7FyJE1g6x568JUVSDcf/gc6xaM0cjghvdDtO41ngUCIF4AOIIg61uFG88E4kxAJ4FQrr4D/P0DNQqEzdsPY9C4+Xh4aQsSs0DQOkT7JwJh/cKxqFmlFO48eIpqzfpjzKBOyJY5PUJCQ3H73mOs3LQXFokS4czeRbBNlgTnr3ijaedRLBCcF2LT9sOwtEik8cYJDQ2Df0AgCwQWCHF+sHIFTCAhENC7QPDzD4CffyCS2yTBx8/fcNPbB3YVi6N1rwkcQdBwBekiEA55zEXh/DmUtV33foC6rYdizfzRqGNXhgXCLzI0xfDo6StsWzlZ47179dY9NGw/nAUCC4SE8GznPjCBOBPQu0CYOm895i3figa1KmDvobMwMTEW4fOuA6eyQNCTQKDwcLpCjTF+aBf07tyUBYKKQPDYdQypYshBeP/xCwsEFghxfrByBUwgIRDQu0CYMm893JZvRfVKJTB2cGcxr54mVXLY9xjHAkEPAiE8HJi7bAtmzN+IjYvHC+48xRAB2ufJS7x++zHG+5YEbPlShfCPL2LgHISE8HTnPjCBOBIwmEC4eHAZsmRMq2wuJylqHjldphhqVS2NFLZJERYejle+73H2sheqVSqBtW6jYWpq8k8LBIqmDJ+4GO8+ftHqVrGyTIRF04dodU5COpiTFBPSaHJfmIBuBHQXCH6BuHE86iqGyEmKigjCa69dyqV51FQWCLEJhI2wSZZE7SCfxy9QqZEjIicp5s+dFVZWFggICIT3vSdo1qAK5rkMUC5D/ZcjCBRRWblpD75++wlKQnzh+w6ZM6QWS2yv3rqPS9fuiGmYyMXCwhyOXZrpdlclgLNYICSAQeQuMIE4EtBJINRpPQQ3vH3w7KonEiVS3+9gxoJNmLvUHc+vecLMzAwsELTbaGbR6u2YOHsNrh1ZhfRpU6oN74GjF9BlwBRsWT4RVcoVVa5iUCQpBgQGIW/5tqD/9rngjiSJrcT5/7JAUAV47rIXWnQbg6dXtsHc3AwkZilic3rPIjXOtM8ETTX8y4UFwr88+tx3JhBBQCeBMHPRZsxetBmbl0wQKxJUS7Muo/HkmS+u/9ojgQWCdgLh3CUvNOs6GqvnjULd6mXV2JJzO3PxFq4cXoGM6VJHEQh08HUvH9RrOxQTh3dDj/aNWCCoEOw/2hVXb94Xyz2pkEAYPH4BkiaJEFKKMnlkL7RoWPWffkawQPinh587zwR0Fwi0dLFM3Z4IDgpBn67NRCLcS993WL5hj3Bg/bo1x+hBnYQBFgjaCYSffv4oYtdZrMd36NgE9WuVx/cfftjkeRh7Dp2BfaNqcJ00QLBV7IOgusyR9kKo2KA33n74jNO7FiJj+tTKCMK4oV2QNlVytUu/XKmCSJc6hWxuB103SqKpl/pthyIkNAwuw7uja9v6QiBMX7ARGxaNU+t/pvSpkSyp+iZVsgEkUUNZIEgEkqthAjImoFMEgfp75cY9jJ2+Ate9Hii7n9jaUjx4nRzbiu2AqUxz2wDXZR6InINg32MsTE1NsWnxeBnji7npujqzV2/eY+AYN5y+cFNpgLZWbt2kOiYM64ZkSazF3+/5PEPVpv1weOtcFMr3ex+Euz7PUMt+EDq0qI0po3spd1LU1NrVbqNQt5p6pCI+D4guTN++/4T67YYJcTTeqQsadxyJLq3rwdIyEXb/dwaXDi6Pz13+K21jgfBXsLNRJhCvCOgsEBS9ePbyDV68egdrKwvky50VFonM41UH/2ZjdHFmqu2lJXlPX7yBqakxKBExpq2r/2Y/DWlbW6aUpFin9WDxjQX3pc7IkzMzvO89xjDnRXj49BW+ff+JVClsYWuTBInMTREOgL41QlEESgb9VwsLhH915LnfTOA3gTgLBIYZPQFtnRmzjJ2ALkyfPPeFkZExsmb6vcxWYenL1x94/e4DfvzwB02dBYeEitUOJBhKF8sXe4MS6BEsEBLowHK3mIAWBFggaAFL20N1cWba2vjXjmemhhlxFgiG4cxWmEB8JsACQY+jw85MerjMVHqmmmpkgWAYzmyFCcRnAiwQ9Dg67Mykh8tMpWfKAsEwTNkKE5AbARYIehwxdmbSw2Wm0jNlgWAYpmyFCciNAAsEPY4YOzPp4TJT6ZmyQDAMU7bCBORGgAWCHkeMnZn0cJmp9ExZIBiGKVthAnIjwAJBjyPGzkx6uMxUeqYsEAzDlK0wAbkRYIGgxxFjZyY9XGYqPVMWCIZhylaYgNwIsEDQ44ixM5MeLjOVnikLBMMwZStMQG4EWCDoccTYmUkPl5lKz5QFgmGYshUmIDcCLBD0OGLszKSHy0ylZ8oCwTBM2QoTkBsBIRCsLC3k1m5ZtJf29me20g4VM5WWZ/S1hcPPP5CvX0PhZjtMIB4SEAIhb64smptGn8JTFCOjqMfE9XeqUVGHpvoVv0f3WzwEqtok+hxztGzjY9tpLFRZS/1vza+qWtmUHVN9jLO246JDG2ir5fsPn0d//f7JfUt2Y7qvdX22qD53dOgbn8IEmMCfEeAphj/jpNNRHA7XCVuMJzFT6Zlq1m3hOH3xFiqXLWIYg2yFCTCBeEeABYIeh4SdmfRwman0TFkgGIYpW2ECciPAAkGPI8bOTHq4zFR6piwQDMOUrTABuRFggaDHEWNnJj1cZio9UxYIhmHKVpiA3AiwQNDjiLEzkx4uM5WeKQsEwzBlK0xAbgRYIOhxxNiZSQ+XmUrPlAWCYZiyFSYgNwIsEPQ4YuzMpIfLTKVnygLBMEzZChOQGwEWCHocMXZm0sNlptIzZYFgGKZshQnIjQALBD2OGDsz6eEyU+mZskAwDFO2wgTkRoAFgh5HjJ2Z9HCZqfRMWSAYhilbYQJyI8ACQY8jpg9n5vP4JbJnSQ8TE+MYW/7x81eksE0mSe8+fPoKc3MzJE1sJUl9calEH0zj0p6Eei5ttcw7KSbU0eV+MYE/I8AC4c846XSULs7s2/efaOvgDJcR3VGsUG41u+SoS9fugRnj+qBFw6rRtmn01OXYdfA0jm93Q6oUNnj7/hPeffis8XiLRImQK3tG5W/kGIZNXIzK5YqgYa0K4u85StvDsWtzDHZoJf49aspSZMuUHj06NFSeFxQUjP1HL0TbplLF8sEmaWIEBQfDNlkSdHB0QflShdC7cxOt2OrCVGHg6OmruOZ1P1Z7QxzawNhYw7dHYj0z4RzAAiHhjCX3hAnoSkBrgRAQ8D97VwEV1RZFtwJid3d3dyt2N7aCIjYqBmJgd4ASKmKAIHY3GCh2i6LYHd9uJf3rHJxxBoaY4c3I4D1ruf5n3ns39r3vnn1P3BeMoHtPYq2veJF84itwADRRZsHBIehqOQUXrtyCh/NkNG1QTQnr4RMccPfBUxzcuBjJYvgQDi3uVZsNQI3KpeEybzSWu++Eg+umaGP2MzgExYvkx5GtS5SurfDYCefV23D+kBuPoyJBuHgtCF0HTMGN4+uQOvWfr4B++PQFrXuOw6fPX/Hpyzfkz5MDX7/9wPuPn5EvTw7MtrXE+Su3cCngNrasmonm3Uejcd2qsBneU625qwmmsgrGTXfBgSNnUbdmeZV1vn33GSfPXcPzaztgYGCgVruS2s0JJQg0Dy5du41rN+8hLCwcZUoUQo0qZZAlU3olMnot8B5Cw8JgZGjIvxsZGTKpzZo5A5Inj7SS/fwZgqB7j1VCbGRkhDIlCuLHz2D+uFSO7JmRK3sWpXvp204BN+8hfbo0KJQ/V7Ry7jx4iuDgUJQrVTjatecv3+DJ8/+QKqUxX6M2ZcmcgfuR0jiF/P7rtx4gbZpUKstXd25QW3Nky8z/ZELjQVhlzpge+fPmUP6d+pY2DVsW7z58hm/ffqiskq4TBm/efQRZIlOlTMFrCP3LkC4NMmVMhwzp06rbXJX3P3j8ArTZiUlonGlO0Lrx5Nl/qFCmaLRbI379QmDQA+TKkZXnA82TwKCHyJsnO7JmyoDwiAhcv3lf6Tkak8yZ0iNr5oxykh8eHoHrt5Tvo3Utffo0yJ6F7ovdGisJIHpaiNoEgYBuamoda3f3ey9C5fLKu189xSdBzU6IMhszzRne23wxblhPbNhxWN6ODx8/s+LNlSMLDH8vqnRx88rpyJ0zKxxXb0P/Hq1w684TdLGYBLfF49GmWW1ERCh8mfN3abMcPJjERCUIdHn0VGdY9GyFMiUKKxGEbfuO4/a9x5g4sm80bGgR895+GK7rduL4TmfsPOAPquPCITd+Cec5ev11gkALuePsUSrH9cbthxhqs0gQBP7IquYuhvuPnsOk0wiQVUlRaA5sWzMLtaqW5Z/pev7KnaONBd3XrnldLF8whpXXrbuPYNJxhMoxI0Ud6O/FBKBZ19HIkzMbLviuQnIF8hweHo48FTqiaf2q8Fw2JVo5ZRv0xbt3H3H9hCcrIkWZPNcNq9bvUe5HsmTInSsbzh+keR1paSpRuyeqVyoFTxe7BK0Z9HClxv1hUrcS7KdbycsictC822jUq1mBCbZMHj19hZotB2Ls0B78r03v8bh49ZbKNngtm4Im9avCdd0uTF2wWukewpn64rfDWcmiqGlnug+cCr/TV2J8PGf2LLh6dC227fXDKDtHPL2yPdq9tIEp38CMNxEDerfFq9fvULFRP8ydPAj9urfGx89fUbJ29A0GzZ+2zevAdeE4LpM2KaXr9lYxz5KhSMG8OLHLOcbNlqb9TyrPqU0QwsLD8f7DZ3n/O5hPBO16D2xYJP+NmKhsR5BUgNKkHwkhCBERETh7KZAXvF2H/Ln6C1eD4Ot3ARNH9YnWnN6dmyNZ8mQoVacXTuxyAVlxnr14zew7pniFGYvdcfzMVTlBMLOaxbu+qEKujdSpjFVahYgo9OzcVP4IkZoV63ZyG3bsP8EE4aLPKn4BEwNBIIJTMF9OlcP57ftPPH76ShCEBBAE2g3Wbz8MtLjTmlCiSH6el4+fvUKbXja806ffy5cuKicIZNFZMX8siMLSc3t8TmHGorWYNKovrAZ0kRME7+VTUTbKLp8sPUQSZASBBrZLOxM4zbGGzEkUG0EgEjt43EKeD4P6tsd0GwuluUEEgZTY0e1LeU0LDQtnkjvAeh5bxs7sWwFDQwNJCQLhRLv8cwdXyttiM30Z1m05iDSpU+HeuY1yhea+6QBsZy7H2QOuKJgvFxMEsqSc2rss2hwnFx/FEskIArsgs2YCrTVPX7xG297jkS1LBlw96p5ghUnKW0YQb99/AlMLOybmDetU4nbRmkQxUlIQBItebWE90JTLpflDmLis2Q43+/Fo07S2nCDQXLLs3RZkUfr+4yf2+pzC7CXreGPlv3sZ0ihYRDVZ75PiM2oThKggNOgwnF96YtMyWe6+gye43Whz+UQjMyOZhhQS+QAAIABJREFUeMk8Zj2oG5a4bkamTOl4oVjltYd3xWVKFsIQsw5IpxAMRyYoKu/OvacwNjZCy8Y10b5FvQRPYF0MproE4dOXrzh17rq8aXWql1My+ZElgRbOW6fWq2w+YaVIEGgn9+jJq2j31qhSms2hUQnCnftP8e37H/Ok+8YDTCDIakHSrX1jtG5aG+nT/QlWzJMrG7JnzYTdh05i2Hh7NgOS0GIa8SsCZN6j/y9VsiAa1a781y0IN28/wvKFY1Xid/X6XQwcu0AQhAQQhLlLPbHcYyfHvxQpmEcJZ5qfFEPTolENVuAyC0KbZnWwyn68/F4yHVdtOoBN4Kf3rZATBHKrVSxbTOXYyQhC9Uqlcf7KTWxbOxt1qpXje2MiCGRVa9hhOBOMAvly4vL1O0xsFYUIws4DJ3Dl6FqlTQ8RX3LDXTmylq15UloQVnruxpT5q9jFR646knpth8IohRFu3n6ITW4z0KBWRf7dYtRcBN5+xASBhAjC/YfPYlwj6B4ZQbh+fB27c2QybvoyeG45iMATnuxGkUpu3nmIRp1GYp3TZDQzqa5UrBQEYeRAU0wY8WfTRPqoUFVTdhn5blkiJwgTR/XFiAFdlOqnTcwQm0WYN3kwzLu3kqrLSaYcrRAEmoDznbwQdMqbGSvJ1Rt30aL7GHi6TEHTBlXRquc4fPj4BS/+e8umudDQMH5ByQxIzI/MRKRsiNU+evKSXRbvP35hPxwxUdN2Jol+ENQlCOS+GTQ2cjfz8MlL+Gy2R7lSReT9XLluN1Z67capvcuV+m78G+OoBIEXa/cdyK7gyySrwh6v+ahWsVQ0giAr9HLAbTiv3o7A2w/gvWIamnW1RsUyxZAuXWq2YpjUroRuHRtzkKHBb//d9x/BeP/xE+8USpcohBk2Fjjkdx6Obluw12sBUhgZYs2G/X+VIMxYvBZb9/rFOm+oPxd9VseZJZLoJ18CG6ipi6Fyk/5MCi8fJgyjx3GQ6+HJs1e4e3YjxyaQiyEqQaCm12hhiY+fv+H2aW+1CMKaJRNgN38Vfvz4iWM7nNiPHxNB+PL1O8o17ItFU4cz6TUfMQdn969A/rx/LEwxEYTNu45ixKQlciUuJUGgoGJyM5DS6tu1Be94i9XshjkTB2HRsg2oULYouw5JiODQ+7Zs/pgEEQSynjXrNpqtLv67XSTdgOmaIISEhiF/pU5M3IjAyVwMqggCWRzITUGb0gA/D0n7ncBXMFE8rhWCQDvXOm2GYMmsEejeoQl31MF1M9w8d+PmSS/+mwhCQOA9vqdL20hlT/cQsXCeO5qj9EdOWoLt+05g65pZHHBHprBuA6fC/+w1XDvmrhTEkyjQjNIIdQmC4uPFanbH9rWzlQiC7ewVcN+wP1pXL/isQr7c2TngR9GCQATh5PkA7FsfSTpIcpZtFyNBOH3hOibPW4WHT16gdZNaWDBlGLsWqjUfgP49WmOIeUeuY6a9O/YcOsXZCLs954H8iSR0rVKjfkzwKLgyqouByqdsig4t66NR55FoYVJDJ0GK5BKjXak6Qi6RqP5odZ7X93s1IQgyi0DJYgXgt8NJJQRDbRZj+/7juHHCk9NmVRGEl/+9YzdFraplsM7ZTk4QyHpI1ipF6dymIW8wZBaETSuns8IkS0WrJrXgNGcUx1OoikFY5bWb5/tF39VsRShTrw8a1q6INUsnyqtQRRDI2tm+ry0Cbz9kAkOBfVISBKrcpKMVihTKy5aVsxcD0cF8As7ud8Xajftx6Nh5thh8/xmMYjW6Y/6UIejduZmcIFAMglm3ltHwJ/cJBfHJLAj0jlIw38fPX3Ds5GW2Kh7cZI+8ubJJOn3jIgjDbO3R17RFtDrJnb1l9zFMHdsv1hiEQWbtMWZwd34+OCSULT5281Zhvt0QxiE2gkDPUEaV7/ELeHBhswiujzIKWiEIVEezbta4//AF7p7dwNaA+u2Hs49HFqtABIEUPpkNFYUUHPmpyEpQ3sQMZUsUwvoV0+S3kLm7gok5tq6ehbo1VEejSzq7E1CY1AShg9kEjtCdMX4At4qilU06WeH8wVXImztbggkC5b2v3+YDhxlW8qhtqqfv8Jlo2qAG+phGLkIkZPGZ5+SFydZmzLpp19iixxg2gdLiT+QhKkGgqGYyyxobp8BCF28snDoUfVQsDLFBri6mpBxqthqEp89fRyuWrtE/VVHMFNUdkysnAVNCbx7VhCDQjpyIbfNGNeDhOEllX2c5uLN1ipQyRZDLghRHWJryWATdeQzfExfYMuW30wnFCueTEwSKfI+aubNo6lB0bd9YiSA0qF2Jd9r0b/G04ejesXE0giDbZVavXAq7183ntpLLjUzs1455MDEmIYKwxnsvBpq1RwojIw6U23/4DGjH7bXMDo3rVeX7pCYIo6c4sdX16HZHdB1ohwePXuGijxuO+F9E/5Hz8OjSFuw6eJLjJwhLmVKXBSnKLLeKg3DT34tJgIwgELEn6+PXb9/x+et3fqe7tmuEpbNHSrqTjg9BUNVeajuRzlm2lmoFKdIcIffCoU323I+4CILVRAcmIrfPbOBsDiF/ENAaQSDfdTfLKTx5P376giZdRmHXurmoUbkM104EgUxAqx1slcajTW8bXhw2rpzORICUStQgO1JGMnaYmAdTXWWm2JeoFgRaPGlXRP623l2a8630Ypeo1ZOjtnPnyJpggkDjFDXXgdLVarYcBNdFNnw2QlShBYZShojs7fM9gyoVSnDQDwmlUh04epZf8qHmHZEyZQoMn7gEYaFhPPaUoUELljqiCab/vfnAZmYKTNq48yh6dW7KCyMRmNXee9kFElUooltmGVGnfUnlXk0IAj1TsEoXZM2SERcOrVJ5lkSrHmPZlfj40lZevKNmMdACXataWcy0tWSrGIksiyE+MQhkQSCCQPPRdIAdKGvl9L7lKFu/r1IWA+3+G3ceyYSbUgdl7xPNFZoPNI9lBEExi4FcZZSSZ2PVC/Vq/HkfpCYIFDw5zHYxZ2iQZWPqGHMM7NsedAAa/b3KYQLWbtiLj5++4si2pfJpp2kMAu28T50LQM8h07F8wVh0bFVfsqkcF0GgLIYnKrIYgn+GoHzDvrAZ3itWgtCqcU107dCY22s3z42tJJSNIdMbsREEWu+qNOmPF6/e4vm1nf+8azHqoGuNIJC5uWy9PlgyewQCgx7Bx+88Tu1dAVn2EREEWoSjLs7lG5rJ8/eJIFA0/srFNkrtpoWIzHqy3GTJZrLEBWmizGRNkBEESjMknOgFJl8ZxQ+ULRmZr007tuK1uiPALzLYSJWLwXu7r9JZCvR3TDEIhaqZ4sePYLVQsOjZBrMnDuRnyLpDAUKK8vTFG5DlY7/3QuTIpmwezpwpg1IueXwqTgimtEuYNNeVY2PIarBhuy/vGqPOLzo46l8mBzQOmhAEeo6i+0+cuYqA4+tUji3FKFBmDs3BmIIUo84DTQgClUEZFU1NR6FwwTy48ju+SZbmOH3RGlBMT+8uzTj4mYSCFlet38sEQHbOSEwxCFHbKDVBePfhM8rU682B3hQQeWyHI0oWLcDVdraYjLfvPnJgd9f2jTB+eK8EEwRZAWTB7WPaHOSvl0riQxASkuaoGKRILpgJs1Zgvt1gmHWLDDqMjSBQrFetVoPQvUNjLJk1UqouJ5lytEYQeCL3n8SBiLRTIH/irAmRioSECAKx+I0rpvGOgYQiWskfJTM9d+o3ic1sBzcu4gN9SOhQk217/Di1roBCMFFiHJGEKDMiCORm8drqw6ZMOpeAdhU3/T3lxIh2DyXr9JT7QaMSBLqfsguiysSRfVC0UN5oQYq0w6aAKJlQQCOlXNFu6uzlQHRq3YCjhcliIJMUKQzl0d0jJy3Fpl1H4j0UsrzseD+g4eFTsvLb9bXF0+f/gWI2DA0MmCCMm7EsWrQ99ZEi7f9l0ZQgHD15iU8C7dymARZPt5KTBAo4nrZgDVtsls4aiW4dGmudIND4bd3jh+ET7HkoZecgcHBig74oXaIgx+coui0WuKyH/fJNPEfIgqEpQaD3iIKOs2ZOj9w5NfPpt+s7HtdvPmDSfe/cJrm1jU5JpWBm2jhsdJ2O+r8zGqiPmloQaLyPnbrC7kT7GVbsaiCheBA+f6BsMY3dDrokCOQmadrVmgkUuYrIihATQbhz/wlozSIr04ndy1C4QPRDtP7lNYD6rlWCQLnPtVoNZnMfmcHo5CxFgkDBjGFhYejesQmbfykgsWzJQtjtOZ/dDLSbrdduKH6GhMK0bUPe9a3w2IV8ebJz7j7lBCdmSQhBKFqjG+8QqlYsyX5USid1mjsKpm0jX1wSOq2sduvBeHJ5G2eLRCUIcWEzfdFalQcl0WJx8lwA6LAmUqSUNUEZCVYTHNgn7DzXGoUK5JbnmcdWDx3kQgydoolzZv9zMlxcbYvpuqaYEtGinUWhArn4xDmXeWOw+6A/HFZuVkrR1bRdSe05TQkCPWc1cQmTfVpwe3Vuxu/t1j3HcCPoIZrUrwZ3p4k8r9S1IDSqWzla+l3GdGkxc4JltBgE2XhQeyh1lYJqZQSBzlkYOGYBWwminuD3+t0HVG7UHwumDkXPTk01JgiyrK3YAjbjmjMua7Zhpr0Hu0zIdSITOtmR3I0kUVMVZTEIqrK8BvftwKnkshiElo1rIUumdJxNcu/hM1y8dps3DhTfRe8qKdt8lTpxPeTPV3XaYVx9oOu6JAhUH1mr+w6fBetBXWFj1Zstm3RQEo0FxSZEhP/CvUfPOCOOYk2mjbPgbBEh0RFIMEGg6FoK2PHd7KAS3ypNLTjbgEzMikIWhHy5s/FOYuh4eyYRlMpI/i8KcJMJRb1bjp6PoLuPQf4JOhVwtu1A9mcndtFUmVEUMr3oxOIp1qJ2myH48vUbH29MpyeSuwH4hbHTluH0hQBmyiTxIQi0YFJqDwkdjWycMgUOeC9ikzIRkhNnr2LmYnc8ef4aFUoXwQ6PufJdIGcgmE3gFMzcObNwLnvlciV4LL5+/4H37/8coCUbm2cv37Alaa/XfGTLouxioHuyZ8uklptBE0zPXQpEe7MJbHWyszZHteaWiIgIR92aFTio8shWR96NyXaSkYGLyRI9AdXm/NeUIMjaRLEnk2avxOev39gqlSqVMWPftb2JHGdSQBSI3LJRTd61xiQUy0K7aVWSPWtmHN/phJt3HvE8W7t0AmpWibRIyoRia2q1HgyTupWxbN4Y/pbI6Qs3VGZakKWjQfvhfF4L7c7nOnphn+8p9mnTgUgxSY0WA0EBj/ROkNB5IhR39eXbD35vNRE61pwi7OmAKMXvslCAZQUTM5QqXhDb18xWKpqsN1du3FFZneuicahfsyLWbTmEuUuV21S+dBG0blKbAzopGFMmoyY7YvPuo5xG2aFlPU26wcc/t+szHisWjkWDWpEHJcmEyBpZaSgrLarQOkcbxBEDKO6qGV6//YgGHYZxVgNlx5ElqHoLS86uUjzfgOZuE1NrvHj1Bif3LIehQXIOVFYUsg41a1gdVgM6wzhF4tclGgEvwUMJJgixtYECfio36cemRvLxKIqMIFDwGw0osVhDilKOoUC6Tgt4XF8xlAATyYrQRJlR5dRXWmBbNa7Fx7wuXr6Rg74ypE+DC1dvoZvlVCYIpOgPbrQHvdwk8SEIdK495X6T0AvmMNMKPTo25d1c8Vo9uMw2Tetg9JBuKF44X7RFkRZ1Mp2OmeqMW3cfs9uBFg/6fsO0hWvUxm6H+xz50bvxeVgTTMlNkjFjOg6IpeBE6qPn5oPsvqFT3mg3S/NKkSDQAV7kJ/9XJaEEgXCjYGL6OBcJZSAQzv+SUMwLvReKQYT61n9aiygujI53JuuDkH8LAa0QBFI85iNmM6unAyjoVLWo7gBFgpBUIddEmUXFghQ3MXCZe4by+Z89fw3KEaZoccW0HHqZ6YNI5C+UpWmpwpbiOOheOlZVcVd//9EL9pnG54MtpEDoQzb0wSaKAqd2hYeFqz2URAoVz82PqwBNMCXLCAXHqnJJ0W6MfLyEB7WfTn+kHS/FVkj1uey4+pQYr0tBEBJjv3TVJvoOge3MFexOkQUX6qpuqeohKwhZRoYP6IJBfdppHIMgVXtEObpHQCsEgeIJFjh78+EjFBGbUcFlIOvi9n3HmTxE/Vqh7iHQXo2aKDPttSZplCww1c04CoKQMJw/ff7GJDOxZ1rF1ksi/RSkKPXBSQlDVjytSwS0QhB02YHEXJdQZtKPjsBUekxVlSgIgm5wFrUIBBIzAoIgaHF0hDKTHlyBqfSYCoKgG0xFLQIBfUNAEAQtjphQZtKDKzCVHlNBEHSDqahFIKBvCAiCoMURE8pMenAFptJjKgiCbjAVtQgE9A0BQRC0OGJCmUkPrsBUekwFQdANpqIWgYC+ISAIghZHTCgz6cEVmEqPqSAIusFU1CIQ0DcEBEHQ4ogJZSY9uAJT6TEVBEE3mIpaBAL6hoAgCFocMaHMpAdXYCo9poIg6AZTUYtAQN8QEARBiyMmlJn04ApMpcdUEATdYCpqEQjoGwKCIGhxxIQykx5cgan0mAqCoBtMRS0CAX1DgAmCvjVatFcgIBAQCAgEBAICAe0iICwIWsRX7HalB1dgKj2mwoKgG0xFLQIBfUNAEAQtjphQZtKDKzCVHlNBEHSDqahFIKBvCAiCoMURE8pMenAFptJjKgiCbjAVtQgE9A0BQRC0OGJCmUkPrsBUekwFQdANpqIWgYC+ISAIghZHTCgz6cEVmEqPqSAIusFU1CIQ0DcEBEHQ4ogJZSY9uAJT6TEVBEE3mIpaBAL6hoAgCFocMaHMpAdXYCo9poIg6AZTUYtAQN8QEARBiyMmlJn04ApMpcdUEATdYCpqEQjoGwKCIGhxxIQykx5cgan0mAqCoBtMRS0CAX1DQBAELY6YUGbSgyswlR5TQRB0g6moRSCgbwgIgqDFERPKTHpwBabSYyoIgm4wFbUIBPQNAUEQtDhiCVFmQXcfI2eOLMiYPq1SC/3PXYOhgSFqVS2jsuXhERH48eMn0qZJrfJ64O2HoHvKlyoSr56Hh0fgsP9F1K1eDmlSp4rxmV+/fuH7j59InSoV3n/8jBev3qBcqSL49v0nUqU0RvLkyXAt8B4K5s+FDOnSxKtuVTclBFPqS3hEeJx1pzAyivOepH4Djaf/uQDUr1khqXdV9E8gIBCIAQFBELQ4NRKizGq3HozmJtUxdWx/pRaOmLQEDx6/wF6vBSpbPnaaM7btO87Xy5QoFO0eC+u5MDAwwMpFNkrXQkLDMG3hatha9UZ6BQX+4tVbVG7SH4e3LEHZUoVjROvt+0+o2XIg/He74PCJS9iy+yg2rpyOsg36YrPbDFStUBJ12w6FZZ+2MOvaUmPUE4LplPlu2LDjSJx1B51azxj9yyIIwr88+qLvAoFIBBJEELbt9cNq7734/OU7DAySI3+eHJg7aTDy5s4m8AWgqTJ79fo9qjS1wMGNi5AhfVoMGvuHDLx7/xnPXr5BhdJFgGSRMHdr3xjm3Vvx/9Mu3trOCb4nLsB14Tg0bVBNaSxiIgjBIaEYPcUJR/wv4ug2R+TOmZWfO3MxEKYDJuPy4TXInjVTrOPq6LYFW/f6waJnG9DcIILjsfkgzh1YiWTJkqFQNVNsXDEdNaqU1nh+aIopVThuugtbMeZPGaqy/lt3HjEGz6/tEARBWBA0nqPiQYFAUkFAY4IwfuZyeGw6gJLFCqBh7YqgHeTBo+eQLm1qOMwcgYa1K+kcI7v5q3D89BWc2OWi87pVVaiJMouI+IX2fW1hYJgc29fMwZXrt3H64g0ufoX7LuTIlgkdW9fH23efkCF9GhgZGaJy+RKoU62cUhPGTV+GiIgILJ4+PF4EQUYu+gydyQSELBDZsmbEfOf1cFixCUaGhnJColjgdBsL9O/RGg+fvMCeQ6dx+/4T/PgRjCvX76B109oIDQtDswbVkCN7ZjTpMgrGKYyQPHlyeRHb1sxG5fLF4z1emmAqK5wIwqFj59GobhWV9b398AmHj18QBAGAsCDEe0qKGwUCSRYBjQiC/9lrMB1gh+4dGjMZoN0hCSmJrgOmsAI4e8BV/jtd+xkcgs9fviFtmlRInSqlEqCkRMikm/x3OXSRlBspS0PDSFOv4j2fPn/l3xV94mFh4bCZuQxH/C/hos8qLutvm4k1UWb3Hz1nU/zR7Y54/vINBljPw9kDK9lCU6PFQKxeYsvkq10fW6RPlxoeTpPlGEWdpRRrYKCgjOl6TBYE2bNh4eGo3Wow+vdsDbNuLVGz1SDUrFwGIy27ICQkFIaGhhxP8PX7D5ha2MFzmR3q16yIU+evw3HVFty5/xQv/3vHxVUuVxzp0qVG1fIlEB7xC/uPnIHz3NF49+Ezeg6eBg/nyUxs0qRWng+xvW2aYKpIEPxOX0H3jk1UVvH8xRt4b/cVBEEQhCS74IuOCQTUQUBtgkA7ixotB+Llq3e4edKLLQaK4rXVhxWF9/KpKFooL+9ElrvvxIzFa/k24gCjBnbF6CHdeVf64eMXlKrbC3MmDUT/Hm3kRQ0cuwC7D57Ei4BdePfhE8o16Au7MebYf+QsLl0N4vt6d2mO+XZDWHmSz5588zIxMjTA06s71MFC8nvVVWZk5u8xaBrevPuIIeYd4LJmOyqVK4ZF04ajbpuhKFwwNxOE4OBQ3LzzkMnY8gVj0bFVfW473U8mdJJC+XNjwsje6Go5Be/ef5L37d6j57yLz5c7u/y3Tm0aYFi/TvK/v3//idSpU2Lz7mMYN80ZQac3IFXKFExcRliaoms7E5w6F4DOFpN5DmTOmJ6f/e/NeyYxjetXxaFj59gl4TRnFGpWLYtGnUYwwTi9zxXPX71G9eYDce2YO7JlyagW7upiqlg4WRDOXb6J0YO7qazzzr2nsHfdJAiCIAhqzUlxs0AgqSKgNkEg83F5EzNUKlsMm1fNVIkLkQKZVWG+03osWbkJzRpWx4DebbFzvz/Wb/OB9aCuGG/VmyPeS9ftHY0gWI6ejz0+p/AiYOdvgmDGlomeHZuie6dGWL52J/YdPoNxw3pizJDuuBH0AAtdvHHu8i14udjB0MAAFcsV+6vjpq4yIzdN2fp9uM3UV7Ki3DjhCbt5btix/4TcUkD4knVFhvP5g27Ilyc7XNftxr1Hz3Dj5gMYGCTD3vUL4ei2FT9+Bstx2HPoJH4BaNe8rvy3KhVKoEn9qkpYffr8DRUbmaNO9XLwWjaFr1Vs1A+zJ1iy66BWq8EoWigPPF3s+NqlgNto38cWLZvUQr0a5bFl9zGMHtINvYbMwAUfN7ZKEAEiyxIFRJp0tELQKe9oBDOuAVMXU8XynNdsw8Fj52Ktwtg4Bba4zVSyZsXVpqR4XbgYkuKoij4JBNRDQG2C8OXrd1QwMcNgsw6wGd4rztpK1O6JVo1rsi9c5nseOXkpR7mf2e/KCiK+BKFS2eLYv2Ehkw9yKdRvPwwpUhjBb4cTt4Mi+A/7X8LVI5HWir8tmigzMr9TGmClxv0wtH8nDDHrgMsBd3Dv4VPkzpUNGdKlRepUxhx7kCVTetRpMwSOc6yV0tFWeOzCXp+TTBCiSlwuBtn9338Ec4yJWbcWcpdQ0RrdsGDqMLRpUgtzHb3Qtb0JShUryI9s3HkEb95+xLD+nThQMTDoASg+4f2Hz1i6cjPOXbnF6Y7NGlZDwXy5YDlmPh5e2ML9UEc0wfTYqSv49u2HOtXAyMgAzU1qqPVMUrpZEISkNJqiLwIBzRBQmyB8/faDLQi9OzfDjPEDYq3105evKFGrJ9zsx6Ntszryey8H3EarnuOw2sEWtaqVjTdBmGTdF1YWXeTlmFnNwt0Hz3Bq73ImDUmBIFCu/sAx89ldssN9DpvE69eqyOcJNGg/HKf2LcfDJy/RY9BU3oGTdYAUr6IklCD0GjId5UsXYQuPTCj4kOonS9A658nRxp3cIo+fveLfuw+cipEDu8rPasibOzu+fPmGA0fPwdfvPLJmyciplEtnjVR71qpLEEjR9Rk2E5QZElVev/3A8RClihWIdo1iZXZ6zFW7fUnlAUEQkspIin4IBDRHQG2CQMGGZEEoXCAPDmxYFGvNT5//h2rNLTkPnpScTGS59eSfJn+1KgsCBeft9T2t5GKg9DSzri3k5ViMmodbdx8lGYJA5GDNhr2wm7eKI+2v3LgDOrTn5J5luHnnEWc3PL26HTeCHsoJgqoBSAhBoPgDOruAgg8VMyOmLViDzXuOchzB7nXzUDrKGQs0VnOWrMOjpy+RNm1qZM2UAaFh4aA5QJaiQvlzcaZL9eaWCA4J4bTJHNkyqz1z1SUIihU8ffEaE2e7MmFNaZwCG7b7wmHlZpCLRogyAoIgiBkhEBAIqE0QCLKWPcbgyvW7HF1fMF9OJRQ37jwM51Xb4O06DXlyZUP+Sp0wa8JA9Pudp083b9lzDFYTHLB1zSyULVkYJWtHxhFQPAEJLU4mnUcg6M5jtQmCz/ELCDjmkShGVl1lRpka5OdPmzoVcmbPjOEWndGkfjUO7KQzBtZu2I8rR9fiyo27SgSB4kJSpfpjRZARhF2e81lBk0lfJnG5GGxnreAAxOO7XDhbgYRiBuiwJLIaUWaE36kr8Nlsr5SlQvdRwCnFLVB2AmVa7D98BmOmOuOGv6c8m4IOejpx5iquHnXXaIzUxVSxEgfXzVi3+QCu/HZBEUGYMNuVY2MUpU3T2qhY9u/Gr2gEjoQPCYIgIZiiKIGAniKgEUEgczL5yEsUzY/93ouQwsiQA9/uPXiKtr1tUaxwXuxdH3m4T61Wgzgq/8KhVciYIS3HDpCyoZ3ozZPrWQnlLt+BzeRBp71B2QdB955wEBuJYpBiXBYEyv333HIQgf4UWZ8umgLT9RglRJkRnsHBIUwMBvZph5J1emHkQFNMGNEnGkGg2ABys8h25EQQ9hzyR6XISq0KAAAgAElEQVTyxXHx6m0c3Lg4XgTh1et3TFB8tyxBud+nJlI7xk1z4cDSS76rGdfS9fqgj2kzTLdRdjFNX7QWy913sGuCghvb9RmPydZmTHRIKMuhgok5j4uH8yQ0a1Bd7SHRFFNSeNQ3cpEF+LlziiwRhElz3dCuxR/3FzWor2lLtc5mULsTevCAIAh6MEiiiQIBLSOgEUGgNlEg2nBbe85hz5o5I59TQD5dOk1xg+s0FMgbaVl4/e4DmnaxBgU3ZsqYjs9CoP/32+mEkkUjfb++xy+g7/BZHHRHO2E6mbF4kby4cCVILYJw7NRlThOkNmXLkokj5v+maKLMyCe+cYcvtu7xw6Onr5AzexZMHNUbA8cs5GBMImVRLQi5y7fHTX8vZMyQjrtL2Rz2KzZxsKP3iql8kJJMYrMgjJ+xDDsOnEDgCS8OHiSXx/hZy+G9zRfrl9nB5PcBQyfPX0fXAXacYtrHtLm8bDrFMTDoIXoNncHjTOO5w30uihfJh/DwcLTtE2na79ahMcZMccaJ3S4oXCC3WkOkCaZUAWXF0LODzdpjtfc+7PGch7MXA4WLIQb0BUFQa1qKmwUCSRIBjQkCoXH3wVMcPnGRFVmWzBk42KtezQrRPjBEB/4cP3OVLQmUM9+gdkUmEjKhxej8lVu4fus+/1S7WjkOaiOfcec2Jmxt2ONzElXKl0AhBYVCC/zHz1/RolFktDntdil6/uqNu3ygDx3k9DdFXWVG8R0Fq3Rh90LHVg1Apu7A2w9gN381OrSsB4cZVpwJQocpUcCgeY9WoMN9qJ47ZzbweRCEJZ0JQYGAznOsUSCKCygmgkAfcWrceSSfoFi1Ykl2A8y09+C6HGZacVqkLHWVMCU3Q1+rWejRqQlmjrfExau34L7xAM5cvMEkb8QAU5y+cJ3PsujVpSmTPQqo3LpmNrJnyYihtotx/NRVuC62gUmd+J+6qS6m1FZym7hv3A/76Vbo3LYhFjivh5vnHmTPmhEfPn1BH9MWbN2ijJhfv8BkhoIU6YTIf1UEQfhXR170WyDwB4EEEQQBZOwIaKLMSFErfmTJzWsPnjx7hZm2lkqEymn1NgQE3mNS0KpJbbRv8edcAyJI5OZR9fVFq4kOHPgY9QhmUt5E9mTZJrOXrMPte08w3aY/H7qkSoj0uXrsgpu9DdZv9cGpC9fRslFNPriJzhMguX7rAR8PbW3niAVThyJPzsjvdJACGjPNGQ1qVVJqe1xzShNMFy3zRvp0adlVIxM6UIrIDGWEkEUrJDQUoaFhfOLjr4gIFC2Uj/v+r4ogCP/qyIt+CwQEQdDJHNBEmemkYXpcicBUN4MnCIJucBa1CAQSMwLCgqDF0RHKTHpwBabSY6qqREEQdIOzqEUgkJgREARBi6MjlJn04ApMpcdUEATdYCpqEQjoGwKCIGhxxIQykx5cgan0mAqCoBtMRS0CAX1DQBAELY6YUGbSgyswlR5TQRB0g6moRSCgbwgIgqDFERPKTHpwBabSYyoIgm4wFbUIBPQNAUEQtDhiQplJD67AVHpMBUHQDaaiFoGAviEgCIIWR0woM+nBFZhKj6kgCLrBVNQiENA3BARB0OKICWUmPbgCU+kxFQRBN5iKWgQC+oaAIAhaHDGhzKQHV2AqPaaCIOgGU1GLQEDfEBAEQYsjJpSZ9OAKTKXHVBAE3WAqahEI6BsCTBCqVvjztT9960Bibu/Fa7chsJV2hASm0uIZU2n00apLAWL+6gZtUYtAIHEiwAQhcTZNtEogIBAQCAgEBAICgb+FgHAxaBF5YQ6XHlyBqfSYCheDbjAVtQgE9A0BQRC0OGJCmUkPrsBUekwFQdANpqIWgYC+ISAIghZHTCgz6cEVmEqPqSAIusFU1CIQ0DcEBEHQ4ogJZSY9uAJT6TEVBEE3mIpaBAL6hoAgCFocMaHMpAdXYCo9poIg6AZTUYtAQN8QEARBiyMmlJn04ApMpcdUEATdYCpqEQjoGwKCIGhxxIQykx5cgan0mAqCoBtMRS0CAX1DQBAELY6YUGbSgyswlR5TQRB0g6moRSCgbwgIgqDFERPKTHpwBabSYyoIgm4wFbUIBPQNAUEQtDhiQplJD67AVHpMBUHQDaaiFoGAviEgCIIWR0woM+nBFZhKj6kgCLrBVNQiENA3BARB0OKISaHMzl2+CR+/87Abbc4tHTPVCWOG9EDunFnjbPnpizfgvGor1jlPhqGhYZz30w0REREYNG4hpo+zkNfx6fNXDB2/GGuWTICxcQoscF6PkkULoF2Lukpl/gwOwYiJSzB2aA8UL5JP6doy9x0IDwuH1YAu8WpHTDclBNMPH7/g/afPcdZfOH8eJEsW521J+oZfv37B/1wA6teskKT7KTonEBAIxIyARgQhLDwcYaFhMDA04JKTIRkMf/+/1GA7r96GyuWLo3a1clIXrfXyEqLMZI3z3HIQzmu249yBlfxT3oodscdzASqVKxZr+4NDQtHRfAKev3yLkZamKu/t2Ko+MmVMp3QtPDwcxWv1wKFN9vj85Tuu3riLj5+/MimYNq4/UhgZwXXdLpQokg8N61SGccoU6NWpKZfx7fsPlK3fFxtXTkeNyqWVyh05eSlCQ8OwbP6YBOGeEEzHTXfBpp1HkSmTcp9lDQoJCcOHj5/x/NoOGBhEzu1/VQRB+FdHXvRbIPAHAY0IQlNTa1y/dV9eSrJkyVCqeAF0aWOC/j1bI6VxCkkwDgkNQ5HqXdHCpDrc7G0lKVOXhSREmSWEIBBuw2wXw+fYeZQsVkCpy7Tw37z9CPQJzyPblrAlQFEUCQJZLzbtPMKK/cqNu6hSoQQMkidH0L0nSJMqJfLlyY6MGdKxhUIVQfjvzXuui2S5xw6EhUXAyqJzZHXJgLo1ysMonpYNWRsTgikRhDv3n2L98qkqpwH10dRisiAIAARB0OVKIeoSCCROBDQmCIG3H8Jx9iju1ecv3+Cx+QAvvkP7dYLdaDPJektEpEDenEifLo1kZeqqIE2U2V6f07j78BmsB3XlZsZmQSB3wDBbe4wcaCpX9G/ff0R7s4l48fINQkJDeTzI5G+cwgghIaFwXLUVDq6bMGJAF4y36q0ExcAxC1gx7D9yBvVqVEDNqmXY+kCKvkH74bh0eA1SpTJG/5FzUKtqWVj2aceEQSZRLQi7D56E7ewVfPnLl+9IljwZ0qZJBSIhX77+wHU/D2TJnEGt4dAEU1kFRBC8tvrAKAZrV8SvXwgLCxcEQRAEteakuFkgkFQR0JggPH/5BjdPeslxIcXSpMsoVgKHtyz5vaP8yYtxihRG8vvIPfHzZwjSpE6l5Od98vw/kA+7WKF8Sr9//0FlGMLIyJCV17fvP5E6VUpawhAY9JD95KqUDN1L5IJM4uQPT66gyGSNeffhMx4/fYmKZYupvH7/0XO+tUjBPBqNvybKbP/hMxgwej7un9+EVCmNYyUIP34Go2z9Pti2Zjb3gfrcutc4PH3+Bj6b7XE96AH6DpuJXDmywHmuNUZMWooXr95itcMEtGpSM1qfFi/fyDEI9N8+ps15h3/o2HkcPXmZrQgpjAx55x8WGs7jbGCQHNf91rF7adX6PTh14QZ8jp5DzWplkS1LRjhMt5K7nkZNcUR4WASc5ozCvUfP0LjzqL9CEG7ffwpPFzuV43n1xh10s5wqCIIgCBq97+IhgUBSQ0AygkDANOtqzTv9ratnITw8AgWqdEbLRjXhZj9ejtv6bT4YM9UZAX4eyJ41EysgaztHvP8YGTxGO8zBZh1410tSuUl/dO/YBDbDeuLp89eo3sISfbq2wJbdR/HjRzDIvVGuVGHsdJ+L1KmJOAB7fU9j5KSl7BMnyZolI9YumYhqlUry39cC74F2y4+fveK/SdF1atMQS2eNRPJkybBl9zFMmruSLSMkGdKlwajB3TDErINa468JQXjx31tUbWKBI9sdUapYgVgJwoUrN9G2jy2TCSJcJESoaFdPwYTkT5/ntB4emw7I2z15tBkG9WnPhEuVeG49hHHTXLBl1UzUq1kBPQdPQ4F8udC5dQOl25+/eoNBYxfi2dUdTAJWe+/Fxau3sfuQP+rVrIjsWTJi7uRB8nYR6UmfLjXsp1vh3sNnqN9++F8hCDv2+6N44bwq+/7l23fcffBMEARBENR6z8XNAoGkioDGBIHM4B6Ok/ALv/Dp8zf4n72KrXv84O44kYPX/hCEGkrxA2TiHTstkiBkzJAWFRv1Q75c2eC5bArvgBe4eGOf7xncOunFyp8JQocmsBn+hyDkzZUNzvNGo2C+nNi8+yhmO6zDRtfpaFinEi5eC0KbXjZo37Iek4zgnyGYOMcVD5+8xDU/DyYAXSwm807aa9kUZM2cgc3Os5d4YPua2ShRrABK1u6JRnWrwGnuKAQHh2LG4rU4eS6A26zKEhHT5NCEIFD8QOFqphhu0Rm2Vr1jJQhmVrMYI3fHSdyEW3ce4WLAbdy8/ZDjBC5dDeIYgU6tG6BO9XI4dOwcdh86xTiT8if8ypYsjGqVSiFf7uwIDQvjIEPKWqBre9cvxIiJDrh19zFbBBTl+89g3HvwTE4Q6FpsQYpte49ngjZlTL+/RhAuX7+Dh09exPouU3Bi++Z1Gdd/WUQMwr88+qLvAoFIBDQmCGS+JxM4CZmfyXXQuU0DjLA0RYki+eNFECiYkSLmSXm5LhzHO/2oooogeDhNQrOG1fnWj5++oky93rAd2YcD4MbPWo6DR87i2jEPeVFkMWjebTQObbZHhdJF0bLHGFDE+tqlE5E/bw6lKp+9fIOqTS1g2tYEM2wHIFMG1RHv8ZlAmhAEKnfSnJXY43MKV46shfd2H5VZDIUK5EKp2j2x+fdOn55b6rYF67f6oEC+nChTshBM6lRG3erlMGX+aoRHRGDe5MH4+u0Hl3305CX89/o9qL/TbSzQtlkdzljoPWwGPn78yqSBCNzPn8EoXbIwOrasp9Tlpy9eo9+IOTESBLJ+NO/+J2OBYiLIapEtayaEhobi2Ys3yJs7G2ZPHITmv8dSG5j++gXMdvDAuw+f4lO8/J6UKY0xd9IgtZ5JSjcLgpCURlP0RSCgGQIaEwTFGISIiF+48+AJ+o2ci/fvP+H0/hXImD7dbxdDzBYEcjEsWrYBTqu2gtLyyI9O7gWTupXZrE+iiiAc3roEZUoU4utkUi9Wswfn19ta9UKnfpNw+sJ1JcVOsQ3krx81sCtsR/SG93Zf2M1bxTteCoAcZNaeFSTtkmlhHD3Vid0MFLBWs0oZDDZrj7o1KyDtbzN+fKHWlCC8fvMBFRqZ4+SeZdwXVWmO795/5FiF68fXIV3a1PImvf/4BWFhYUpN7NhvImpWLoPxVr2iNZ36TLtlInmNOo/AArsh6D1sJrts+o2cgwL5c+Hajbv8HOFIopilEnTKWx5noGhBqFaxJFsraG6QjJ7iyM/T+JYvXVTeDrIqkPUivqIupjSeFFNBZyBE/IrAh09feW6QJYlI7o2gB+jRMTJNU1EoGHOytXTBtvHtX2K5TxCExDISoh0Cgb+HgCQEQdZ8WnApBXLRtGG86EbGICgThHVbDsFmuos8BoEWIlIcG3Yc5h0w7Wrz5MqKS75rYiQIR7YuQekYCELn/pNBwYXz7AYroUrnNhQqkFtOLIiQHDx6Fq6eu3H52m0YGhiwhYGIB7XpR3AI1m06wDn/L/97x0rs3EE3JE8ef9OzuspMscEVTMwxdWw/JjGqCAJZSvLlyYHVCvEd9DxZRwJuPlDqO2UNEAlQ5R4JOrWeCQYp89kO7ji9b4X8HIRC+XMzFvSPxMJ6HseNKO6sFWMZoroY6Dmql2I9arQYiMrlS3A2xQ73ORrP+IRgevFqEDqYT8D9c5s4RmPDdl84rNyM8wfdNG5PUn1QEISkOrKiXwKB+CMgKUG4cOUW2vYZj+ULxqJDy3ooUasH8ubOjqPbHeUtMhsxG4eOnmOCkCVTBvz4+fN3RkMyjqAnokBBjPu9F7JCUWVBiI0gULzB7oOncOPEOnmdVO7b95/YKkGK4eu37/xfyo6ghfDxs/9Qv91QWA/uDqsBndmsniZ1as6mICsCpXBOnuuGO2c2KO3W44I5Icqs15AZaNusNscFRCUIFEC4Y/8JtggQhopCwZ4UNyETwnPZmu04vG0JjFP8OZ/izKVADLVZhAcXNnNWCLkM6MRG824t5QRhxmJ33LwTeY4ByZu3HzgjJUP6tPLfiC5d8FnFf8sIQo0qpXHv4XNY9m4Li15tUKvVYNSpVhaTrPuievOBTHzMu7eKCz6V1xOCKcW+UKbFmX2RqZdEEMZMc4lmwaB2tmuufEqkRo3V44cEQdDjwRNNFwhIhIDGBOHOg6fw/H1ADilR+puO0/35IxjnD7lxcNz4mcs5gn7h1GGoU70s/M8G8G8kRBDI7E87SzLjU8Q7ZUDMd/LGXp9TCPT35BgHdQlCwM37nE1BZY4b1hMZ06dlK8CO/cdxYvcyFMqfC7XbDIGhQXI4zByBAnlzYMP2w5iz1JMDLGlX3qjTCLRuUgsTRvbhNMnpi9fC/+w13Dq5njMe4isJUWayOjQ9SZGe33XQHyMmLoVFr9Z8VLNi4N2WXUdhNWmJUgwBPaN4UNKXr985ZoHOB5hl74GX/73l/y9WOC/GDonMMiELAmFNxIx26NdvPUDjelXQvkVdNGlQDSfOXMPgcQtx6fBq5M6RFWs37sfcpZ7wXjENVSuUiC+U8vs0xZQyJ2hehIaGY+nsEejUuiEThLmOnnCZp3y6Ix0uFTUoU+2G6vkDgiDo+QCK5gsEJEBAY4KgfJIikCNbFhTKnxMzbAagXOki3DTya7c3s+W0QspqoIDALm0awn7FJk5xo4C1dZsPYr6TF+hMAhLK2R9p2RXm3Vvy31V+pzmSspelOR7ZthSlixfk67IYhMiDfyJ97MdOXQYd7Uu+fJLs2TJxat+w/p34b9opT1+0ll0RJGRZMOveklMpkyc3gOOqLVjhvpOPGCahEwMpo6Bzm4ZqQa6uMiNrAaUKKoqP3zm2FixfMI5/7tJ/EuZOHoxihf986yClsREqlSvO12lhp0Os3Lz2cByFWdcWfL+iUD19h8/C0+f/4eSeSMImE0WCULRQXnavLHXbjI07jmDN0glsbTCzms3WDcq0KJgvFz86dcFqtq70MW2BHNky8UmN+3xPczopZaBQ/AcJHdZEu/ate45hxcJxaNe8jloZA+piSnVSumeb3uOZcJL1ovugqTzWoWER2Lz7iHAxqJjVgiCo9aqLmwUCSRIBjQiCukh8+vKNFXmu7FlifPT12w8c7JY5Y3p1i4/x/mcvXsPIyIgVliqhHTKddZAnVzaV11+9foeUxsYcza+JqKvMCAOTTiPUrorSPunbCZcDbmP0VGcE3X2MwgVyY9YES07XJCEXC1lvKAaA0v0IG8oGaVyvaowEgU5d3LbXjwM56ThlIgwkRKwogJHODKADleZMHBTtWxwLXbxB39EYZtGZlbGikMuHDk7autsPKxfboE3T2vHus7qYUvhE827WePLsPz7bgcjrpYAgDLd1wKvX79mKRfMyS5aMIKJFxIbiVYioytJH4924JHSjIAhJaDBFVwQCGiKgE4KgYdv0/jF1lVlCO0wEw3a2K2ci0PkOUYWsCu8/fOb0wqYNqnHAYVQh5T3c1h52Y8zhd/oq6lYvzxYUVXLl+h0+b6FHxybRLtOZDNSeBrUrxditZWu3w6x7K/6uQ3xFE0zJ/UVZCzKCo1gX4UHxF5HulO8ICQ1nNwvhR2dF/KsiCMK/OvKi3wKBPwgIgqDF2aCJMtNic5JE0QJT3QyjIAi6wVnUIhBIzAgIgqDF0RHKTHpwBabSY6qqREEQdIOzqEUgkJgREARBi6MjlJn04ApMpcdUEATdYCpqEQjoGwKCIGhxxIQykx5cgan0mAqCoBtMRS0CAX1DQBAELY6YUGbSgyswlR5TQRB0g6moRSCgbwgIgqDFERPKTHpwBabSYyoIgm4wFbUIBPQNAUEQtDhiQplJD67AVHpMBUHQDaaiFoGAviEgCIIWR0woM+nBFZhKj6kgCLrBVNQiENA3BARB0OKICWUmPbgCU+kxFQRBN5iKWgQC+oaAIAhaHDGhzKQHV2AqPaaCIOgGU1GLQEDfEBAEQYsjJpSZ9OAKTKXHVBAE3WAqahEI6BsCTBAyZUynb+3Wi/Z++PgFAltph0pgKi2eMZb2C/jwScxfHaEtqhEIJEoEmCAUyh/5yV4h0iLw8MlLCGwFptIioJvS6KjlR09fifmrG7hFLQKBRImAcDFocViEOVx6cAWm0mMqXAy6wVTUIhDQNwQEQdDiiAllJj24AlPpMRUEQTeYiloEAvqGgCAIWhwxocykB1dgKj2mgiDoBlNRi0BA3xAQBEGLIyaUmfTgCkylx1QQBN1gKmoRCOgbAoIgaHHEhDKTHlyBqfSYCoKgG0xFLQIBfUNAEAQtjphQZtKDKzCVHlNBEHSDqahFIKBvCAiCoMURE8pMenAFptJjKgiCbjAVtQgE9A0BQRC0OGJCmUkPrsBUekwFQdANpqIWgYC+ISAIghZHTCgz6cEVmEqPqSAIusFU1CIQ0DcEBEHQ4ogJZSY9uAJT6TEVBEE3mIpaBAL6hoAgCFocsb+pzJLqNwv+JqZanCqJrmg6atn/XADq16ygcduojGTJkik9HxISihQpjDQuUzyoOwQiIiLw7ftPpE2TKto46q4Voqa/iYBWCUJwSCiM/+HFQBNlFh4egYhfEfI5kQzJYGhoEG2OPH72CnXaDMHlw2uQPWsmpeuT5rlh1wF/+O92QaYM6fDfm/d48+6jynmWMX1a5M2d/W/OQbXq1gRTWQUXrt7CzTuP4qyvT5cWSJ5cWbHF+VASuyEhBOHXL2CFx3acOBMAz2V2MDSInL8Ll23Azv0n4LfTCUaGhpIgFhoaBiMjacqSpEE6LuTy9Tv4/uNnvGvNkik9ShUryPeHhYXjy9fv+Pj5K+49fIY9h05hQO+2KF+6CF+/cv0O2vS2QaC/F2idiConzwXgZ3BItN/r16rI5dLzipImdUrUqlqWf3rx6i1ojqkjhoaGyJFNea1T53lxr/oIqE0QwsPD8e7D51hrypwxPe4/fo6GHaxwZNtSlC4eOSH/NdFEmQ0dvxjb9x2XQ5U7Z1YmAVGFCELt1oNxyXcNcmbPHO16RRNzNKpXBfYzrDB57kp4bfWJdg8trh1a1YfLvNF6MzSaYCrr3LjpLth96CTKlCyssr+fPn9DYNADPL+2Awa/lZreACNxQxNCEF69fodqzQZgyayR6NymobxlNN+K1ugGD6dJaFinskYt7j5wKvLmzoZF04bzOlSpkTnP37bN68arvE7mE1G2VGHMGD9A5f0LnNfDY9MBXD6yVi82Nw3aD8fDpy9VbiKidjAkOBSN61eBh9NkvlSpcT+8/O8d/z+RrNw5ssJ+xnDUqV6ef5MRhBsnPJE2dapoRKxqMwu8ffdJqe6v337gpr8XbgQ9QLeBU5E6lTGXRWQkX54cOLlnGf9duFpX0AYyLiErBs1Feh9LFSuAw1uXxPWIuC4hAmoThOu37qOpqXWsTdi/YRFCQkLQwWwidrjPkbNGCdutF0VposyIIHz6/BUTRvbBhSu3sMRtCy75ruYXTFGePP8PJh2scHrfCuTInhkpjVMgLDwca7z3wbSdCc5duon+o+bC08UOdWuUR1hoWDTMRto58iL4LxGEwKCHcI6BEN0IeoiBY+YLggDwoqyJi4F2hk26jEK2bBlxZMtSPHj8HM9fvpXPPdvZK1AgTw4MMe8o/y1XziwoWbRAvN7pFt3HIF+e7HBbPJ6VGympmeMHoH/PNvF63qSjFSqVK87EWZVMnuuGVev34NHFrUiZMkW8yvybNxFBsOjdBt07NMGAMfNQq3JZWPRSjcXYac68tsgIwokzV5EzexYMsVmELm1NMMS8A3fFY/MBPHryEu2a12ULgttiW4yb7gy/Hc7IljWjvLuE/XQbC7RsVIt/+xkczIpfRhAGjl3Am5sURkbYsPMwXD12yQkCWTXjYz+gZ/xOX8EG12kwMjRAlkwZ/ibc/1zdahOEkNBQPHvxRg5Uz8HTQb9tXT1L/luenFnZz/j67Qc2f0f1Q/4rKGtKEAgvUtpHT16C9RQnjBvaA2OnucQK29Wja5ExfToUrNoFBzYuRqWyxZjFE+uOaTdMC0Py5Mn/KYKwdY8f8uTOphLLH99/4vmrt4IgaEgQgu4+Rq+hM3gR37p6JtKnSwPbmcuxTcEiRubw5MmSKylfi55tYDuid7yWBUWCQA+Q6yxzpvQwSJ48Xs8nRYIwyKw9OrSsx8rZea412jSrEw0LcukQQXj/8bOcIMhuatljLLq0aSgnFmZWs3jDMdisQ6SL4YQXzEfMRuECuZWIFRGEpg2qo2LZolxUaGg41/GHICxEwDF31gXe232xbO0OOUGI12ABsF++EQePnYfPZvv4PiLukxABtQlC1LobdBiOHz+Dcf6gm9IlmoirvPYws8+aOQNOnQ9AwM0HaN+yLry3+eLdh09oUKsimpvUwOkLN3Dw2DkkT5YM9WtVQON6VeVlkZtqj89JnL0YCPLPly9bFF3aNIBxisTP7qUiCGf3u7JPT1HIgtC+ry0ObbJnEkYYh4SEKRGEeY5e8D93Ldp0GT24G2P8LxKEW3ceY5XDeJWv0JXrd9Fv5BxBEDQkCGcu3sCq9XuxYsFY3qm26jkOq5dMQLlSf1w6pIxKFs0Ph5kjVI4BWcr2HT6D85cDASRDqeIF0Kl1A6ROlZLvVyQIP34EY9na7ejUpiEK5c/F10NCw7Bj/3E2j5NiKleyCDq1ri8nyVEJAq1Ta733oWjhfGjfoi5kFoRj253gc/w8nr98wy7S3l2aK5nSn754De9tPnj1+j0yZkjL61jNKhFxE0kAACAASURBVGXkfVqzYR/y5MyG5ibV5b/RGkc7c1K8MiF34pUbd0DbaXJ9dW3XSCn+JfD2Q2zfexwfPn1hE33XdibIk+sPwX309CXHGVE/arUaHKNqsOzdDsMtOvEaQRYYkoYdrXiciGSlSmnMwYhrHSei/4i5sB7cDWVLFpLHIJC1plWPsdjjtYB/JyGCQEQi8+9dfXhYOC4F3I43QbgccAfrt0V3febJlRWjB3fnOuxXbMLBo+cEQZBQ6atTlNYIwr1Hz1G3zRAc3+WMEkXyY4HLeqzy2gsK/SpcMA/evf8EUnJD+3XE2g37UaZkIQ5coX9ey+zQpH61yAmyfCMWr9iIYoXzcrDTzduPmHRMs+kvD35Sp8O6vFdTgkDY0At6/sotrPbei2tH3X8HIiWT+/RUxSD8/BmiRBAsR8/nl1/R5DjT3p0tEqbtGv1zBGHKglXYtPNorFPAwCA5rvutA/33XxZNXQyEWWhYGJp2GYVUqVJir9d8JQtWbASB/M2Oblsx33k9ihbKwwr+waMXKFQgF3w3O3A5igSBYhAqNjKHu+MkNK5XBRTjMHXBapByJssZyf1HL1C9UilsXRNp4VQkCKR0G3ceiRRGhti2ZjYrXhlBoMDdzBnT8TMBN++jRaOaWGU/nknCwycv0dR0FLevUL5cbCl98d87uDtORNMGkesWmf6rVSqFRdOGyafR6CmOOHb6Kq4cXgPqq+WY+fDxu4DK5Yvz7vtywG20bVYHrotsmCRcvXFX3t+smTPi4eMXyJEtM3Z5zosWNHjgyFl+n49ud2RlH1UoFiBDlEDDIycu4u2HTxg5aSk6tqqP9i3q4dv3HxgxaSnOH3LD6zfvlYIUR05aghu3H+LI1qVygkDunZaNZS6GEBSs0iXeBGHH/hMYM9WZ65XJrbuPEB4RweMtCMLfX4F0ShAcVmzml4jYNk2Ceu2G4vmLNziz3xUUjEc+rIqN+qNSuWLYsGIaR9bWbTsUwy06Y7K1GaO1duN+TJztirVLJ6JFoxp/H8FYWqApQdh98CTSpEmFsLAwpE2bGpd9V6Noje68+KxYNI4tLfElCBkzpMPCqUPlrWzebTQG9GrzTxEEirT+FREfj6fCYCaDyoU2UU84CRunKUEgK9+i5RvhsGIjTu5ZzopeUWIjCD5+59F3+Cx0a98IS2eP4sd8T1yAxah5WDhlKLp1aBwrQdi65xisJi7BlLH9MOT3Lp1+Gz3Fid1uZUoUkhMEu9HmqNLUAkZGBjizz5XdFCQyguA0x5pjeUjmO62Hg+smDgimdapZ11HsZg04vo794oRV5/6TcP3WA9w+vYGVe1wE4fPX76jQ0AyTR5uBXCwkFEi80MWbA/HIKlC+oRkyZEiLU3uX8zv/8MkLNOhgxYRip/tcJVwHj1vEGTqHNi6OcRZQu4yNlS2vK9btwrQFq9G8UQ1eU4kw0WZs5SIbpSyGDOnS4OylQLhvPADXRePkBGHs0B5yi29wSAiqNh2gFkFYtGwD908mnlsOYt2WQ4IgSPguJ6QonRIEz82HcP34Onl7rSY64OqNe5yOJxPTAXYc07DLYx6GT7TH1t1+POFkLzDdR9G3fUxbgEzliVk0JQhEnhxnj4LfqcuwmbmcLQhECGq1GgSvZVPQqG6VeBMEWmDTpUkth4l2TQ4zrP4ZgkCLt0mnEXj24rVaU4X856qyR9QqRI9v1pQgkDImfzNJ0GlvfPnyDRt3HZEjsX6rLzJnSoeWjWvKf7Ps1Y7N9Hbz3LBt73Hc8PdkhUhC7fj85RtH0JObITYLwuCxC3H64g1QPA7F1pDQTp2UcSpjYxgbGzFBIF/61cC7CA4O5c1JurR/3g8ZQQg84YksmSMD4siMX7PlIPhucQARbsrQGNinnVImBKX8dbGYzLEXdWtUiJMg0PkCFUzMuG4KJC4bJbOG3K6d+k3EKgdbtGlaW44VZeKcPH8dZ/atkP9GLl7KDqHYJTL5xyS1q5fDut8ZDLJ7iBCQG4OebdG4Bj5//g4ri06cZaKY5khBz4PHLeSAadlaTC4GCkBVPOoiIuKXIAh6/N5HbbpOCcLGHUeUFl0yWV27eR9+O5zk7eo+aCrHNBBBoPiG2/eesAlQUcjPSH7JZfPHJOqh0JQgRA1SJIJA+98eg6bi6fPXOLHLBc9evo6W5qjKxfDf2w/oa9pCjhOlcY0b9m+5GG7ff4LQkDD8CA7GXt8zaNe8DoyNjNjX7b3DF+tdpkSbR+RiKPWPpufKFLO6WQx37j9Fuz7jMc3GAqMmL2WCQCmP85Z6yfE9cykQlA9fvlRkrj3N9flThnAczZDxixEQeE9pRxl1YGIjCBST8/rdR5zeuzzGwGgiCLfuPuZiC+TNAf89yzjKXiYygvDw4ha5BYniEKo2G8DxPkQ4qA2rHWzRWkFxk9uBCPz8KUNh1rVFnASBYquOnboM2iSRS5HISIki+TDT1pItHWR+J5cB4UNWCpnQ2kdBoIH+nn9+CwnFrXuRfYpJnFdvA8Vs0AZDJrazluP6rYdsqSTCRveQq2G+3RAmWNcC76FVz7F8DkI3yykoXjgfnOb+yWAjgjB+eC80+e1WoRgEA0MDtn5QhsTAsbEHKVIfhQUhUaswJGqC0HPIdBz1v8QHqyj61WhXQQE15JdLzCIlQaB+0mJLhyPRroJ2QVHPQVBFEISL4c8MocOjRk91xp0z3uzP3rDdF7OWrIOns53SNMqfNwcHff7LookFgZTn/ccvmNDXaDGQCULUA3ZiczGMn7mcA9KuHXOPEfrYCIL5iDlMMC4eXi23QEQtiAgC9c28R2vOsKCDgWbYDJAHBqpKc1QkCERu6B2cMKI3Rg7sKi+e4gcoKNPDeTKaN6zOm5vK5YorBWNS2t+Fq0EcgyATOleGXBNkgSD3KdVF/affeg+dwZbEGlVKy+8nVxkp4Xy5s3PMBQV7xyZEMIh8Wds54fPXb1izZALfTu7bJqaj4LrQBktWbuYsBjoj4dzlW+ziISGcgoNDMNPBAxu2H8bxnc7yAEe6LksxpRgEsojUaGkJ7+VTUb500XgTBCJBitZhWsOKFMojXAyJZPFJ1ASBTvaiQB4KDpKl7lCU86ZdR1C6RCFO5UvMoilBoB1vp1YNQAE7tIsjC4JMKHWRzJHxjUG4++Cp0qE02/b6YcoY83/GxaA4P8h9RTu9cwdWchAiEYSx0134gBhFIR82BYv9y6IJQZDhRXNTE4JA77W1nSMH6cnwf/D4BSxGz0PfLi3Qr0erWF0MKz13g4JwyT9fpUIJbg4F+lHQ3ZyJlmz6lwUpLp4+HDYzlsFryyE4zRvNCpIkLoJQpkTByNiA9GnZ+kDplWTdm7FoLVav34PbZzbwZqZ93wkwNEzOwY8k5DZs3nU03n38zASBspL2+p5GvZoVkPd3VsLxM1fQzXIqBxpmy5IBlZtY8M7edeE4uUWE4jToWTqAyu/0ZXQfOC3WaUqBlJRqONTWHtmyZMTSWSP5fgqsnOXggaWzRrGVQDHNUVYgrbVuXrsxY7E7FkwZwm5dRVEkCORa6NR/Igdb7lg7m+MVyIJw5cgafP7yHWs37sP+w2fY+ikTsiBMX7SGXSyKQocyFSqQm38SWQx/dxVK1ASBoOnYbyIuXg1C364t2PQ238kLHz99xZZVM1G98h9m/XdhVF27pgSBFgFi/ZQzTouPIkFQXITjsiCs3bAPVwPvRWtcv+6tULFsMVBgEynKf+GgJDpBcci4yN0KpdJSmt22PX5wWLk5WopuYpxLum7T3yAItJvuYmGHc5dvoneXZnxiIgXFkUIkkzq5AmKzINAu1qSTFZ48i8yOopiF1d77kCplCrlrUzGLgQIqm3QZyS4Hch9UKFM0ToJAxxAfPnERdFZAsSL5YGbaAn5nrsLn2Hn06txMnrVA1hA6kbFLW9qZV4WT2zbce/gUWbJklBMECpKkGASb4T35wDLa5ZNCJz8/WUgpg2nSnJVoVLcy2rWoC9/jF1nJ9urclE+SjPj1C2TWj0sofqOj+UTu37Rx/eW3y76VEfUcBLrh5X9vmViduXADbvY28kwFJYLQ1AJ2Y8xRvVJpHDx2FtMWrOHTEZ3mjOJsCyIIvpvtUbPVIHZZEOlTdAvT2rR9nx9bcGISQRDiGl3tXk8wQWjUeQToeM2o5yDcpzTHtkNwfKcLihfJx74m2rFdUjCvkZ+S/FzHFGIQegyexr6ynR6RUbrEYikymXKbSfLmyo4tq2fK8561C0/CSteUIMhiEIiFz16yDns850drSNC9xxxxrHjUclQXQ1ytr9ykP+9gZLuKuO5PDNc1wZROT2za1Zrz3GfYWKBcQzMmCvVqVOAc9KhzNzH082+3QQqCcPOkF+8eFaX/qDnIlzsHn8CnKBQPQPOe3v2xM1yYvJFULFOUzfakcEhImeXPk52tDO9laY5Okzhwl4TWIrI6Hjt5mf+uV7Mi3B0nIE3qVPx3o04j+CRFsiCQUEomWTsiwiNw9Zg7p0m6rtuFR5e2ygP+6PCsas0scGiTg/xMBzrzgTIXaOdMMnm0OYb16yjf6ZO7ZerCNXDz3M3Xzbu3wrdvP0AxGBd9VvFvFDBMvn1KoyQhIkHWUpk7lcZg8+6jGDXZkc39RCLoBEiKv1Ln8DkiXlWbWWKkpSnMu7eMNrUUCQJZfybNcWPrBLmKKPuD0tSjCgUwkkuF0j6pr9QeW6venFZ6/upNzJ04SB6DQNYT+qaMUQrDeB9oJatviM1iPHzyHAc3ioOS/saakGCCoKtGEzOliagqx1dXbVC3Hk2UGX04hfpJ37OIKnTMNZnJyaz54yd9JOUXBxDJMIkvQVjhsZNPNSMzI52ASUcx64togmnrXuOQ0tiYU2xpx0YYr1y3CzsP+INM2JT6RYuhLPKdFmM6HEdGUvUFGynbKQVBoGPAycoVH3lyZZtSsCC975THoOmXHym1ld4TbX7IicgBpWaTZUPVB9Wo37TBIQUdNb1QERPqK2VtxNRWej44JAwpjY3kczQuTMkVaWY1mwIJ8P7jF2TJnJ4POcqVPUuMBCF9+rQYOckBeXJlx6iBprzjp2weVUJZQRQ/QOepUIxEwbw5uY9E0I6fvsLp2YMUghTjaq/i9QUu3uz6obTM128/clC19aDEnbGmTv/06V69IQj6BKqsrZoos9j6SSZRIgkkFGRHUc+KCygtWHt9T/HOONPvQ15Ulff2/Sf2xdNHnijYSZ9EE0w/fvrCO5yoB8VQv0mRfP32nU+Yo90kkTPCkUgX5bz/q5IQgkCYUtAeuQDJJx2XcH7+P/zV17jw0eQ6pYqTa5ZyEGmzUShfpAJXJRevBXEcRI5sWfgshZJF8yX4Y2X0zpF1mCw46n4ZlU5tJEsGSfq0aVCiaP5//uAyTeaAFM8IgiAFijGUoYky02JzkkTRAlPdDGNCCIJuWihqEQgIBLSNgCAIWkRYKDPpwRWYSo+pqhIFQdANzqIWgUBiRkAQBC2OjlBm0oMrMJUeU0EQdIOpqEUgoG8ICIKgxRETykx6cAWm0mMqCIJuMBW1CAT0DQFBELQ4YkKZSQ+uwFR6TAVB0A2mohaBgL4hIAiCFkdMKDPpwRWYSo+pIAi6wVTUIhDQNwQEQdDiiAllJj24AlPpMRUEQTeYiloEAvqGgCAIWhwxocykB1dgKj2mgiDoBlNRi0BA3xAQBEGLIyaUmfTgCkylx1QQBN1gKmoRCOgbAoIgaHHEhDKTHlyBqfSYCoKgG0xFLQIBfUNAEAQtjphQZtKDKzCVHlNBEHSDqahFIKBvCDBB0LdGi/YKBAQCAgGBgEBAIKBdBIQFQYv4it2u9OAKTKXHVFgQdIOpqEUgoG8ICIKgxRETykx6cAWm0mMqCIJuMBW1CAT0DQFBELQ4YkKZSQ+uwFR6TAVB0A2mohaBgL4hIAiCFkdMKDPpwRWYSo+pIAi6wVTUIhDQNwQEQdDiiAllJj24AlPpMRUEQTeYiloEAvqGgCAIWhwxocykB1dgKj2mgiDoBlNRi0BA3xAQBEGLIyaUmfTgCkylx1QQBN1gKmoRCOgbAoIgaHHEhDKTHlyBqfSYCoKgG0xFLQIBfUNAEAQtjphQZtKDKzCVHlNBEHSDqahFIKBvCAiCoMURE8pMenAFptJjKgiCbjAVtQgE9A0BQRC0OGJCmUkPrsBUekwFQdANpqIWgYC+ISAIghZHLCHK7M27T0ifLjWMUxip3cI7D56iUL5cMDIyVHr2169fePHqLfLkyqZ2mYnlgYRgmlj6oA/toLnify4A9WtW0Li5F68GIWf2zMibO7vGZdCD1JbQ0DCk0OBdSFDF4mGBwD+OgCAIWpwACVFmFUzMsXjGcDSpVxVhYeHYtOtIjC1t2qAasmfNxNd/BoeggokZRgwwxbD+nZSe8drqgwmzV+DeuY0wTpFCiz3XXtEJwXShizd2HvCPs3EndrnAwCB5nPcl5RukIAjlGvRF1/aNYDfaXGOonr98g1Y9x+L1248w794KcyYORLJkyTQuTzyYdBD4+v0H0qZOlXQ6lAh7ojZBePbyNeY7rY+1K2OH9kCBvDkTYXd126SEKDNFgvD123d0+r+9q4CKsmmj1+767O7u7u7u7sYWRAwsLCxQEVsxUFQUuxAVu7u7u1sx/3Mf3HUXFoFll9/VmXM8R3bnnbgz7zx3ntr29kEO3nlkL+TKlkG+P3D0LBp2GII4cWIiapRf2oelM4aht/0UXL52B4kSxtdra7qjNcqWyB++4BjZW1gw7e8wHUdPXcLgPq0N9n71xj2Mcl6I+6fXIFKkSEaO8O94LKwEwX7sbMz32ISCebNqyashZEjE5jkPNAjarv0nYOswA7myZ0DbxtXQrvcYVC1fFBOHd0e8uLEDPbNi7Q7sOnASkSP7rx2JRKF82VCpTCGkSJrIpAtz6vw11GszEPs2zBANybZdR+C7/yQc7bv+tp+sJZqjS+u66NetWaB62/ccw7qte+Fob4XYsfQF35NnL2Vvdm5VB3lyZDTpXAI2NnryIqROmQRtm1QPsp/13vvQe/AUHNg0CymS/R7bHz+A/g6uSJ82BXq017+0GDuR+Us3wt5xDqY5WqNx7fLGNhPsc44u7rJ32jYNjIW372HZb2MGd0XEIEir3+cvyFq8Oeyt28ja6ZZZi9fh/KUbQY4hXpzYGD2oc7BjNGeFUBOEG7cfoO9QF+2YTp+/Rh0g8ubKrP1s0vAeyJIxtTnHbRFtGyPMNvocEI2B3cgZaNWoKvLlyoQ6VUuFaL7PX7xGsRpdUbZEPthYNUP9doPRunFVeYFOnLkM62HTsHCaPV6+eov+I6Zjnfs4YeA0OQQ8kELU4f+hkjGYaoZJguC77wQa1ipncOQPnzyH57qdiiD8VOsba2K4dfchStfpgXIl8iNF0oRB7pITZ6/i0tVbuHtqjV6dF6/eYLrbasx134AubeqAGrJCebPh6KmL6DnQWUxndj1boF71MnraBL4zS722oUj+HNLeh4+fcOX6XUSPHhXrFo9HlgypTLZjT5y5IpqNI95zkSZlUkyduxJz3Nfj/B733/aRpkBDdG9fHwN7tQpUb9p8L4yZvEjaSPhfPL3vr9+6j5K1usFtymDUqFTMZPMw1FDp2t2RO0dGzBjfL8h+1mzeg252k3DMZz5SBWOy3L7nKFp1H4VE/8XDad9FodbOkTiRjGxYMh4Z06WUMZ25cB0uc1eif48WyJopjdnwKN+gN7JlSoOZE2wD9TFltifmLlmPs7sXI2JEwxpHanTTFWyEYf3aoXsAcjTSaSGOnb7kv1c/fMK5Szdkfpq1T5ggHhZMHWS2uYWk4VAThICNlq3XEx8/+eHI1rmB+vv2/btMPFbM6AYB/P79O95/+IRo0aIiapTI4N8sAcFmG5EiRzLKHh8SEMxVxxhhVryGFY9n8JBNkug/xIwRDQc3zw7REOd7bBTtzskdbogVMwYGjJoJMlirNnWxevMefPrkh5EDOok9t2DljujYshb6dG4corb/lErGYKpLEHx2H0XVCkUNTufJ05fYsuOQIghhIAjPXrxG+fq9EDFiBLldch8GVRxdlmDRis24tN9DqtA/Zv22fRgxwU00kPZ926Bw/myo3txWSOzSGcMRNWpk9Bvuii07DyFl0sQYY98FhfNllzOGBIHChEJLc6O7cecBqjezxfv3H3H9qKf2DKGG5MNHP/Fv4LOGzBb+dT7x/hOIQIeUIPBd4/kYO1ZMwcTUBIFjfP/hI6JHi6bVnOjirfk+YsRIcpboFt3zlufE169fZb2CIgjEgiVmjOgIDUGo1dION+88xPOXr4V0NKhZ1uCW4DyouYse7Zf58/v3H9jkcwCd+43HztVTkTVjWiEYnBe/C2gK/Pbtm6xrlMiRED164Pn+ABApYkR8+foVfn5fglx7zQBDQxB08fz06TN+4Ifsq6AIgi4Il67dRrl6vTB/8iDUrFxc+9W3b99l3+juT83cNZ9r6gjR+Ogn9WMEmLumwc+fv4hM4PcaTdvvznazEAQCtXD5FlEB+b+AMUT1Rnukpty5/wjNujrgxq37Qgimj7PGsjU7wMl6uY2Wam/evheWfu3mffmb6sV5zgMCOd/9KcIr4DiMFWYv37xF9hIt4T5jGCqXKSQH36PHz4OcJjfPjAn9BGdqBxLEjyN1/T5/xuAxc+Cx2kdeOrLZMYO7iOrQUm3sxmJKPKhBOHn2ipAkQ+XcxRsYNmG+IghGEgS+63XbDMSx05dRqmgexI0dmBxEihwZLmP6iqAe5bwIHl7bcHG/v8myRC0rPH/+GjSZ1ahcAhpPg5ev38rtmRo1jXmIKncru0k4cuICJo/shcZ1KhgkCGx39uJ1cJjkhpM7FiJp4gTgsx36jJVxsuTImh6Lpw1BqhS/nHdfvX6HJp2G4szF61InQ7oUWLNgLJIm/k/+DglBIIlp33vsT6EaDd6ek1GxYR+TaRDoBNqq+0i8evNO3mcSKqt29bXk6NGTF2jUcQiu3bwnY6DGZfo4G+27X61ZPyRKGA/5c2XGxOnLkD5NChzcPCsQQaAg7jHICWs27fnZTmmUK1kAfYdMDVaDwD2RvVRL9O7USMjb46cvsW/jTO3askFqjJp2GY6zF/yxLlYwJ9ynD0Wc2DFlfnxOU0i0zuxaiFPnrqBB+yHY6TVV1o+F5tXONhOEiLA0qVcRk4Z315pam3QeigNHz2GITTs4TlksgjJd6uTYtW4aogfhkxUaglCv7SDEixsLqVMkxbylG9CoVjlMcuhpNEHgWZ6jdCv07twYg3r/0jht2LYfnW3GY7PHROTJkUlIJzUNC5ZtFpMH5UHnVrUxon8H7WWbJNdt2UY4THTD5y9fxUTHZ0oUzv1b8WkWgjBz4Ro4TFoAq3b1ULJwbixZ5Y0de45joau9ON19/PQZJWtZ4eNHP3RvVx+Ro0SSDfr12zcUzpcNXm5jhLkXqtJJ1FK0yZFh2Y+dgwK5s2Lzsol/KifQG5exwqzHQGd4bdyFvLkyYeOSCXCd54VnPzc9O6D9rULpgkifJrm2P6os+UKxUHPjNGMZ3Dw2CUNePH0IsmVKB9/9x2HVfxKouhrWr70eU7UIQAEYiynnN2WOJzbtOPjbqdJ5c/0ixyBVhpaCU1jHaYwPAp8ZM2URKpUpjBZWI1ClXFGkSZVUO5Q79x5j7ZY9uH7EU/YlLxDevkdwbNs8qfP6zTuJVKAvyJot/sJIUz77fUHkKJHldsSSJkVStGtWHc9fvkH8uLHlNmRIg8C6ugQhTuwYqNCgjwilnh0bIkrkyJju5iWXjl1rXREvTizRZJaq3R0kJt3a1UfUKJEwZrK7aBF2r3MVn4rgCMLuA6fQusdIJE+aCP26NwOFOd9p3vD6dGkcZhMDSUHO0q1RvUJRdGldRzQqsxauxZTRfdC0XkUZe4maVuBNdphtOzx5+gqubl4oX7IAFrsOEQyrNbPBxSu3RVjQxp4udTIxvwXUIND3Y+vOw2hUu7xEtcx2X4e795/IBS44EwNNdvR9ojbp0PHzcoZfPbwckX/6+JCIURa8ePUWg/q0wvdvP0DbfIzoUXFyxwJRwW/cdgCzFq3FiP4dkSFtClQsXRCHjp8TX6vtq6aI/9XFq7dRtYkNMmdMhQ7Na+LsxRtYtGILqlUoivlTBglpIuHj+UFtlF2PFnj4+DnGTVuClMkS4/DWOQZv1KEhCCTHvIDEjBkdPTs0RJ7sGVGkYA6jCQLXiHP8+OkTNntM0r4L1KZcuHxL/F94oSZB4AUwZ9Z0aNO0GrbtOoYN3vswoFdLWHdtKs+tWLcT1kOmomaVEqhYqiCWrvbBqbNXsXvdNGRI62+2MVTMQhC4ESj8y5cqIH1SzVagcgcUyZ9dVCgTZywTAbbJYyIK5skqdahSr9q0H3JlSy8EgUwzX4V2oHMdhSEL7ej36NVcqbh2g4X1IDTn88YIM750ZNxc+P/ix0WxQjnhNmUQnr14JSo1Hk7JctXBusWOwlS58ZP9tPPyZZo8yxMHj50TFVvfrk3QuE55PTXvo6cvMGfxOmGbtB3KTaBL4zCHopkTR922jcH08PELouYNTeGNrHQYQvxC09efWNcYgsB58Kbyyc8POUu3wkIXe5Qpnk87PR7iND9oCILNsGlykPusnKwHwd5Dp8VZz1ChgF29abcIxgUu+o67hggCQ37rthmEt2/fi4lh5KQFcF+5VezZeXP6+03RcZe3aWooZ020xeCxc+DmsVHIOZ0cWSgQKzTsjVaNqmC4bYdgCUKjDkPw+OkLbF42SUvcJ81YBv7jexlWHwRqaAeOnol9G2YiU/qUoGrdZ/cx/JcgrpyzdGj08PLBDq+pWidC95XeQqLO7FqExAnjC0G4euM+9m+cKeGomqJLEHhpy1i4Caza1sOgn869VFPTRPn0+avfEgT6UhWq0lEEMrG89+ApClftnfiPggAAIABJREFUJBo8khoW55nLQd+LrSuckfWn3xrJl/UwF4y06yT+VJt8DqKjtSN2r52GrJnSynP7j5zREoSsGdNI5FaC+HFFppAwcv/SH8V2xHQsn+Mg/jAkCPuOnMVR77naUO8JrkvF34WYGHJ8DS1BuPvgCXasmiJjYfmdD4Lu/g7KxEBNBC/bp30XijzgvBgdVKdaaYnoIcYkCKWL5sHi6UNFM0c50dlmHDZtP4hL+5fik98XkaUkjk4jegoRevvuA8o36CXEgnsoqGIWgsDObt97hFPnroKOc2/ff8SMBWuE/W1ZNglVm9rg9Zv3OLRF37Zeq5WdTJAEgfYoevLTwahRrfIoUSQ3ShbO9Vub5p920BojzFzmrsKx0xdx6tw12Nu0xaTpHujWtr7cEHjr4qGrIQhjp7jLy69xoFm2Zjs2eO9H03oV5NbEFy2oQufFjOlSwWujr7yIxQvn+tPgMzie0GLKF6pxp6FyWwhYqMLjrTWdjiZGU4famK3LnSwCE3MM0liCwLGQjJEguE0drJdHgQSBKnYNQaD63e/LF3jMHB6iKfBW3KzzcESMFAEr5oxE3Dix9J6j8KMQLFE4l6hZSbYvXbuDWDGii+Dg+cO9wHXnzVO30KGXfgrens7IU76tXEB4g9UtFRr0lj7XLnIMliAUrtoZZYvnw6QRPbRNcA/mr9jeJATh1t1HKFO3h8ypXvXSopYnMdD4bzHqiaYFqvY1hU64FIYuY/uiSZ0KQhDixokNz7kj9eapSxAuXLkpGhee2/lzZ9HWGzp+Hua6r/8tQWB/hSt3wuRRvVC3WmnQ/l+/7SCcu3wTVw8uE9+zFlYOuHnnwW/9rIIjCKmSJ5E169ulCWys/G/MmpKhcBPYdm8mDoIkCAeOncPt46u0UUo0X7TvM1bWmtrqgCW0BCF27JhyqdWUsBIEmkvyV+ggIevUCOzYexwtuzkI8cuZNb2WIBDjpnUravs9cvIi6rQegHWLx8meqN3KDl3b1EVqnZwkKzf4gkEGmvfR0EtoFoJAFfiQcXOQMnkSUdlxI5y5cA25s2eUjcYXjWrw3Wtd9cZEFQ3ZDQkCC7UKtFNeuHxTGHzESBEx3dEGtaqUsIhY6NAKMzrylKvfC+d2LxYVJ/Mg8HBLmzoZClTsgBVzHVC2eH4tQeAhWKf1QFw/vAKxdMKiqL25ff8RMqRJge8/fmDz9oMSGkVvaxaqJ+kFTFWdpcWUhxZT3Q1GmyxvVk4OPYU5L1vtg8lzPA062IZIYv3FlUxBEHjbN1S4v7kv6ZTVukk1PfsqhciufScCPcabLG+Vz56/hqujtZjJMmdIrec3QIJAVWqJQrlAIzfNBzmypkP75jWQNJH/DZmHJi8dnnNH6fXRpd94XL5+Fzu9XOQ2yiis1Qv8/Qc0pWaL/uLXs33V1GAJQsYiTcUOPFDHdsw5pMpbP0iCQOHN/cnbrCaviabvsxevo3Jja7kgUG3OQuFG1Tsjy+jgSQG3ym2MeN1XaWyNa7fuCUa6hevasGY5dG1bVwhC4oQJxN6vW3QJArU13Qc4iYmAZERTaDbm7fx3JgZGdjhONRzVsWvNNGTLnFYE17v3H+G7ZlqQb1NwBCF5koTIV7G93I51/dzYYM4yrdG2aTXY9WgpBIHaVd2oGZqCWvUYGSRBoKyiKZdmioBlnIs73Fduw9ndi0QIU37R/4trpClhJQhshxEch09ckAs1CS7N7xqTg0aDQLMRw3k1hdodahpmT7KTMXHuObKk0/Pf417g+b9s1gjRPBkqJicIGkByZ88An5X+LJ0DyV+xA5InTSgEgS8BXwZOmE4iLEx6UbRqZ9k0JAg8KKiv1AgwvgD129vj9t2HOLfH3SDbC3KH/Z++CK0wI5vjS0eVq24ehJNnr6Jmy/6iZqJqUKNBoIqUm2D57BEomNdfFep/cPiHFV3ct0RUXdWa95PMihpNw/I128FYZx5EQYXn/J8gC7bb0GKq2+D0BavFvMJQKxYSBKqTmbdDt9A0xpfpXy6mIAgTh/eQm61uoemGpJ9e8MwUSrIQOfKvjJ+0/6fIU080hYxsCqpQRUqVt24ysKB8EHTb4O2LIYOMDNKcLZxrpUZ9EC1aNHH8ovqcmk+aJOjxril0lCRZp8YjOB8EEv3smdPqhcedv3xTNChBmRio/aN9mZqrfDph4+zfaeZyMNGXxizLMbNo5sAbI53kKCyPb5+P5lYjxLE5oODlxYxmST4XEoLAGyx9HVbNHy2Op5rCcXK8QREEP7/PSFuwkUQ8zHHqr3VKZJRL36HTxGQx3LY9uvSbIH4GJ7a7advmHnjz7gNiRo8mPikagqAhFayoa2LgxSd3ubZo2aAyxurkoaDwZATBqEGd0L5ZTaMIAiMwHjx+Jn4yumcl8a/XdjDobH/cx018Y8xFEHz3n0C7XmNw5dByFKrcCTZWTdC+eU3BS0MQRtp1RKdWtbUY0gehc78J8F3tIs6YNKGtXTQWxQr+0hRLNMSPH3p7POD7ZnKCoNlQZM+jBvoneaAXPe2NVFGRIFCtW7R6F8nmRxUYNQx0Fnn2/BVKFsktBGHrzkPo7zADS2YOR96fiUFYh7GnPFQCJvv5Ew/z0Aoz2o5oWqF6W0MQKpYqhIoNe4sDJzUufLE1BIHx3lRl0lygG67IhS9WvavcnPgi0rO1edcRuHpouTha1WrZH9mypAPzVVhaCS2muvMrXKUTXr99L8RIo0EgQdBl3qzPF61oAf9Y+n+1mIIgBPRB0GDJ0GaaIRh2N2byYtSuWlJLJDQEYbaTHWpW/BXuFXAdarXqj9pVSoWaICxYtgmDx8xGX6umGNCzpTQ7d8kGDBs/D7bdmotD4aoNu9BzkLM48jJnAQvt2YyCoTmO+yM4gtC212js3HcC3iuctWSTan962usSBJpao0WLIvuRYbb01eJtjtk8aUtnoSNmsepdRGCe2LlADvQW3RxArYLv6mlyWSJuWYo3B5PrkCDMXLhWLmKMGGlU2z/vB0N8rYe6YNYEW5QqljdEBIG+UNlLtpAkRzy7KSTp4EmNJi+DGoLAekzoRk0mzTMHj51H/XaDsGHJBHE81xTSmpotbEWDyfBWnvO9Bk+BTdem6N+zhVRbuHyzrMeO1S7InD4VfPYcQ+vuI8UBs1k9fzW6LkGgqr1k7e64c++R1rOf46HPCP1Ldq52kTUIiQaBTp00e1HzzTJl9gqMm7ZUcskwKZOm8ILLS1aVsoWx6KfTZ0gJAsktiTLJk6YE5YPA76kxoKmkUa2y8Nq4G0e3zdP6jGkIAk3zvHAzyoY+f0WqdsaL129Eu0wfhExFm8rZTyJGMxmfq9t2IG7ffYQTOxYEScZNThA4IbJCqrWZwIKxoFQh0YmGcf3cZCxUmTBMhmp1bjomPtl76IzkACBB4DN8KTiRTBlSyaR5w+7Wrp68uJagGg+LMNMQBL5srbuPwhHvOeIRzaIhCEUL5BSnJ6YPpkerbhnptABnzl/HKrfRYnOt0sRGGOTl63fQse84nNq5wKBTzp8uEI3FlASV4UHN61cSz3nisu/QaWViCGLBzUkQtMLixw85uGg37tGhoXysIQjzJg9ErcolgtyO1Zv1Q60qJUNNEHiDHuI4F4s9tyJD2uRyjvAMql25JKY59tXapplUbOW6neKfwsOcCZconMYP6yZhc8ERBGogarceAKaKppqf/hOZ0qXE/qNnJXqCTooUFBTqowZ2QqeWtUXTumD5JgxxnCcCKnXKpJKbgCYECmPu2VJF/G/x1IJQG0H1MW/QbJ+fLZs9AmWK5cPnL19EG0mykzlDKhEAnAOdLqkNCKkGgX0xeVsn63HiyJjov/iCV7mS+SU/gYYgrNm8G93snLS2cbuRMyVi5eyuRXIB1C00GVdo2AcLpg6WJFijpyySCAySAcoC5q6oULoAFrn4R1uQkBSs1FHwyZszk/ifHD9zSS+KgRcr4kENBXNo8CJw78ETzHWyQ+2fieZCQhD62E/BnoOncXKnv/8JHTLb9RkD330nxak7WZKE0sed+4+RKV0KbPSYiDix/KPHQkoQspZgkq/SGD+0W4gIAitpLscVShWEx6xfPjsaglAob1YhQ4waoiP602evJF1AyZ/75eqNu2Ki4uWTfmucw9NnL+E5b1QgLZ/uWoWZIJBZM66yfbMa2nZ5O+DGpDDiRm/eoDL2HDwli8+XjJuddvLYsWPIS8JB015IgOlJqgnDISNdud4XdMgh+6EGwpLs5sYKMwKpIQhZ0qfGEi9vDOrdWtK50tFp4OhZ8F3jguyZ0+HBo6cY7+oBqnOpUiQxYKFaiTeNgMkw6DXOiAiGO0mJAEwe1Vu7yf9GgjB+2hJMnu0pGi16oRO/tZv3IHWqpHj69KXcJrkHo0aOLKYtklmye77E/2oJC0Hg3stRqqVoYZiUKigz1v0HTyX0lE5/GlOEhiAkSZxAe4M2tAYUdvyNB10TA2/sdHhjmNvvLhAcHxNiMSSNJWe29KhdpaRechnuARJvvi8cE9M9M6OpJokPIxRoqqOqlzcypvBmexrvfLbLiCuSDNqDab9vVr+S3I6Zfrp4oVyi2WvWZbhWqGrmyYyRG7ftx4PHLxApYgQJP2zRoIpeyCjrMhyU6X45FvosMCKJpl1NYWK0dd77JENflMhRxA+pZqXiWjs0xx8zZgzUqVpSD2JGebA9RnVoCsfKM5yWjbLF8yJZ0kTw3nkIHVrWkrNjwMiZWOS5RevwNm/JBll3ajENrQU1HHlzZpQ4fF7+Nm4/IGF3NCnkypoBtauW0Ns3XG86anMtGELIXBarNviiZaMqQlpYiDOJCsNp+f4ygoYaaU3/NGuRNPTScdykoF+3Za9ohZg8qE6bgYL5moWO2rlTvlFlT3L36tU7MFS2QJ6sEhKqm4GW4+H+IHHVFGoyXOevkrFQfpHIZS/ZEnOdB8ie0xSSIHfPrfKsJluk7qLQ4Z9mAl2SyO81BIGkgTKVEYSUpVXKFUGRAtn11vXS1dsS2cC+kiRMIBk5A/qoBHzXwkwQjDlAyb4ZsdCmSTVx5KF3/qHjF0Stx9SZlpbdLygMwkIQ6D3rYNdR6wVO8wMTfbx4+QaZ0qfCHCe7QN2SPDAHRWiLXc+Wf3WqZcbbJ4gXR+trQBJw6Nh5+Ow+Ikm4Pn78hC9fv4kZhzhTOGbLlFa8r//VEhaCQMwYukYtIgVtUEXMZUkSYvbE/uI4yEL8MxdrJlk+A9rhdduZ6OohprUOLfxtsZZYxrkswcIVm3F+75Lf2oEtYW4MX+TtPqjf1bCEOXCMktSpcyOJHDNH2bnvuERuGEqnbag/EgCa7Zm/hhp0mkd1SYmGINAPTTek2FRj/78QBA6eKl8mQyHrYSF7q1KuMKaP72cROQ5CsgBhIQghaf9frKMwDZ9VDytBCJ9RWnYvTCFN+3xQmT0tZXYax3RdTZCljF13nPT1yFWmtZhNUgbzA1TGzo+p8BlJQaxCUtxXecvv5lA+LnK1F/ORbiFBSF+osZgdzJG35f9GEDQJVeikQxUTU37SVhXUr2KFBMw/rY4SZqZfEYWp6TE11KIiCObHmXZyZgzU/dVV8/dq+h64VzgXmlos+fym9urNu/e/NW2FFT2G/vKHH4P6rYSA7dOhnzIycaL4QT6j+S0Oc6TP/78RhLACbQnPK2Fm+lVSmJoeU0UQwgdT1YtCwNIQUATBjCumhJnpwVWYmh5TRRDCB1PVi0LA0hBQBMGMK6aEmenBVZiaHlNFEMIHU9WLQsDSEFAEwYwrpoSZ6cFVmJoeU0UQwgdT1YtCwNIQUATBjCumhJnpwVWYmh5TRRDCB1PVi0LA0hBQBMGMK6aEmenBVZiaHlNFEMIHU9WLQsDSEFAEwYwrpoSZ6cFVmJoeU0UQwgdT1YtCwNIQUATBjCumhJnpwVWYmh5TRRDCB1PVi0LA0hBQBMGMK6aEmenBVZiaHlNFEMIHU9WLQsDSEBCCUKpIbksbt0WMd9+Rs1DYmnapFKamxTOo1vg78QeOnlP7N3zgVr0oBP5IBIQg/JEjU4NSCCgEFAIKAYWAQuD/hoAyMZgReqUONz24ClPTY6pMDOGDqepFIWBpCCiCYMYVU8LM9OAqTE2PqSII4YOp6kUhYGkIKIJgxhVTwsz04CpMTY+pIgjhg6nqRSFgaQgogmDGFVPCzPTgKkxNj6kiCOGDqepFIWBpCCiCYMYVU8LM9OAqTE2PqSII4YOp6kUhYGkIKIJgxhVTwsz04CpMTY+pIgjhg6nqRSFgaQgogmDGFVPCzPTgKkxNj6kiCOGDqepFIWBpCCiCYMYVU8LM9OAqTE2PqSII4YOp6kUhYGkIKIJgxhVTwsz04CpMTY+pIgjhg6nqRSFgaQgogmDGFVPCzPTgKkxNj6kiCOGDqepFIWBpCCiCYMYVU8LM9OAqTE2PqSII4YOp6kUhYGkIKIJgxhULizDz8/uMHz+C+ZmMCBEQPVpUvRkcOHoWO/edwBDrtvL52Ys3sN57Hwb1boUvX77h4yc/vfqRI0dC7FgxzIiCaZsOC6Zv3r7H67fvgx1QquRJECFCsNX+6grce3sPn0GZYnmNmufFq7dw8uxVNKtXEREjRpQ2vH0P49K1O+jTubFRbaqHAiPw/ft3hObHdCJEiICIBjb3h49+OHjsHPLnyoz/EsSVju7cf4wpsz0xelAXxIwRLVDnn/w+AwbOqGjRooI/9vXl8xe9Z9g3v1PFchAwiiB846bU2Rg8AAxtOsuBwTwjDYswK1W7O67dvPfbgfGlPb93CWJE//Xyzl2yAbMXrcMxn3ny7MZtB2DvOBvHt7thzuJ1GOm0MFCbj86tNw8AZmg1LJj2d5iOZWu2I26cWAZH9uXLV7x99wH3T69BpEiRzDB6y2kyLASBJLRAxQ4oVSwP5kyyAwUDy6Hj59GgvT32rp+OjOlSGgXGnoOnEDNmdBTKmw2fP3/BklXeqFKuCFKlSBKi9nbtP4n48WIjX67MBuufu3QT12/dR60qJRDpJ7EJUcP/p0pl6/bE5et3Qtx71fJFsGjaEKm/fO0OnL98EyRz+w6dQbRoUTBtjDXqVCsl3588ewW1WtnJGRM/buxAfRSq0hH3HjwN9PmFvUtw7tINNOk8TO+7TOlTYd+GGfJZdzsn+H3RJxDBTSJVssRwGNAxuGrqexMiYBRBqNzYGmcvXtcOgwQhS8bU6N6+AWpULBbqG+m1m/cRI3pUpEye2IRT+/83FRZhRoLAQ6pJnQoGJ3Lk5EUMGjML5/cs0bJ7Cj/roS5BTnxYv3ZYucEXaxeOkzrevkfQ234y/iWCcPXGPayYO9IgRifOXEb9doMVQQAvhsZpEEiyxk51x4Llm3Bk61whY/xMUyo26oPaVUqib5cm2s+iRIkcSBMW1Cau1qwfUqdMgrlOA4RAl67THd3a1scw2/YheuHL1++F/LmzwHlkL4P1hzjOxbylG3Dr2CpEj/7n33ZJEOrXLIM6VUvh5p2HcvYmThjf4NxGTlqAH/ihJQhNOw/Dy9dvwXeiVaMqGDmgs2jOnr14LeTr8dMXQhC2r5qKdVv2wrZ7c1DjqCkkCPZ92wpBY/nk54ecpVtDQxA624yHz6op4Pqu2bwHHl4+WoIwYPRMfP36Ldg1O3nmCu4/eopaVUqKfLDp2jTYZ1QF0yEQJoIgL+UPyEZy89iIL1+/IXnShNi7fkaISQIPouS566JQ/mzY6D7BdDP7A1oKK0Fo16wGOrWsZXAmew6dQtteY/QIwouXbzB13kosWemN1QvGyHNUE0+fvxprFo7Fzn3Hsc57H7yXO8t3G332o5P1+H+KIPDGGSGCv8o7cPmB799/KIIQBoLQY5Az1m7ei22ezsiZNT36DnWB57odWqiJL4WQRqvAL7jPxw7uGqI3Vpcg8Ozw3XccxQvn1tOi/a6hv5EgdG1bV0w5KfPWw3DbjrBqW9cgBLw8vHj1RksQNJWqN7dFo1rl0PHnWdPbfoqc6QN7tRKCcG63O8rW6ymkrkOLmnoEYdSATqhesfhPgvAZ6Qo20hKELrYTccZ3IaJGjQKP1T6YsWCNliCEaLEBOM9aga07D8t+UiX8ETCaINx/+BQX9i3RefG/i42xfR9HVKtQFAtd7PVm8+HjJ2H8ObKk17JQvuD8PGORpsibKxPWuI2VzaTLUp8+f4WHj58jXepkQaqGwx+2kPUY3gSBo6KJYeocTyx29Vcj7jt8BvM9NmpNDEu8fODs0FO+o81x/LSl/xRBoAp52ti+BheQalGr/pMUQTCSIHjvOoK+Q6bCy20McmRJB5p0GtUur3dZ6DHAGenSJEP/Hi20a5Dov/hImjiB9m+eC7wNk0ikT5NCb60CEgSaM+iHo/Fz0FS+cuOuaNboT6JbDBEEtkETKe3juhqE7z++ix0+W6a0BvfL27cfcP3WPSRLmhDJkiTUq/Pp02dEihRRbs+a8uXrV3z7+j2QZuLu/ceisUmTKpnBfp48eylnYIZ0KRAnVky9OsvXbEeenJnwX/w4yFehvZyTcWLr1+EDDWuVR7ZMafD23XvUrupvQqAG8t2HT/DZdQRpUyVDlkxpYNO1Cbr0m4BKZQqjSrnCWhPD5u0H5aw4tm2edk7UILx5+wHRokaR9jgHah80GoTgCAK1F/cePAk0Z65n5gyp5XNFEEIma8xVy2QEQTPAbnaTsNX3MM7vcUfMGNFlw3S1nYD9R85q51C6WF7MdbLDqzfvUax6F7259enSRBzq/Py+oFWPkfIcHXFIHOpWK4Wpo/siYkTL8CD7fxGEoePmIkNa/4P1/YdPfHX1fBCSJv5Pvnv95h3oaPQvmRg2+RxE4fzZDL5PL16+xdFTFxVBMJIgcD/x5pklYxqMdFqARZ5b5caYXEd48rZKQTV5VG+Da0C7dyeb8eAFhIX+Al3b1IX1T9WyLkF4/vIN8lVoJ5eRiqULSn36KHQf4CTnDkuSRAlgY9UM7ZpVl791CQId6YaMnYOFyzdjmqM1GtYqpyUI9WuUxSafA/j85YsI5XHDuqFhzbLSht/nL+g50Fk0cBpXLPo0LJs1Agnix5E6vHEXzpcdk0b00M7TZpgLdh04hRPb3eQzqt0dJi3AoyfP5e+ECeJh3FArMcGw0Km2Tc/R4rvBEjVKFJnHyAGdAmF39ORF1G8/GL06NdIKbN1KeXNkQvlSBfSesxk2DW/ff8AG7/2gf0CubOnRokEVtOg2AusXjxMtj8YHgaSjWtN+yJ09g9Y8Q4LQoXlNlCqaR9rlWVKn9cAQEwTOn/KC89aUd+8/CFHx8ZwsHymCYPA1CbcPTU4Qtuw4hPZ9xopKu3ihXOgx0Bk+u49iwvDuKFYgB46euoSegyZjpF1HsXuRGReq0knUkbz10mZJpztunA3b9mPK6D4omCcLNmw7gInTPeSFa9mwSrgBFJaOwkoQ0qZKioJ5DQuz23cfYf22fXomBo41OCfFf9nEsPvgKXHI+l2JHDkyOjavqacCD8sesNRnjfVB4Hz5jtdvNwgzxvcT27hu+R1BuHX3Iao27SdCduLwHogTOwbmLdmAVRt2YaeXC3JkTYffEQRqgCo16ov8uTNjpF0nWcNp872w68BJnN65APHjxdEShAnDumPC9KWYNs8Lsybaom610jJMjQahYulCGNynNRAB6GM/VZzu6KyXMEFcjHJagDlLNmCYbQdUKl1Qvhs0ehaSJk6IHV5TpB36BhTOH5gg+B44hZPb3SSaKG+5tiiULzsmj+qFDx8+oc9QFxw5cQFXDy1H7NgxYWU7AT57jskZmCNzWnht3IXJsz0xon8HWLWtp4crb/dLvbbh5I4ForkIaWHEUwurEejdqREG922DbgMm4dzFm9izzhWnzl3Vc1KkQGdUw+51rtI8CUJYTAxsb9KMZdi/caZ2uO4rt2LxSm9FEEK6gGauZ3KCcObCNVRpYgNXRxs0ql0u0PB58BSp1hklCufG1NF9RC0lPgj5smHjEn8fBHoRl6zVTZhqiwaVtW3Uam2Hq9fu4tIBD4s4wMNKEGh+SfTfL3atC+bb9x/l5qHrpKghCNQgUO3IIlqCT35aDcK/SBBc5q4S22toCtWcA3u3Cs0jf1VdYwkCTVqNOvqbt/iexogWFU+evdJi0673GFGVD7P56VQYAaJhoFnRaeZyuMxdiXN73LVqct5KR09ehNzZM6Jp3Qq/JQjDJ8yTKJULe5dqzZRc94kzlqFGheIoXSyPEITcOTIiferkcJ69AktnDEOZ4vm049MQhKPe88QZkkVDPHavdRVHuUxFm6JCqQLwmDVC+9zqTbtFc3HcZ77UCY4gUDuQp3xbdG5VG327NEWsmNH19s9VOmDW7g5767bo1bGhHn637jzErrX+QpqFGtYClTqKSUXjMGhoM9L8QH8P3dKhjyM27zgo5pW1C8fKHKixYT3dKIaPH/0wfKIbXB2tEfWn2YQE4enz13oOpjxvQmpiUAThzz8yTE4QaBJo2MEeHrOGo0KpguL0RQZPr+bzl27iwaNngkqDmmXlhmGIIBw8ek7UZbxJ6IZPUqXIcnH/UiSI56/K+5NLWAlCaJ0UiQU1CMPGz8Oy2f6H1+ETF+DhtU0IwqTpHli2ejva/3Q0unz1NtZs2ftXmxi4v4aMm4vnL15LvDg9pymMaKS6fP0ubty6j+oViwXaRgylc3Yw7On+J+85U43NGIJw+vw1EeAZ0qYU2zwJwqWrd9Cowy9/JIZIs2hDCCNAbpC0gdM5jup0Rj8EVX6nQWBY3e27D3Foy5wgLxAkCBev3pbm69cog5kTbPW60hCEm8dWah0fae6gltN7hbPczis27AMnh556msxLV2+jXP1e2otRcASBQr1hhyEyX2JdoXRBDOzVErmyZRB/Ctr8O/R1lP50Qwx5BtJEeNr3V7gyfRTsRvqHDwZVLly5hYxpU2rPBdZjJBT73yqWAAAgAElEQVQjGdKlSY6ShXPBbdkmrF88HrmyZxChzzwWtVr1F81Jv2GuuPvgMbb9VP3zeRKE5g0qo1jBnNpuaf0tVjA39h46heB8EBRBMNXbar52TE4QaHuktypZJBNuNO44BPuOnJVDuGiB7EicMAGGT5gP+iEERRAOHD2HBu0HY6hNW8TTib/lS8WXh7ZC3dh/88ETtpbDmyA8ff4SU+aslJAkDUHYe+g0XOevFsLGmxgPMo3Z4sGTZzh7/vpfTRB0V5ACrHnXETi5w01uTMtW+2DyHM/fCqSw7QDLfdoYgkC1ucfq7XK7Ll6jqxCEWDGi49Wbd1ogqM6mvVvXjv5f/LgiCPsMmQpeDo54G0cQmnYZJs6Nh0NAEEoWySNOupuWTpCwR00xFOZoiCAE1G4yAVS5ej3lhk3HTEMEodfgyXIW0sTA8u3bN1y/9QCrNvhi6WofMAopRbJEkifCd98JdLQeh54dGopTp6bwDIwRIzoa1y4fqs1lO2I6nr14pXUe5/oWqNQBrRpVxfY9x8S/IkaMaNh94BTmONlJ21xPnhck1nXbDITblEGoXLawtl9dEwNDWVv3HCVnOteTviAhIQgkhWVL/NLg0GkxSpQoysQQqtU1X2WTEgR6/JLhp0mZFFuXO8mos5VsiZYNKmNov3byNzd43vLtAhGErJnSgCo8livX76JM3R6YOqYPmtatqJ09Ve70Dk6QIK7cAP/0Et4EYdCY2ViwbFOQsGTLnFacuYba+K/FvxbmSHwYFscbJgsJgq3DdLm16RZrq6aoVr7on769zDo+YwiCZkC37z1C0WpdhCAETLDzOx+EqXNXYvKsFTixw02EDAsdAmctWovsmdOJV/3vNAi8eDCcjg7SdGpmocp7nsdGVCxVUJIjUYPAG/KYQV1QoUEfyQPAEDpN4qbgCEL6NMmRuVgzufF7zByuXQONiYHkhucfzaz0IZrrPEBbp2mX4WB0BQmCJoKLwp5aUuYdWLxyq/hA+K72z2VSvkFvMHcJ88toCs9A1qU/BXPRjJm8+Lf7gFEUMyfaotegyXKpogBnYYbVjtaO2L5yCjguTZgjfSGoPdNdS2pMypXIL3PRDU/VJQhcp7zl26Jlgypy1gckCO4rvTF78Tq9MEdqEBjp0q6pvwOpptBE0765fzilclI062sebONGEwT6CSyf4yAe8u/ef8Kpc1cwx309vn37jiUzhqFogRzSef6K7SVMaIhNW0SJHBkzF60RNbfGxMA6OUq3EvbMBDZ5cmRE7Jgx0NzKAfsOn5YNXSBPFty4/UA8hxMnSiAOS6FxxAkWBTNVCG+CwGmQQHXtPxEOdh3x6PEzyXvgaG8lxCxP+XYYM6iz1iHrXyIIdx88QYX6vUXguE0dhEplCglBGD1lcaAY/EJ5s/51SbtCu8X/HwSB73itlnbifzBldG/RHi5asQXunluxdYWznA2/IwgUejWa90PeXP5OiiIcF67Bpu0HRShTo6kbxcCIC/o6MZRy1fxR0l9wBIFjoAmPkQ+MbCiaPweu374P2+HTkShhfOz0mipQ09fi8PELmO3UXzQmu/efwuCxsxE/fhwZy4PHz1Ckame0blwN3dvXR+RIETFx+jIhOKd2LhAzAs/AY6cuYtpYa4kwoEls4OiZ8t2mpRPFV4t5PX5XmBG0X7dmkjOFJMjR/le+iWu37iFTulQImAeB7fEcZ4p2anXKFs+L6eP6BQoz1xCEahWK4eadBxjptAhbdx4SM8Sr129Fg7B77TQ4urjj8PGLSJwwHta7j9cOl87r0xesxtqFjkFOQRGE0L65pq1vNEHQzaRIVslwJNoexw/tJptZU5iVbKKrh+TAp3kgb86MePDoOUoVyYPp422k2qbtB2DnMAO0r2nCHOmcxKx2Z85fA+2WJAR0VPKcNwpxDcT5mhYW07QWVoIgToqJDGdFe/fug0SA6DopEqdxU93hvmobDm2ZjUePX6BGC1v079EcX79+lxf14KZZSJvaX2XptWkXGJf+t4c5MnSK4Vefv3zFcNt2aNfbEROHd8eLV2+x2HOLMjEY2O4mIQj7lwbKvV+v7SBkzpBKohR0i8ZkePLcFbTvPRaPnryQr/mut25STav1qi6ZFJOKGtxgmOOhU+jWf5J8x0JNRI+ODdDj5y28fP3eEuWgyaTI1MsU5szdMmtif9DBl348t46v0jrf0cRQuEonbPV0Rp7sGeUGT4Hru/+EdgrZs6TDmgVj5GbPQrJDk8fd+/5x/qmSJ5YkcvcfP8MJHzch7NRoUfPA9N4sCf+LJyHeLRtVFQ0phWz99va4eMU/8obh3XlyZMLSmcMlmiKkhWtJLUC9GmUkWiFg0SUINCtcvnYXzrOWYcfe46hcprBoDnTzOfB5OlnSjMRojys37uD0+esSWs3fdCicL5tEqGlMDIxaixUrOjo0ryVhkqEpo5wXYe/h09i2QiVKCg1upqprFEEwpvM79x4jfvzYiBvbcB58tskXhXawyDp58LkRHz19IWq7gD9MZMw4wvOZsBIE3jyKFvTXxAQs12/eFwGvSxAYFtrVdiK8VzgJmWJh2NCAUTMlXrtnhwbiFb1y/U6s37Yf23cfQ8Z0KbBvw68wo/DEx5i+Qosp512lSV+5fa12GyPRMvuPnkGHPuPw/v1HfP32TfL481bGvcfDlPbUJAnjY97kgcYM8a94xhQE4cCmWShR0ypEeNw+4aUXv0+hzAsFhaoxhWYO5mEJKu2wMW0GfIZEgT4PSRInCNJpmv4XPNe4x4Iyi1KbwMgAJowyVPj8wyfPQ3UGkqBQrc913LbrCIjHynmjUaJwriAJAsmNzfBp+Pr1q7wPdODUaIIDPsRcN11sxss7U75kQQyxbiNz5MXR1mGGEB0mHdNkUgwN3tSK0Lma5z1TwzNU1mWM4eRmoWlX1Q09AuFGEEI/NMt/IrTCTHfGFOp07KTtz1Chn4bLvJVwcuilPViZqZJRJG2aVNPaCqmJOXvhuiSv6tK6rmSsYzTJinU75HbXsUXNQFng/mTkjcH06MkLYH4DXWc03pTevf8IZupkZA3//+HjR/nFS6pXeUDWrOyfQvZfLGEhCIwYGTHJDY5DrMB8HcEVagezZkz7z/+CZnA4heb7l6/eiikkQsQIkpWweoWiYmLQ9SHQtDdiopv4VBTMk1X8BJrUKY8kif/ThjMa6pf7g/4bsWPFDFSPkUJXb9yF88zlmDHRVkzLoSnUXDBJFQtJR/tmNbQJqELTjqobdgQUQQg7hkG2YIwwM+Nw/oqmFabhs4xhIQjhM0LVi0JAIWBuBBRBMCPCSpiZHlyFqekxDeqGyB/6KlMsb/h0qHpRCCgE/jgEFEEw45IoYWZ6cBWmpsdUEYTwwVT1ohCwNAQUQTDjiilhZnpwFaamx1QRhPDBVPWiELA0BBRBMOOKKWFmenAVpqbHVBGE8MFU9aIQsDQEFEEw44opYWZ6cBWmpsdUEYTwwVT1ohCwNAQUQTDjiilhZnpwFaamx1QRhPDBVPWiELA0BBRBMOOKKWFmenAVpqbHVBGE8MFU9aIQsDQEFEEw44opYWZ6cBWmpsdUEYTwwVT1ohCwNAQUQTDjiilhZnpwFaamx1QRhPDBVPWiELA0BBRBMOOKKWFmenAVpqbHVBGE8MFU9aIQsDQEhCAkS2LcD6JY2mTDe7yPnjy3qN85CG98jOlPYWoMasY880N+UVGdDcZgp55RCPwdCAhBSGHkL6b9HRCYbxYPHj+Hwta0+CpMTYtnUK39AOTnxNX+DR+8VS8KgT8RAWViMOOqKHW46cFVmJoeU2ViCB9MVS8KAUtDQBEEM66YEmamB1dhanpMFUEIH0xVLwoBS0NAEQQzrpgSZqYHV2FqekwVQQgfTFUvCgFLQ0ARBDOumBJmpgdXYWp6TBVBCB9MVS8KAUtDQBEEM66YEmamB1dhanpMFUEIH0xVLwoBS0NAEQQzrpgSZqYHV2FqekwVQQgfTFUvCgFLQ0ARBDOumBJmpgdXYWp6TBVBCB9MVS8KAUtDQBEEM66YEmamB1dhanpMFUEIH0xVLwoBS0NAEQQzrpgSZqYHV2FqekwVQQgfTFUvCgFLQ0ARBDOumBJmpgdXYWp6TBVBCB9MVS8KAUtDQBEEM66YEmamB1dhanpMzU0QPn/+AqZujhY1SpgH//XrN/zAD0SJHDnMbYWmgVdv3iF2zBiIGDECvv/4gciRIoXm8VDV/fDxE2LGiK73zPfv3+H3+QtiRI8WqrZCWvnbt+/45PcZsWLq9xvS51W9vxMBRRDMuK5KmJkeXGMw/fbtGx4/ewmRUiEscWLHBP/9q+XHjx/Ye/gMyhTLG2YIRkycj62+R3Bw0yxEiBAhyPbY55cvXwN9HyFiBC0haNnNAfHjxsb08f2CbOfYqUsiTEsWyS11xk5djBVrd+C07yKj5kKBnbN0ayyYOhinzl/FybNXMNdpAKIGIDwU4hEiRoTuDItW74I+nRujRYPK2r4piElwIkWKGGg8Kzf4otegyTjmMx+pkifWfj978TpMnO6Bo97zkCB+nADkgZTp1+Zm/xEjBm5714GT6GM/xSAOTboMw917j7F3/XREjhwZr9+8wye/LwbxIomIHSuGUViqhywLAaMIAl8+/PiBaNGiBpotmejnL6Zhuk6zlsNrwy4c2DTr/4JqJ+tx+C9BXEwY1t2o/o0RZkZ19A89ZAymN+88QMla3UKFUo+ODWHfp02onvmbKpuKIFC4ZinWHGPtu6JNk2q/hejG7fuo0sQmUJ1SRfNgoYu9fB4cQeC4MxZpguKFcmPpzGHyzJjJi+G+aisu7fcwaok+fvJDztKtMHuSHfLnzoIaLWwRLWpU7FnnqiU81JLUazcIlcsUgbVVE20/WYs3R+/OjdGjQwPtZ3yeRMhn5ZRA4+H4S9S0QqWyhTBqQGft9zlKt0LnVrVh3bVpoGdaWDng2OlL2s+zZUmL9YvGBaq3a/9JdBswCRf3LQ303c07D6Vfl7F90bh2ebTuPhI79580iBcJj13PFkZhqR6yLASMIgg8bN9/+IRTOxcEmu2yNdthPdQF14+sQKyYYWOZdiNnYLHnVjw8ux6/uXhox8CXq9fgKShbIp9s8rCWas36IVHC+FgyfahRTRkjzIzq6B96yBhMqUF4/vJNIJSGjZ8Hb98jWLNwLFIkS6T3PVW8//ItKSwEwXPdDtiNnCl4Uh1P4Rk5cqRAanlifGHfEi3uJBNHT/0SdJoveGPOkz1jiAjC02cvkbdCe8yc0A91q5UOFUG4fus+xk5ZHGif0Kyxfc8x5M6RESmTJZKfwb549TbKlcyP0QM7a/fOklXe6O8wA9tXTUHOrOmlnYAEYfnaHbAd4SqXnjQpk0qdbv0nYe/h09p+X795D+IfP15sLYYvXr4RjZbWTBMhAtYvHocMaVOgbpuBSJ0yCepULYUde4/j0PHz2LFqKr59/643l90HT4l24swuf00K2+LarNmyB/Wql4Hr/NVwmeuJnatdkPC/ePJdwNKhjyNKFcuLgb1a/kOnzr87VaMIQvGaVvj40c8wQVjtA+th03DtyAqx2YWlhJYgUMWXIk89tGteA+PsrcLStTyrCEKYITR5A8YQhICD4I2wv8N0rN60GxVKFcQQ67ZwdfPCUJt2SJr4P5OP2RIbDAtB8Fi9DTbDXP1v2BENmxQuXL6FvkNdcPPoyhDBM3jsbFy5fhfnL98UopE1Uxrtc3Oc7PBf/Ljy97ZdR9Cm5+gQtUkCeOmAh5a4HDx2Do07DUX9GmWE0GjK9+8/4LVxF/LmzIQsGVPrtT2gZ0skS5JQPvv85asI6xcvX4uQ5QVJlyDcuf8Y1Zvbolr5InBy6KVt5+KVW3j15n2Ixvz121chKKlTJEG+XJkRPVpU6bNi6YKiqVi4fDMWLN+Mwvmyg4Tld4WXuC9fviFbyRY4tXMhkiX5T8gFnzVk/mBbDdrbo0iBHIoghGi1LL+S2QnC6XNXcfbSTdSrXhpbdh7C5Wt3hIXXqFQ80GHss/soWD9WrBgoV7IA3Dw2wn2lt1aDwEPr5LmrOHX2Kp6/eo3M6VMLi6dN8smzl/D2PSwMvlihnGhYsxxqVy0p37GcOncV+46cwfv3n5A9S1p5oXQ1HCQ83rsOy/iSJvkP1coXRbveY5UG4Q/b42EhCH5+n7Ft91EMGjMbyZMmRMQIEZAkUQIM69ce1kOn4tjpyxg/rBua1asoKuR/uZiCIDw4s9agLZy4nj5/TVTyISUItM3fuPUAazbvQbRoUVCjYnG8ffcB8z02ykWFxO7V67coV7+XvLOujtZa9f/sReuEDHp7OustKf0AeAPXFBKE1j1GiY1e11mPBCFriebo1q4ebKyagRqFW/ceIVO6lNpniRc/f/P2PTb6HECz+pVkf9E00KN9AzExvHz9FnPc18O6axNEjxZNTwgv9dqGA0fPBdpy08f5m1zevf8oGq1bdx+hWPUueHRuvbauIYKwdpEjPnz4pNce350RE92w02uqfE6tGbUVugSh7xAXPHz8LNA4Rg/ugszpUymC8I8dCmYnCGOnusNl7kpUKFUAp89flxfv0dMXckD7eE5G3Dix6M6AafNXiXovccL4ovp69vINCubOgv1Hz2oJgtem3eg50FnqUD359PkreWlO7nDD6QvXYdV/Im7ffSSfJfovHjxmjZADgMSDtwp+xrbpsFa5TCHMdR6ASJEiiTqP3+/cdwJJEsWX8Tz+OcYcWdMrE8Mf9FIYQxB4aB8+cQHDJ8zH46cv0bhueYwZ2AX9HVzx9PlruE8fKnvAZd4qTJ61AkUL5sSsibZIEE/fGewPgsHsQzEFQcifJ4uew57uoCnw7j54okcQps1bhSMnLhicG23jCeLHRaOOQ5AxXQqMH9odDx49Q6EqneT9F6I3fp6YJGm20CX/IfVBIEFo1X2UOFPG/OnNz5s0IwfKN+iN/Lkzw9mhl5CbWi374/rRlYgaxT+agiaH8vV/aQWCW6B0qZPh0JY52mo9BznjyImLqFy2kHz28s07rN64W4jA1Rt3UbpOD9w+4YWHj58bJAj0jWjbtBo81/ti8/aD2L3WVczAHDsjL1gM+SC8ev1OjyDQD6Fw/uwoVjCHPENyRFxXzh+NArmzKIIQ3ML+Zd+HG0GgR/HKeaOE1V+9eQ9l6vRA/ZplMXN8P7x++x7ZS7YU1d60sX2lzomzV1CrpZ0c3PRB8Pv8WTyJc2ZLj9VuY4R9U5tQo7kttnlORp4cGUEHyZR566Fds+pwtLeSdp49f4U85dqK/XDLskny2Xrv/ehqOwGD+rQWD2PeLroPcBLHm75d/J2Axk1bIsSmUtnCiiD8QZs+tASB+4c3rtv3HqNjy5oY0b8TovxUH9sMc9ESBM0UKbQqN7ZGvDixcHjrrwP8D4IgXIZiCoIwaUTPIDUIVLfPXrxWjyC4r9yKS1dvY77HJqRLkxwVSxXQznVAr1ZymajVyg7FC+WCfd82uP/oGQpX6YiTOxaK6aGF1Qj07NhQTEa6JTQEoX67wXo3+wJ5smKD+3gxSZ29eB1blzvDacYyEcSHtszWailotqL2MSSFWoT9R87oRROQIPh9+YK5kwZIEzduPxCnQRKES9duo1y9Xr8lCCTAPNu4bjS/eC93QsaizWDbrRmsrfzPtJAShH7dmqFhrXI/CcJ35CrbBktmDFMEISSL+5fVCTeCsNljIviyaUrbXqNx78FT7PCaii07DqJ9H0fs2zATmdL7q+3IXPOWbytagqCcFGlWoPAfadcRXdrUhSEfBKog7cfOwcHNs5E+TXJt/1Wb2eC/eHGxbPYItOjmgP2Hz+Da4RWI8vNGwBetYOWOUBqEP2vHh5YgcPTcJ1T3UvWsWwwRBH7/7MUrUb1m1FEh/1komH80piAIxpgY6KiYqWgzLJ4+BGWK5cOtuw+RJcMvuz9v8nWrlULfLk1w78ETFK7aWZzuqDFYsHwT2japhlUbdukBtHnHIVA7MGpAJ73PeWkoqHMmUcXfqrsDPOeOQvTo0eC2bBOu3byL9YvHw3ffCbTs7oCzuxajWI2u6NetOaza1jVqIRwmLcDqTbsCEYSN2w6IHwDLl6/fcP/h0xAThKIFc6B7uwbwWO2DFet2iAaB2pSh4+eJhoU+GiElCHRu1Ph0cB+cu3QD693HK4Jg1Gpb9kNGEwTat077Lgw0+2UBnBQ1Joabx1bqJfmgLWzBsk3CisnO6Wtw9dByvdjzzjbjsWHbfi1BOHrqIia4euDKjbt4/Zpxup+l/+G2HcQ+aIggDB47R3wZ6MyjW/gstRE0c+Qp3w6Z0qXA2gChQZUa9UWypAmVBuEP2uPGEAQOn4LHeZan3kwePXkuduNUKZLofd60bgVkzpDqD5p1+A/FFATB3w8gcDw+Z3P77kNMc/MK5INADQI1OCd2uGHWorXile+7epo2iilzsWaYNbG/+BBR21Okamec3b1YzIcsvFBQk/Dj+6+8AA+ePMfLV2+RM0s6PSBbNa6Kds1qaD+jZtFu5HQR3DRFjp68CCfPXIHXgjGiwSRxKV0sL+hUyAtHwDOFERRnLtwIdrGWrt6G46cvBSII1Kr06ewfIsm92W+4a4gJQkAnRRIEntGl6nRH5gypsXz2COw+cCpQmKMhEwMvRXlz+EeNcB9MmeOJVW5jFEEIdmX/vgpGEYT67e1x8OhZXD64TFSxumWk0wIwqcedE15i39cQBCb4YCiOpjC058ipizjuM1/q0z5MZyONRzDrVWzYR1SH1CDwhclfsT1yZ88Aa6tmSJMyicQS0yv4dwRhvOtSsStvXjZRzy7JAyR69KhIlzq5mDvef/wkY9EtpWp3Q7o0KRRB+IP2vbEEgVqBXGXaoGDebIj5m2x0h46fw8yJ/VGrcok/aNbhPxRTEAR6/UcIwguB79u9h/o+CJwlo0lc53uJ0KefQsmaVhg1sLOovM9fuoGKjfqKxoA+B7fvPULRal3E50Bz4zWEVEhNDDQpzl2yQQQ37fb2jnNw8/ZDeMwaLs2Wqt0d127ewwjbDrBqVy9QV3sOnoLNcNdgF+vlqzfiJ6WbuIkmhifPX2mjr6g5YX6DkJoYDBEEDoSXqrptBmH/xpninxUwD4IhgqBMDMEu4T9TwSiCsMhzCwaMnCkJhHSTn3CzNehgj0+f/LTJjTQEgXZB2gdZaK+r2sQGKZInFmbL+GMKYx7M9X7GLjPut0i1znJIkCDQxlav7UDsXueKrBn9Q5x8959A864jAhGEquWLYtE0/8Qq+w6fEcem8UO7oW3T6vIZNQ3MEhcjelQUyZ9DMpQ5zVyOrcudJHSIhTbACg16S8yvyoPw57wPYSUIdEBLr+O5HnBmJKEUSIogGJ9JURPmGFoTA7V6ecu1Q9+ujdGodnncvP1ALg5MzEZTZKNOQ/DmzQf4rJwsy0ZfptK1u+PKwWXinxBUCSlB6DV4Mu4/fKZNsESnZzpDz5xgK+dQlSbW4iR4cf9S0R5MnbsSLepXQuJECUL1ggRlYli7Za82NJxqfkZphJQg0HzG8ElG6TAclBoElq/fvonjZ4nCuUNsYmAOB/p0yVn54wemKg1CqNb3b6psFEEgAMVrdAWzbzFcsVXjKrh89Y54gZMkjBrYCZ1a1hacNASBqT9bNqyM4oVyYvTkxfKiMcqgfMn84lxYtHpn8UkgM8+YNgUcp7pLbDCFuUaDUKBSB/Esnzi8G+4+eAq+aLzpaDQI7K9gpQ548eotBvdtI+FqTC7SY6Az1m7ZI16+FUsXFufDIycvYsygzujQopYkFMlfob0Ql96dGomzzziXJfJ5xTKFFEH4g3a8Igjhsxim0CDcP73mt2GO9dsP1jMxzHVfLzZzagMYEkhH5NQpk+LWnYdYMmMoOvYdJ5FHlcsWFhB4aWCIH0MlY8QI+jcKQkIQGOacvnBjDO7TRkInGcVELcKiaUNEuOYu20aIyo8f3zGwdyt0a1tf6k8d3Ufr0BfSlQmKIATlpHj52m1UamyN64dX4EEQUQwM0SVe3799R8b0KbUEQXdMIfFB6DfCFY+fvAg0ldGDuoCRFyoPQkhX+e+oZzRBePHqjTj/MS5ZU5h9y2lET1QpX0ScwnQJAm/nbXqOwZNn/ptvrrMdalcppX2WbLllt5E4ctI/zMnGqqnYEzV5EPjZmQvX0Kr7SPmcNsdxQ6zQyWY8Rg7ohC6t68hzVKlJoqYb97Br7TRky5RWBP/wCW5Y7LlF6jAzG8dZvWIxrRcybZ8d+jqK5oA51qeO6oOZi9YiWeIEWKwyKf4xuz2sBIGx3EyfHVQ5fuay2LiVBiHsGoQ0qZIGGebo9/krXr99p0cQnGcux9HTl9C0TgVxaOY6MSx61QZfjHf1EKfEG0c95VZPJ+aGHe0lv8n1I57ic+C5fqfBZd3gvQ97D53BhOGBU6bT16BBzbKSYIiaxFO+C/Hi5VvJqcBQR0YuUFvKM+eo91x4bvCFy9xVoBqelxj+dkGm9KlEC8oLUkjKiTNX8Obtu99GMZw6fw3VmtqIBoFkjVkNmdqe5xRzPQSVB4EJnRhhsWKOQ6Ch8JLEHCC6qZYDmhiCG3+ecm3QtmkNmb8qfz8CRhMEDTTcYPyls6hRIyNJwgR6Gch0CcLDs+vkEdbnrV43U5kuzO/ef5AfCwnoAKRbh3Ht9FoOKtuXJmmJJiJB8yxVmLwFsH8NgdFtl4cO++cBFNT4QrMljBVmoenjX6trLKYaHwSqrgP6zehiyFThjLlXBCHsBGHKqN5B/jgTHfJmLFwTokRJDENm+naGM5N00PT34aMfnr98jcWuQyQbJv2RStSyEu//0JQ4sWJg7/oZkhQtTuwYmDbWWvv4Bu/96NxvPFo2rCIh0byU0Kl1wnQP0UJmy5wG2zynSC4EOk47zVgeoq5JOt5/+BgkQeAl6Pjpy5LueN+GGTnlUToAAALBSURBVNImcxEwn8u7Dx/Fr0OTLpnf3b3/RDQoGkdN3UFs231ECA6zTzLdePbMabHJY6K2SkgJAtNDM1Uzc08c93HTRluEaMKqksUiEGaCENzMNSYGEoTf/ZJbcO1Y4vfGCjNLnGt4jdlYTJlFkRnuqN2KEyvoX2lkkhk616XU+SW98Jrbn9RPWEwMdB6kx3zrxlWDfOdpQtiy45DerxwGNX+q/3cdOIHqFYtLlRNnLssvDdLpmSmHTVFo8uTPfSZP+us3OXhrP33hmqQeDlhIOOPFjW3Uz05TC8DQ2zLF82mb5W898IJSpVxhHDp2Xi5dhfJl0wp9YkqHyYiRIoqjdkiTeDF6h2SDhRqIfLkyIWqUXz+7/eXrVyxcsQUt6lf+7U89MzX2wyfPJceC7q9MmgJ71cafi4DZCcK6rXslVHGe88A/FwUzjcxYYWam4fwVzSpMw2cZw0IQwmeEqheFgELA3AiYnSCYewJ/cvtKmJl+dRSmpsfUUIuKIIQPzqoXhcCfjIAiCGZcHSXMTA+uwtT0mCqCED6Yql4UApaGgCIIZlwxJcxMD67C1PSYKoIQPpiqXhQCloaAIghmXDElzEwPrsLU9JgqghA+mKpeFAKWhoAiCGZcMSXMTA+uwtT0mCqCED6Yql4UApaGgCIIZlwxJcxMD67C1PSYKoIQPpiqXhQCloaAIghmXDElzEwPrsLU9JgqghA+mKpeFAKWhoAiCGZcMSXMTA+uwtT0mCqCED6Yql4UApaGgCIIZlwxJcxMD67C1PSYKoIQPpiqXhQCloaAIghmXDElzEwPrsLU9JgqghA+mKpeFAKWhoAQBEsbtBqvQkAhoBBQCCgEFALmRSDCd/5CiCoKAYWAQkAhoBBQCCgEdBCI8INJ11VRCCgEFAIKAYWAQkAhoAiC2gMKAYWAQkAhoBBQCPwOgf8BoZiqGobaV6sAAAAASUVORK5CYII=;" parent="1" vertex="1">
          <mxGeometry x="630" y="160" width="253.39" height="230" as="geometry" />
        </mxCell>
        <mxCell id="U0Ym5MUiS6u3b6CPzS_v-22" value="Grafana" style="rounded=0;whiteSpace=wrap;html=1;" parent="1" vertex="1">
          <mxGeometry x="270" y="360" width="150" height="50" as="geometry" />
        </mxCell>
        <mxCell id="U0Ym5MUiS6u3b6CPzS_v-24" value="" style="rounded=0;whiteSpace=wrap;html=1;" parent="1" vertex="1">
          <mxGeometry x="260" y="500" width="200" height="120" as="geometry" />
        </mxCell>
        <mxCell id="U0Ym5MUiS6u3b6CPzS_v-25" style="edgeStyle=orthogonalEdgeStyle;rounded=0;orthogonalLoop=1;jettySize=auto;html=1;exitX=0.5;exitY=1;exitDx=0;exitDy=0;exitPerimeter=0;dashed=1;" parent="1" source="U0Ym5MUiS6u3b6CPzS_v-26" target="U0Ym5MUiS6u3b6CPzS_v-36" edge="1">
          <mxGeometry relative="1" as="geometry" />
        </mxCell>
        <mxCell id="U0Ym5MUiS6u3b6CPzS_v-26" value="Clickhouse" style="shape=cylinder3;whiteSpace=wrap;html=1;boundedLbl=1;backgroundOutline=1;size=15;" parent="1" vertex="1">
          <mxGeometry x="460" y="610" width="140" height="60" as="geometry" />
        </mxCell>
        <mxCell id="U0Ym5MUiS6u3b6CPzS_v-27" value="UsageController" style="rounded=1;whiteSpace=wrap;html=1;fillColor=#e1d5e7;strokeColor=#9673a6;" parent="1" vertex="1">
          <mxGeometry x="282" y="540" width="110" height="20" as="geometry" />
        </mxCell>
        <mxCell id="U0Ym5MUiS6u3b6CPzS_v-28" value="dw-gateway（无锡）" style="text;html=1;strokeColor=none;fillColor=none;align=center;verticalAlign=middle;whiteSpace=wrap;rounded=0;" parent="1" vertex="1">
          <mxGeometry x="250" y="500" width="180" height="30" as="geometry" />
        </mxCell>
        <mxCell id="U0Ym5MUiS6u3b6CPzS_v-29" style="edgeStyle=orthogonalEdgeStyle;rounded=0;orthogonalLoop=1;jettySize=auto;html=1;exitX=0.5;exitY=1;exitDx=0;exitDy=0;entryX=0;entryY=0.5;entryDx=0;entryDy=0;entryPerimeter=0;dashed=1;" parent="1" source="U0Ym5MUiS6u3b6CPzS_v-30" target="U0Ym5MUiS6u3b6CPzS_v-26" edge="1">
          <mxGeometry relative="1" as="geometry" />
        </mxCell>
        <mxCell id="U0Ym5MUiS6u3b6CPzS_v-46" style="edgeStyle=orthogonalEdgeStyle;rounded=0;orthogonalLoop=1;jettySize=auto;html=1;exitX=1;exitY=0.5;exitDx=0;exitDy=0;entryX=0;entryY=0.5;entryDx=0;entryDy=0;dashed=1;" parent="1" source="U0Ym5MUiS6u3b6CPzS_v-30" target="U0Ym5MUiS6u3b6CPzS_v-41" edge="1">
          <mxGeometry relative="1" as="geometry" />
        </mxCell>
        <mxCell id="U0Ym5MUiS6u3b6CPzS_v-30" value="UsageService" style="rounded=1;whiteSpace=wrap;html=1;fillColor=#60a917;strokeColor=#2D7600;fontColor=#ffffff;" parent="1" vertex="1">
          <mxGeometry x="293.5" y="590" width="87" height="20" as="geometry" />
        </mxCell>
        <mxCell id="U0Ym5MUiS6u3b6CPzS_v-31" value="" style="endArrow=classic;html=1;rounded=0;dashed=1;" parent="1" target="U0Ym5MUiS6u3b6CPzS_v-27" edge="1">
          <mxGeometry width="50" height="50" relative="1" as="geometry">
            <mxPoint x="190" y="550" as="sourcePoint" />
            <mxPoint x="440" y="620" as="targetPoint" />
          </mxGeometry>
        </mxCell>
        <mxCell id="U0Ym5MUiS6u3b6CPzS_v-32" value="" style="endArrow=classic;html=1;rounded=0;dashed=1;exitX=0.5;exitY=1;exitDx=0;exitDy=0;entryX=0.5;entryY=0;entryDx=0;entryDy=0;" parent="1" source="U0Ym5MUiS6u3b6CPzS_v-27" target="U0Ym5MUiS6u3b6CPzS_v-30" edge="1">
          <mxGeometry width="50" height="50" relative="1" as="geometry">
            <mxPoint x="200" y="560" as="sourcePoint" />
            <mxPoint x="290" y="560" as="targetPoint" />
          </mxGeometry>
        </mxCell>
        <mxCell id="U0Ym5MUiS6u3b6CPzS_v-33" value="前端工程" style="rounded=0;whiteSpace=wrap;html=1;" parent="1" vertex="1">
          <mxGeometry x="80" y="520" width="120" height="60" as="geometry" />
        </mxCell>
        <mxCell id="U0Ym5MUiS6u3b6CPzS_v-34" value="" style="endArrow=classic;html=1;rounded=0;dashed=1;" parent="1" edge="1">
          <mxGeometry width="50" height="50" relative="1" as="geometry">
            <mxPoint x="-12" y="549.5" as="sourcePoint" />
            <mxPoint x="80" y="549.5" as="targetPoint" />
          </mxGeometry>
        </mxCell>
        <mxCell id="U0Ym5MUiS6u3b6CPzS_v-35" value="request" style="text;html=1;align=center;verticalAlign=middle;resizable=0;points=[];autosize=1;strokeColor=none;fillColor=none;" parent="1" vertex="1">
          <mxGeometry y="530" width="60" height="20" as="geometry" />
        </mxCell>
        <mxCell id="U0Ym5MUiS6u3b6CPzS_v-36" value="Grafana" style="rounded=0;whiteSpace=wrap;html=1;" parent="1" vertex="1">
          <mxGeometry x="270" y="760" width="150" height="50" as="geometry" />
        </mxCell>
        <mxCell id="U0Ym5MUiS6u3b6CPzS_v-39" value="&lt;span&gt;&lt;font style=&quot;font-size: 10px&quot;&gt;引用基础包&lt;/font&gt;&lt;/span&gt;" style="ellipse;whiteSpace=wrap;html=1;fillColor=#dae8fc;strokeColor=#6c8ebf;" parent="1" vertex="1">
          <mxGeometry x="392" y="185" width="70" height="30" as="geometry" />
        </mxCell>
        <mxCell id="U0Ym5MUiS6u3b6CPzS_v-41" value="&lt;span&gt;引用基础包&lt;/span&gt;" style="ellipse;whiteSpace=wrap;html=1;fillColor=#dae8fc;strokeColor=#6c8ebf;" parent="1" vertex="1">
          <mxGeometry x="397" y="585" width="63" height="30" as="geometry" />
        </mxCell>
        <mxCell id="U0Ym5MUiS6u3b6CPzS_v-49" value="接口调用" style="text;html=1;align=center;verticalAlign=middle;resizable=0;points=[];autosize=1;strokeColor=none;fillColor=none;fontSize=10;" parent="1" vertex="1">
          <mxGeometry x="200" y="530" width="60" height="20" as="geometry" />
        </mxCell>
      </root>
    </mxGraphModel>
  </diagram>
</mxfile>
